<?xml version="1.0" standalone="no"?>
<!DOCTYPE svg PUBLIC "-//W3C//DTD SVG 1.1//EN" "http://www.w3.org/Graphics/SVG/1.1/DTD/svg11.dtd" >
<svg>
<metadata>
Created by FontForge 20120731 at Tue Jun 21 13:47:03 2016
 By www
Copyright (c) 2000, 2001, 2006 Nick Curtis. All Rights Reserved. Distributed under non-exclusive license by 1001 Free Fonts.
</metadata>
<defs>
<font id="LittleLordFontleroyNF" horiz-adv-x="254" >
  <font-face 
    font-family="Little Lord Fontleroy NF"
    font-weight="400"
    font-stretch="normal"
    units-per-em="1000"
    panose-1="2 8 6 6 7 3 1 2 4 2"
    ascent="776"
    descent="-224"
    x-height="224"
    cap-height="582"
    bbox="-177 -300 1094 800"
    underline-thickness="20"
    underline-position="-113"
    unicode-range="U+0020-2212"
  />
<missing-glyph horiz-adv-x="280" 
 />
    <glyph glyph-name=".notdef" horiz-adv-x="280" 
 />
    <glyph glyph-name="exclam" unicode="!" horiz-adv-x="173" 
d="M125 540q-5 5 -11.5 8.5t-17.5 3.5v-412q0 -5 4 -5q3 0 5 2.5t4 4.5l14 -27q-16 -13 -37 -13q-24 0 -41.5 16.5t-17.5 41.5v351q0 29 20 49.5t49 20.5q14 0 27 -5t23 -15zM116 36q0 -18 -13 -31t-31 -13t-31.5 12.5t-13.5 31.5t13 32t32 13t31.5 -13.5t12.5 -31.5z
M67 539q-11 -11 -11 -28v-351q0 -14 11 -23v402zM87 36q0 6 -4 11t-11 5q-16 0 -16 -16q0 -7 5 -11t11 -4t10.5 4.5t4.5 10.5z" />
    <glyph glyph-name="quotedbl" unicode="&#x22;" horiz-adv-x="243" 
d="M27 457l32 47q-14 3 -22.5 16t-8.5 27q0 18 13 31t31 13t31 -13t13 -31q0 -15 -9 -27l-57 -80zM88 546q0 7 -5 11.5t-11 4.5q-7 0 -11.5 -4.5t-4.5 -10.5q0 -16 16 -16q6 0 11 4.5t5 10.5zM127 457l32 47q-14 3 -22.5 16t-8.5 27q0 18 13 31t31 13t31 -13t13 -31
q0 -15 -9 -27l-57 -80zM188 546q0 7 -5 11.5t-11 4.5q-7 0 -11.5 -4.5t-4.5 -10.5q0 -16 16 -16q6 0 11 4.5t5 10.5z" />
    <glyph glyph-name="numbersign" unicode="#" horiz-adv-x="358" 
d="M235 434l-37 -151h-48l37 151h-58l-37 -151h-48l39 151h-56v45h68l14 57h-82v45h94l28 110h45l-28 -110h57l27 110h50l-28 -110h59v-45h-70l-15 -57h85v-45h-96zM155 536l-15 -57h58l14 57h-57z" />
    <glyph glyph-name="dollar" unicode="$" horiz-adv-x="229" 
d="M202 257q0 -15 -7.5 -26t-18.5 -19t-24.5 -12.5t-26.5 -5.5v-102h-29v104q-11 2 -23.5 6.5t-22.5 12t-16.5 18t-6.5 23.5t7.5 23.5t21.5 10.5q19 0 33 -15t14 -34q0 -9 -4 -16q5 -1 9 -1.5t8 -0.5q8 0 18.5 3.5t10.5 12.5t-17.5 21.5t-38.5 28.5t-38.5 33.5t-17.5 35.5
q0 26 20.5 40t42.5 19v110h29v-109q11 -1 23 -4.5t21.5 -10t16 -16.5t6.5 -23q0 -12 -7 -22t-21 -10q-18 0 -31 14.5t-13 31.5q0 5 2 11q-2 0 -3.5 0.5t-3.5 0.5q-7 0 -17 -3t-10 -12q0 -8 18 -20t39 -27.5t39 -33.5t18 -37zM172 251q1 2 1 5q0 11 -17.5 26t-38 30t-38 28.5
t-17.5 22.5q0 -11 15.5 -25t35 -29t37 -30t22.5 -28z" />
    <glyph glyph-name="percent" unicode="%" horiz-adv-x="621" 
d="M463 -4q-31 0 -55.5 15t-41 39t-25 53t-8.5 57t8.5 57t25.5 53t41 39.5t56 15.5q31 0 55.5 -15.5t41 -39.5t25 -53.5t8.5 -56.5q0 -28 -8.5 -57t-25.5 -53t-41.5 -39t-55.5 -15zM513 581q-81 -146 -160.5 -290.5t-160.5 -290.5h-82q80 146 158.5 290.5t159.5 290.5h85z
M157 257q-32 0 -56 15t-40.5 39t-25 53t-8.5 57t8.5 57t25.5 53t41 39.5t56 15.5q31 0 55.5 -15.5t41 -39.5t25 -53t8.5 -57t-8.5 -57t-25.5 -53t-41.5 -39t-55.5 -15zM570 160q0 32 -8 56.5t-20.5 41t-29 25t-32.5 8.5q-31 0 -56 -32t-25 -99t25 -98.5t57 -31.5
q16 0 32 8.5t29 25t20.5 40.5t7.5 56zM445 553l-290 -524h18l292 524h-20zM264 421q0 32 -8 56.5t-20.5 41t-29 25t-32.5 8.5q-31 0 -56 -32t-25 -99t25 -98.5t57 -31.5q16 0 32 8.5t29 25t20.5 40.5t7.5 56zM397 52q-12 25 -17.5 52.5t-5.5 55.5t5.5 55.5t17.5 53.5
q-20 -22 -30 -50.5t-10 -58.5q0 -29 10 -57.5t30 -50.5zM90 313q-12 26 -17 53t-5 55t5 56t17 54q-20 -23 -29.5 -51.5t-9.5 -57.5t9.5 -58t29.5 -51z" />
    <glyph glyph-name="ampersand" unicode="&#x26;" horiz-adv-x="607" 
d="M580 365q0 -15 -6.5 -29t-17.5 -25q-16 -16 -36 -20.5t-41 -4.5q-12 0 -23.5 0.5t-22.5 0.5q25 -19 38 -46t13 -58q0 -48 -27 -89q6 -18 9.5 -36.5t3.5 -37.5q0 -40 -15 -75t-41.5 -61.5t-61.5 -41.5t-75 -15q-54 0 -100 27.5t-72 75.5l25 13q20 -36 55 -61t77 -25
q31 0 55.5 15t41.5 38t25.5 52t8.5 57v12q-30 -20 -65.5 -29t-71.5 -9q-43 0 -84 13t-73.5 38t-52 61.5t-19.5 83.5q0 43 21 73.5t53 53.5t69 39.5t70 30.5q-8 26 -13.5 52.5t-5.5 53.5q0 23 6.5 45t19 39.5t31.5 28t44 10.5q22 0 41 -9t33 -24t22 -35t8 -41
q0 -33 -13 -53.5t-34 -35t-46.5 -24.5t-49.5 -20q7 -15 15.5 -29t17.5 -28q46 -1 91.5 -1h91.5q22 0 36.5 15.5t14.5 37.5q0 16 -9 26t-26 10q-7 0 -12 -2.5t-10 -2.5q-4 0 -11 8t-9 11q19 16 42 16q27 0 46 -21t19 -48zM397 506q0 32 -20 55t-54 23t-53.5 -23t-19.5 -55
q0 -28 5.5 -54.5t15.5 -52.5q19 8 41.5 16t41 19.5t31 28.5t12.5 43zM454 182q0 45 -27.5 75t-73.5 30h-18q28 -40 56.5 -78t50.5 -82q12 25 12 55zM441 13q0 48 -22 93.5t-49 83.5q22 -41 37 -84.5t15 -89.5q0 -32 -9.5 -63.5t-28.5 -57.5q26 23 41.5 53t15.5 65zM389 63
q-6 31 -18 59.5t-27 55.5t-31 54t-30 54q-25 -2 -44 -21t-19 -45q0 -8 3 -17q9 14 23 14q9 0 18 -5t15.5 -12.5t11 -16.5t4.5 -18q0 -12 -8.5 -21t-20.5 -9q-6 0 -11.5 2.5t-10.5 4.5q-24 12 -38 31t-14 47q0 35 22 60.5t55 33.5q-5 11 -9.5 22.5t-9.5 22.5q-11 -5 -20.5 -9
t-19.5 -9q-43 -21 -70.5 -62.5t-27.5 -93.5q0 -33 12 -62.5t33.5 -52t50.5 -36t62 -13.5q32 0 62.5 11.5t56.5 30.5zM132 56q-23 27 -35.5 61.5t-12.5 69.5q0 54 28 102q-25 -19 -40.5 -45.5t-15.5 -58.5q0 -40 22 -73.5t54 -55.5z" />
    <glyph glyph-name="quotesingle" unicode="'" horiz-adv-x="143" 
d="M27 457l32 47q-14 3 -22.5 16t-8.5 27q0 18 13 31t31 13t31 -13t13 -31q0 -15 -9 -27l-57 -80zM88 546q0 7 -5 11.5t-11 4.5q-7 0 -11.5 -4.5t-4.5 -10.5q0 -16 16 -16q6 0 11 4.5t5 10.5z" />
    <glyph glyph-name="parenleft" unicode="(" horiz-adv-x="225" 
d="M198 -100q-50 20 -83 58.5t-52.5 86.5t-27.5 101t-8 102t7.5 101.5t27 100.5t52.5 87t84 59v-33q-32 -20 -51 -59t-29.5 -84.5t-14 -91.5t-3.5 -80q0 -36 3 -81.5t13 -90.5t29.5 -83.5t52.5 -59.5v-33zM99 34q-16 52 -23 106t-7 108t7 108.5t23 106.5q-23 -50 -34 -105
t-11 -109q0 -55 11 -110t34 -105z" />
    <glyph glyph-name="parenright" unicode=")" horiz-adv-x="225" 
d="M198 248q0 -49 -8 -102t-27.5 -101t-52.5 -86.5t-83 -58.5v33q33 21 52.5 59.5t29.5 83.5t13 90.5t3 81.5q0 34 -3.5 80t-14 91.5t-29.5 84.5t-51 59v33q51 -20 84 -59t52.5 -87t27 -100.5t7.5 -101.5zM126 34q23 50 34 105t11 109q0 55 -11 110t-34 105
q16 -52 23 -106.5t7 -108.5t-7 -108t-23 -106z" />
    <glyph glyph-name="asterisk" unicode="*" horiz-adv-x="218" 
d="M177 458l-53 30v-61h-29v62l-53 -30l-15 24l53 31l-53 30l15 25l53 -31v62h29v-61l53 31l14 -25l-53 -31l53 -31z" />
    <glyph glyph-name="plus" unicode="+" horiz-adv-x="390" 
d="M217 353v-145h-44v145h-146v44h145v146h44v-146h147v-44h-146z" />
    <glyph glyph-name="comma" unicode="," horiz-adv-x="142" 
d="M41 -29l17 23q-14 3 -22.5 16t-8.5 27q0 18 13 31t31 13t31 -13t13 -31q0 -15 -9 -27l-42 -56zM87 36q0 7 -5 11.5t-11 4.5q-7 0 -11.5 -4.5t-4.5 -10.5q0 -16 16 -16q6 0 11 4.5t5 10.5z" />
    <glyph glyph-name="hyphen" unicode="-" horiz-adv-x="190" 
d="M27 207v86h136v-86h-136zM134 264h-78v-28h78v28z" />
    <glyph glyph-name="period" unicode="." horiz-adv-x="143" 
d="M116 36q0 -18 -13 -31t-31 -13t-31.5 12.5t-13.5 31.5t13 32t32 13t31.5 -13.5t12.5 -31.5zM87 36q0 6 -4 11t-11 5q-16 0 -16 -16q0 -7 5 -11t11 -4t10.5 4.5t4.5 10.5z" />
    <glyph glyph-name="slash" unicode="/" horiz-adv-x="294" 
d="M74 -180h-47l192 843h48z" />
    <glyph glyph-name="zero" unicode="0" horiz-adv-x="365" 
d="M182 0q-39 0 -68 17t-48.5 44.5t-29 62.5t-9.5 72t9.5 73t29 64t49 45t68.5 17t68 -17t48.5 -45t29 -63t9.5 -72t-10 -72.5t-29.5 -63.5t-48.5 -45t-68 -17zM183 29q31 0 54.5 14t39.5 37.5t23.5 53t7.5 61.5t-8 62.5t-24 54.5t-39 39t-54 15q-20 0 -35.5 -14.5
t-26 -38.5t-15.5 -54.5t-5 -61.5q0 -32 5 -62t15.5 -53.5t26 -38t35.5 -14.5zM102 67q-14 29 -21.5 61t-7.5 66t7.5 68t21.5 66q-23 -26 -35 -59.5t-12 -69.5q0 -35 12 -69.5t35 -62.5z" />
    <glyph glyph-name="one" unicode="1" horiz-adv-x="268" 
d="M27 0v29h72v337h-48v29h122v-366h68v-29h-214zM144 366h-16v-337h16v337z" />
    <glyph glyph-name="two" unicode="2" horiz-adv-x="289" 
d="M262 275q0 -45 -25 -84l-103 -162h112v-29h-219q46 73 73.5 117t43.5 69.5t24 38t14 22.5q7 12 11.5 25.5t4.5 27.5q0 23 -15.5 44t-41.5 21q-19 0 -34 -10t-25.5 -25t-16 -33t-5.5 -34l-29 1q0 25 9 48.5t24.5 42t37 29.5t47.5 11t47 -9.5t35.5 -25.5t22.5 -38t8 -47z
M234 275q0 25 -10 45q2 -6 2 -11.5v-11.5q0 -37 -20 -65l-127 -203h21q29 45 57.5 88.5t55.5 88.5q10 16 15.5 33.5t5.5 35.5z" />
    <glyph glyph-name="three" unicode="3" horiz-adv-x="306" 
d="M279 129q0 -28 -11.5 -51.5t-30 -41t-43 -27t-51.5 -9.5q-35 0 -66 16.5t-50 45.5l24 15q11 -17 32.5 -31.5t43.5 -14.5q36 0 54.5 28.5t18.5 64.5q0 37 -21 69t-64 36h-32l105 137h-126v29h185l-105 -137q27 0 51.5 -10t43.5 -27t30.5 -41t11.5 -51zM204 47
q21 14 33.5 35.5t12.5 46.5q0 26 -12.5 47.5t-33.5 35.5q13 -17 20 -38t7 -44q0 -45 -27 -83z" />
    <glyph glyph-name="four" unicode="4" horiz-adv-x="382" 
d="M304 67v-125h-73v125h-204l139 328h80l-126 -299h111v237h73v-237h51v-29h-51zM276 305h-17v-209h17v209zM185 366l-114 -270h17l114 270h-17zM276 67h-17v-96h17v96z" />
    <glyph glyph-name="five" unicode="5" horiz-adv-x="301" 
d="M274 138q0 -27 -10.5 -52t-28.5 -44t-42 -30.5t-52 -11.5q-35 0 -65.5 18.5t-48.5 48.5l25 14q5 -8 12.5 -17t17 -16t20 -11.5t20.5 -4.5q18 0 32 9.5t23.5 24.5t14 34.5t4.5 39.5q0 19 -4.5 38t-13.5 33t-22.5 23t-31.5 9q-22 0 -39 -12t-34 -25v189h195v-29h-166v-106
q34 16 68 16q31 0 54.5 -10.5t39.5 -29.5t24 -44t8 -54zM245 138q0 30 -11.5 58t-40.5 42q17 -20 25.5 -45.5t8.5 -51.5q0 -53 -29 -94q23 15 35 39.5t12 51.5z" />
    <glyph glyph-name="six" unicode="6" horiz-adv-x="368" 
d="M341 195q0 -34 -10 -69.5t-29.5 -64.5t-49 -47.5t-67.5 -18.5t-67.5 18t-49.5 46.5t-30.5 63t-10.5 68.5q0 32 8 63.5t25 58.5l164 269h88l-117 -193q35 -3 62.5 -21.5t46 -46.5t28 -61t9.5 -65zM240 553q-39 -64 -79.5 -126.5t-76.5 -128.5q-11 -20 -17.5 -38.5
t-8.5 -40.5l203 334h-21zM310 224q-3 22 -12.5 46.5t-25 44.5t-36.5 33t-48 13h-10l-120 -197q3 -24 13 -49t25.5 -45t37 -33t48.5 -13h6zM228 34q38 18 58.5 57t24.5 80z" />
    <glyph glyph-name="seven" unicode="7" horiz-adv-x="298" 
d="M106 -72h-79l154 438h-109v29h199zM212 366l-144 -409h18l144 409h-18z" />
    <glyph glyph-name="eight" unicode="8" horiz-adv-x="387" 
d="M194 0q-33 0 -63 12t-53.5 33t-37 49.5t-13.5 62.5q0 51 29 91t75 57q-24 15 -38.5 39.5t-14.5 53.5q0 24 9.5 44t25.5 34.5t37 23t44 8.5t44 -8.5t36.5 -23t25 -34.5t9.5 -44q0 -29 -14.5 -53.5t-38.5 -39.5q46 -18 75 -58t29 -90q0 -34 -13.5 -62.5t-36.5 -49.5
t-53 -33t-63 -12zM280 398q0 37 -21.5 58t-47.5 21q-23 0 -41.5 -19t-18.5 -60t18.5 -60.5t41.5 -19.5q26 0 47.5 21.5t21.5 58.5zM132 340q-11 28 -11 58q0 29 11 57q-26 -24 -26 -57q0 -34 26 -58zM332 158q0 29 -11 52.5t-29 40t-40.5 25.5t-45.5 9q-20 0 -38 -7
t-32 -22.5t-22.5 -39.5t-8.5 -58q0 -32 9 -55.5t24 -39.5t34.5 -23.5t40.5 -7.5q22 0 43.5 8.5t38 24.5t27 39.5t10.5 53.5zM99 64q-23 42 -23 94t23 94q-20 -18 -32 -42.5t-12 -51.5t12 -51.5t32 -42.5z" />
    <glyph glyph-name="nine" unicode="9" horiz-adv-x="368" 
d="M56 -190l117 193q-35 3 -62.5 21.5t-46 46.5t-28 61t-9.5 65q0 34 10 69.5t29.5 64.5t48.5 47.5t68 18.5q38 0 67.5 -18t49.5 -46.5t30.5 -63t10.5 -68.5q0 -32 -8 -63.5t-25 -58.5l-164 -269h-88zM140 358q-38 -18 -58.5 -57t-24.5 -80zM310 228q-3 24 -13 48.5
t-25.5 45t-37.5 33.5t-50 13h-4l-122 -200q4 -23 13.5 -47.5t24.5 -44.5t36 -32.5t47 -12.5h11zM107 -161h21q39 64 78.5 127t77.5 128q11 19 17.5 38t8.5 41z" />
    <glyph glyph-name="colon" unicode=":" horiz-adv-x="143" 
d="M116 186q0 -18 -13 -31t-31 -13t-31.5 12.5t-13.5 31.5t13 32t32 13t31.5 -13.5t12.5 -31.5zM116 36q0 -18 -13 -31t-31 -13t-31.5 12.5t-13.5 31.5t13 32t32 13t31.5 -13.5t12.5 -31.5zM87 186q0 6 -4 11t-11 5q-16 0 -16 -16q0 -7 5 -11t11 -4t10.5 4.5t4.5 10.5z
M87 36q0 6 -4 11t-11 5q-16 0 -16 -16q0 -7 5 -11t11 -4t10.5 4.5t4.5 10.5z" />
    <glyph glyph-name="semicolon" unicode=";" horiz-adv-x="143" 
d="M116 186q0 -18 -13 -31t-31 -13t-31.5 12.5t-13.5 31.5t13 32t32 13t31.5 -13.5t12.5 -31.5zM42 -29l17 23q-14 3 -22.5 16t-8.5 27q0 18 12.5 31t31.5 13q18 0 31 -12.5t13 -31.5q0 -15 -9 -27l-42 -56zM87 186q0 6 -4 11t-11 5q-16 0 -16 -16q0 -7 5 -11t11 -4
t10.5 4.5t4.5 10.5zM88 36q0 7 -5 11.5t-11 4.5q-7 0 -11.5 -4.5t-4.5 -10.5q0 -16 16 -16q6 0 11 4.5t5 10.5z" />
    <glyph glyph-name="less" unicode="&#x3c;" horiz-adv-x="345" 
d="M299 191l-272 138v34l272 138l19 -38l-232 -117l232 -118z" />
    <glyph glyph-name="equal" unicode="=" horiz-adv-x="389" 
d="M27 369v45h335v-45h-335zM27 267v45h335v-45h-335z" />
    <glyph glyph-name="greater" unicode="&#x3e;" horiz-adv-x="345" 
d="M27 228l232 118l-232 117l19 38l272 -138v-34l-272 -138z" />
    <glyph glyph-name="question" unicode="?" horiz-adv-x="377" 
d="M350 411q0 -21 -4.5 -42.5t-14 -41t-24 -35.5t-34.5 -25q-14 -6 -30.5 -15t-30.5 -20t-23.5 -25.5t-9.5 -32.5v-53h-29v53q0 39 20 69.5t49 53.5q28 22 40.5 50.5t12.5 63.5q0 22 -5.5 47t-18 45.5t-32.5 34t-48 13.5q-20 0 -39.5 -8.5t-35 -23t-25.5 -33t-11 -38.5
q17 0 32 -14t15 -31q0 -12 -8.5 -20.5t-20.5 -8.5q-17 0 -30.5 13.5t-15.5 30.5q-1 5 -1.5 11t-0.5 11q0 32 14 58t36.5 44.5t51.5 28.5t59 10q34 0 64 -14t51.5 -37.5t34 -54t12.5 -64.5zM214 36q0 -19 -13.5 -31.5t-31.5 -12.5t-31 13t-13 31t12.5 31.5t31.5 13.5t32 -13
t13 -32zM321 409q0 32 -12.5 61t-35.5 50q14 -23 21 -50t7 -54q0 -34 -11 -67t-35 -58q35 16 50.5 49t15.5 69zM185 36q0 16 -16 16q-7 0 -11 -5t-4 -11t4.5 -10.5t10.5 -4.5t11 4t5 11z" />
    <glyph glyph-name="at" unicode="@" horiz-adv-x="468" 
d="M441 335q0 -21 -5 -46t-15.5 -46.5t-28.5 -36.5t-43 -15q-39 0 -55 36q-13 -17 -31 -28.5t-41 -11.5q-20 0 -35 9t-25 23t-15 32t-5 36q0 22 7 45.5t20.5 43t33 32.5t44.5 13q17 0 31 -7.5t25 -21.5l2 17h32q-2 -38 -7 -76t-10 -79q0 -12 8 -21t21 -9q17 0 28.5 12.5
t18 30t9 36.5t2.5 32q0 33 -12 58t-32.5 42t-48 25.5t-58.5 8.5q-41 0 -76.5 -15.5t-62 -42t-42 -62.5t-15.5 -76q0 -33 12.5 -61.5t33.5 -49.5t49.5 -33t61.5 -12q44 0 79 18.5t65 48.5l24 -23q-30 -35 -76 -56t-93 -21q-40 0 -74.5 15t-60 41t-40 61t-14.5 74
q0 48 18.5 89.5t50 72t74 48t90.5 17.5q37 0 70 -11.5t57.5 -33t39 -52.5t14.5 -70zM293 321q0 10 -2.5 22t-8.5 21.5t-15 16t-21 6.5q-17 0 -30 -10.5t-22 -25.5t-14 -32.5t-5 -31.5q0 -11 2.5 -22.5t8.5 -22t15 -17t21 -6.5q16 0 29.5 10.5t22.5 26.5t14 33.5t5 31.5z" />
    <glyph glyph-name="A" unicode="A" horiz-adv-x="609" 
d="M367 0v29h73v87q0 72 -35 128t-106 79q-28 -86 -48.5 -173.5t-53.5 -171.5q33 -12 68 -12v-28q-43 0 -79 13q-14 -31 -31 -59.5t-40 -50.5t-52.5 -35t-66.5 -13q-23 0 -45.5 7.5t-40 21.5t-28 34t-10.5 45q0 34 23.5 60t58.5 26q11 0 23 -4t22 -11.5t16.5 -18t6.5 -23.5
q0 -12 -9 -21t-21 -9q-9 0 -17.5 5t-14.5 12.5t-10 16.5t-4 18v5q-21 -4 -33 -19.5t-12 -36.5q0 -19 8.5 -34t22 -25t30.5 -15t34 -5q32 0 57 12t45 32t35 45.5t27 51.5q-28 14 -51 35t-40 47t-26.5 55.5t-9.5 61.5q0 43 16.5 79.5t44.5 63.5t65.5 42t79.5 15q11 0 20.5 -1
t20.5 -3q13 37 31 76.5t43.5 72.5t60 54t80.5 21h77v-29h-59v-524h69v-29h-215zM485 552q-5 0 -8.5 -0.5t-8.5 -1.5v-521h17v523zM439 541q-26 -12 -46.5 -34t-36.5 -48t-27.5 -55t-20.5 -54q42 -14 75.5 -41t55.5 -65v297zM271 330q-17 3 -32 3q-36 0 -68.5 -13
t-56.5 -35.5t-38 -54t-14 -68.5q0 -54 30.5 -100.5t78.5 -71.5q32 83 52.5 169t47.5 171z" />
    <glyph glyph-name="B" unicode="B" horiz-adv-x="546" 
d="M477 441q0 -43 -25.5 -70t-63.5 -41q27 -8 51 -23.5t42 -37t28 -48t10 -55.5q0 -34 -14 -64t-38 -53q-32 -31 -68 -40t-79 -9h-214v29h72v129q-35 12 -62.5 34t-47.5 51t-30.5 63t-10.5 70q0 51 17.5 93t48.5 73t73.5 48t92.5 17h4q30 44 70 79l20 -21
q-15 -13 -25.5 -28.5t-20.5 -32.5q36 -4 67 -15.5t54 -31t36 -48.5t13 -68zM403 368q45 26 45 78q0 32 -17 61t-45 44q20 -20 29.5 -49t9.5 -57q0 -20 -5 -40t-17 -37zM396 451q0 51 -29.5 80t-77.5 39q-26 -55 -31.5 -112.5t-5.5 -117.5q29 0 55.5 4.5t46 17t31 34
t11.5 55.5zM441 271q31 -47 31 -101q0 -29 -9 -57.5t-27 -51.5q25 20 39.5 47.5t14.5 59.5q0 30 -13 56.5t-36 46.5zM227 576q-10 0 -27.5 -5t-26.5 -9q-28 -12 -50 -31t-37 -43.5t-22.5 -53t-7.5 -58.5q0 -63 32 -113.5t90 -74.5q0 28 -0.5 54t-0.5 51q0 37 2 72t9 69.5
t20 69t35 72.5h-16zM443 168q0 28 -9.5 54t-27 45.5t-41.5 31t-54 11.5h-59v-136q29 0 58 9t53 26l17 -23q-28 -20 -61 -30.5t-67 -10.5v-116q11 0 22.5 -0.5t22.5 -0.5q31 0 57.5 9t46 27t31 44t11.5 60zM232 485q-25 -73 -25 -147v-309h16v309q0 37 1.5 73.5t7.5 73.5z
" />
    <glyph glyph-name="C" unicode="C" horiz-adv-x="514" 
d="M487 97q-36 -45 -87 -71t-109 -26q-59 0 -107.5 24.5t-83 65.5t-54 93t-19.5 108q0 59 21 112t58 92.5t88.5 63t111.5 23.5q30 0 60 -10t54 -29t39 -45t15 -59q0 -9 -3 -19.5t-9 -19.5t-14.5 -15t-19.5 -6q-18 0 -32 16.5t-14 33.5q0 13 8.5 22t21.5 9q10 0 18.5 -5
t14.5 -13q-1 25 -13 45t-30.5 34.5t-41.5 22.5t-45 8q-56 0 -96 -22.5t-65.5 -59.5t-38 -84.5t-12.5 -96.5q0 -47 12 -93.5t37 -83.5t63.5 -60t92.5 -23q22 0 44 7t42.5 19t38.5 27.5t32 32.5zM115 462q-29 -36 -44 -80.5t-15 -90.5q0 -47 14.5 -91t42.5 -81q-20 39 -29 82
t-9 88t9 89t31 84z" />
    <glyph glyph-name="D" unicode="D" horiz-adv-x="645" 
d="M618 293q0 -60 -22 -113.5t-61 -93.5t-92 -63t-114 -23h-216v29h73v126q-35 10 -64 30t-50 47.5t-33 61t-12 69.5q0 49 17.5 89t48.5 69t72 45t89 16q37 60 87 104l19 -21q-16 -14 -32 -39t-26 -44q69 0 125.5 -18t106.5 -68q41 -42 62.5 -93.5t21.5 -109.5zM500 92
q43 38 66.5 90t23.5 109t-23.5 109t-66.5 90q35 -42 53 -93.5t18 -105.5t-18 -105.5t-53 -93.5zM542 291q0 49 -17 96.5t-48 84t-74.5 59t-95.5 22.5h-18q-20 -47 -24.5 -97t-4.5 -101v-181q56 2 103 33l16 -23q-55 -37 -119 -39v-116h47q52 0 95.5 22.5t74.5 59t48 83.5
t17 97zM238 552q-39 -2 -72.5 -17t-58 -40t-38.5 -58.5t-14 -73.5q0 -30 10 -58t27 -51.5t41 -41t53 -27.5q0 23 -0.5 46.5t-0.5 46.5q0 73 9 140.5t44 133.5zM239 485q-25 -73 -25 -147v-309h17v309q0 37 1 73.5t7 73.5z" />
    <glyph glyph-name="E" unicode="E" horiz-adv-x="434" 
d="M407 135q-8 -32 -25.5 -57.5t-42.5 -42.5t-55 -26t-62 -9q-36 0 -71 12t-62.5 34.5t-44.5 53.5t-17 70q0 56 34 99t85 62q-35 16 -59.5 46.5t-24.5 70.5q0 31 13.5 55.5t35.5 42t49.5 26.5t56.5 9q26 0 49.5 -9t41.5 -24t29 -35t11 -43q0 -14 -7.5 -23t-21.5 -9
q-20 0 -33 16.5t-13 35.5q0 12 7 20t20 9q-14 18 -36 26t-45 8q-21 0 -36.5 -8t-26 -21.5t-16 -31t-5.5 -36.5q0 -24 8 -44.5t22 -35.5t34 -23.5t44 -8.5h61v-29h-39q-34 0 -63.5 -9t-51 -28t-33.5 -47t-12 -66q0 -26 7.5 -50.5t22.5 -43.5t36.5 -30.5t50.5 -11.5
q56 0 99.5 28.5t57.5 84.5zM129 375q-23 35 -23 78q0 30 11 58q-12 -13 -19 -29t-7 -33q0 -22 10.5 -41t27.5 -33zM115 283q-26 -20 -42.5 -49t-16.5 -62q0 -27 10.5 -51t29.5 -43q-20 42 -20 88q0 32 9.5 62t29.5 55z" />
    <glyph glyph-name="F" unicode="F" horiz-adv-x="625" 
d="M570 445v108h-176q-4 -20 -5 -40.5t-1 -40.5v-136h109v82h29v-193h-29v82h-109v-53q0 -20 -1 -40t-5 -40q11 0 23 1t23 4l6 -28q-24 -6 -49 -6h-10q-11 -33 -29 -62.5t-43 -51.5t-56.5 -35t-68.5 -13q-30 0 -57 9.5t-48 26.5t-33.5 42t-12.5 57q0 20 8.5 39.5t23 34.5
t33 24t39.5 9q17 0 32 -7t26 -18.5t17.5 -27t6.5 -31.5q0 -18 -10.5 -33.5t-30.5 -15.5t-32.5 16t-12.5 35q0 11 6 20.5t19 9.5q15 0 26 -9q-13 32 -47 32q-15 0 -29 -6.5t-24.5 -17.5t-16.5 -25t-6 -29q0 -25 10.5 -45t27.5 -33.5t39 -20.5t45 -7q28 0 50 14t37.5 35.5
t26 47t15.5 49.5q-33 12 -60 32t-46.5 47t-30.5 59t-11 67q0 42 14 79.5t39.5 66t60.5 47t77 24.5q21 36 54 62t69 46l14 -25q-26 -14 -49.5 -33.5t-34.5 -47.5h196v-137h-28zM364 545q-12 -27 -16.5 -56.5t-4.5 -58.5v-192q0 -42 -7.5 -82.5t-26.5 -77.5q26 34 38.5 75.5
t12.5 84.5v222q0 22 0.5 43t3.5 42zM334 548q-33 -8 -60 -24.5t-46.5 -40.5t-30 -54t-10.5 -64q0 -61 33.5 -108.5t90.5 -69.5q3 25 3 51v192q0 30 4.5 60t15.5 58z" />
    <glyph glyph-name="G" unicode="G" horiz-adv-x="593" 
d="M505 196v-136q26 -24 26 -57h-29q0 20 -14 34t-34 14q-8 0 -13.5 -2t-12.5 -6q-34 -20 -66 -31.5t-72 -11.5q-58 0 -106 24.5t-83 65t-54.5 92t-19.5 106.5q0 60 20.5 113.5t57.5 93.5t88 63.5t113 23.5q30 0 60 -10t54 -29t39 -45t15 -59q0 -21 -11.5 -40.5t-35.5 -19.5
q-20 0 -31.5 16.5t-11.5 34.5q0 12 5.5 21.5t19.5 9.5q19 0 36 -19q-1 24 -13 44.5t-30.5 35t-41.5 22.5t-45 8q-55 0 -95 -22.5t-66 -59t-38.5 -83.5t-12.5 -96q0 -42 11 -88.5t35 -84.5t61.5 -63t89.5 -25q32 0 59 9.5t53 26.5q8 5 19 10v120h-121v28h256v-28h-61z
M477 196h-17v-117q8 0 17 -3v120zM115 462q-29 -36 -44.5 -80.5t-15.5 -91.5q0 -46 14.5 -90t43.5 -81q-20 38 -29.5 82t-9.5 88q0 45 9.5 89.5t31.5 83.5z" />
    <glyph glyph-name="H" unicode="H" horiz-adv-x="620" 
d="M377 0v29h73v270h-276v-283q0 -44 -13 -88t-38.5 -79t-63.5 -57t-87 -22q-27 0 -54 9t-48 26t-34 40.5t-13 53.5q0 12 4.5 24.5t12.5 23t19 17.5t24 7q18 0 32.5 -17t14.5 -35q0 -12 -8.5 -21t-21.5 -9q-14 0 -25.5 10t-16.5 22q-6 -11 -6 -24q0 -23 11 -41t28 -30.5
t38.5 -19.5t42.5 -7q36 0 60 18t39 45t21 59.5t6 61.5v570h-71v29h216v-29h-69v-225h276v225h-73v29h216v-29h-69v-524h69v-29h-216zM495 553h-17v-524h17v524zM145 553h-18v-570q0 -24 -3 -47.5t-10 -46.5q16 29 23.5 61.5t7.5 65.5v537z" />
    <glyph glyph-name="I" unicode="I" horiz-adv-x="270" 
d="M27 0v29h72v524h-72v29h216v-29h-69v-524h69v-29h-216zM145 553h-17v-524h17v524z" />
    <glyph glyph-name="J" unicode="J" horiz-adv-x="275" 
d="M178 553v-556q0 -39 -11 -79t-33 -73t-55 -54t-77 -21q-26 0 -51 8t-44 23.5t-30.5 38t-11.5 50.5q0 10 4 22t11 21.5t17 16t21 6.5q17 0 31.5 -15.5t14.5 -32.5q0 -13 -9 -20.5t-22 -7.5q-11 0 -21 6t-16 16q-2 -4 -2 -8v-9q0 -17 8.5 -32.5t22 -27.5t30 -19t33.5 -7
q31 0 52.5 16.5t35.5 41.5t20.5 54t6.5 55v587h-71v29h216v-29h-70zM150 553h-18v-587q0 -26 -4 -51.5t-15 -49.5q19 29 28 63t9 69v556z" />
    <glyph glyph-name="K" unicode="K" horiz-adv-x="825" 
d="M798 122q0 -25 -9.5 -47.5t-26 -39t-39 -26t-47.5 -9.5q-38 0 -70.5 18t-55.5 49q-42 58 -82 116.5t-81 117.5v-63q0 -47 -13.5 -92.5t-40.5 -81.5t-66.5 -58.5t-91.5 -22.5q-29 0 -56 9.5t-47.5 27t-32.5 42.5t-12 56q0 22 8 41t22.5 33.5t33.5 23t41 8.5
q16 0 30.5 -6.5t26 -17t18 -25.5t6.5 -31q0 -19 -8.5 -35.5t-31.5 -16.5q-20 0 -33.5 15.5t-13.5 35.5q0 12 7.5 21t20.5 9t24 -9q-6 15 -18.5 23t-29.5 8q-32 0 -53 -23.5t-21 -54.5q0 -25 10 -44.5t27 -33t38.5 -20.5t44.5 -7q39 0 65.5 24t42.5 58.5t23 73.5t7 70v315
h-73v29h216v-29h-70v-211l185 212q13 13 27 20.5t32 7.5q15 0 30 -6t27 -16t19 -24t7 -30q0 -7 -2 -15.5t-6 -16t-10.5 -12.5t-15.5 -5q-18 0 -33.5 15.5t-15.5 33.5q0 12 8.5 20.5t20.5 8.5q9 0 15 -3q-16 21 -42 21q-12 0 -21.5 -5t-17.5 -13q-7 -7 -15 -16t-23.5 -27
t-43 -49.5t-72.5 -83.5q46 -66 90.5 -132t91.5 -132q14 -20 34 -38t46 -18q15 0 27.5 8t21.5 20t13.5 26.5t4.5 28.5h29zM639 35q-12 9 -21.5 20t-18.5 23q-47 63 -90.5 128t-88.5 130l-11 -13q42 -60 81.5 -120.5t83.5 -118.5q13 -17 28.5 -29.5t36.5 -19.5zM358 553h-15
v-315q0 -41 -8 -81t-26 -77q26 34 37.5 75t11.5 83v315z" />
    <glyph glyph-name="L" unicode="L" horiz-adv-x="488" 
d="M759 -33q-1 -5 -2.5 -10t-3.5 -10q-32 -86 -122 -86q-47 0 -102 20.5t-111 49t-110 59.5t-99 52q-22 -26 -52 -42.5t-65 -16.5q-27 0 -46 15t-19 44q0 30 21.5 47t50.5 17q20 0 40.5 -5.5t38.5 -11.5q5 17 7 35t2 36v238q0 34 9.5 69t29 63.5t48.5 47t67 18.5
q23 0 44.5 -7.5t38.5 -21t27 -33t10 -43.5q0 -22 -15 -41t-38 -19q-17 0 -32 15t-15 32q0 14 9 21.5t22 7.5t23 -7t16 -18q1 4 1.5 7t0.5 7q0 15 -8 28t-20 22.5t-27 15t-29 5.5q-24 0 -40.5 -11.5t-27 -29t-15 -39t-4.5 -41.5v-251q0 -33 -8 -64.5t-25 -60.5
q40 -17 93.5 -44t109.5 -52t110 -43t96 -18q34 0 60 15t37 48zM240 499q-13 -23 -18.5 -49t-5.5 -52v-238q0 -17 -1.5 -34t-6.5 -34q13 23 19 49.5t6 53.5v251q0 29 7 53zM168 63q-16 5 -33 9.5t-34 4.5t-31 -7.5t-14 -26.5q0 -14 10.5 -22.5t24.5 -8.5q26 0 45.5 14
t31.5 37z" />
    <glyph glyph-name="M" unicode="M" horiz-adv-x="738" 
d="M495 0v29h73v506l-188 -279q20 -36 34 -79t14 -85q0 -18 -4 -37t-13.5 -34.5t-24.5 -25t-37 -9.5q-19 0 -34 9t-25 23t-15.5 31.5t-5.5 34.5q0 35 15.5 69.5t34.5 63.5l-192 306v-494h69v-29h-169v29h71v524h-71v29h151l186 -298l201 298h146v-29h-69v-524h69v-29h-216z
M613 553h-17v-524h17v524zM393 138q-7 34 -20 66t-31 61l-180 288h-20l211 -335q12 -19 22 -39t18 -41zM383 59q0 32 -15.5 68t-31.5 63q-15 -23 -26.5 -50.5t-11.5 -55.5q0 -12 3 -24t10 -22.5t16.5 -17t23.5 -6.5q19 0 25.5 15t6.5 30z" />
    <glyph glyph-name="N" unicode="N" horiz-adv-x="708" 
d="M870 648q0 -29 -21 -46t-49 -17q-9 0 -18 3.5t-17 10t-13 15t-5 17.5q0 13 9 21.5t22 8.5q16 0 31 -11.5t19 -27.5q13 11 13 27q0 23 -18 35.5t-38 12.5q-36 0 -57 -21t-31.5 -51.5t-13.5 -66.5t-3 -66v-493h-23l-269 492v-254q0 -46 -13.5 -91.5t-40 -82t-65.5 -59
t-90 -22.5q-30 0 -57.5 9.5t-48.5 26.5t-33.5 42t-12.5 57q0 22 8.5 41t23 33.5t33.5 22.5t41 8q38 0 59 -23t21 -60q0 -18 -9.5 -33t-29.5 -15t-33.5 15.5t-13.5 35.5q0 13 7.5 21t20.5 8t24 -8q-14 32 -47 32q-15 0 -29 -6.5t-24.5 -17.5t-16.5 -25t-6 -29
q0 -26 10.5 -45.5t27.5 -33t39 -20.5t46 -7q45 0 78.5 20.5t56 53t34 72.5t11.5 80v315h-87v29h151l228 -418v311q0 33 3 76.5t16 82t40.5 65.5t75.5 27q34 0 59 -21t25 -56zM651 103l-245 449h-18l1 -3l262 -479v33z" />
    <glyph glyph-name="O" unicode="O" horiz-adv-x="596" 
d="M569 292q0 -57 -20 -110.5t-55.5 -95.5t-85.5 -67.5t-110 -25.5t-110 25.5t-85.5 67.5t-55.5 95.5t-20 110.5t20 111t55.5 95.5t85.5 67t110 25.5t110 -25.5t85.5 -67t55.5 -95.5t20 -111zM471 104q34 39 51.5 88t17.5 101q0 51 -17.5 99.5t-51.5 87.5q26 -42 38 -90.5
t12 -97.5t-12 -97.5t-38 -90.5zM493 292q0 51 -14.5 101t-44.5 92q-24 33 -58.5 55.5t-77.5 22.5t-77.5 -22.5t-58.5 -55.5q-30 -42 -44.5 -92t-14.5 -101q0 -42 12 -89t36 -87.5t60.5 -67t86.5 -26.5q49 0 86 26.5t61 67t36 87.5t12 89zM124 104q-26 42 -38 90.5t-12 97.5
t12 97.5t38 90.5q-34 -38 -51 -87.5t-17 -100.5t17 -100t51 -88z" />
    <glyph glyph-name="P" unicode="P" horiz-adv-x="524" 
d="M497 415q0 -39 -14.5 -69t-39.5 -49.5t-57.5 -29.5t-69.5 -10q-14 0 -26.5 1.5t-26.5 3.5v-88q50 0 92 24l14 -25q-50 -28 -106 -28v-116h69v-29h-216v29h72v128q-35 12 -64.5 34t-51 50.5t-33.5 63t-12 71.5q0 49 18 91t49 73t73 48.5t91 18.5q35 47 88 81l15 -24
q-15 -11 -27.5 -27.5t-23.5 -32.5q85 -8 136 -54t51 -135zM412 309q29 18 43 48t14 64q0 38 -17.5 72.5t-50.5 54.5q23 -25 33.5 -60t10.5 -69q0 -29 -7.5 -58t-25.5 -52zM417 425q0 60 -33 99t-93 49q-20 -38 -25 -82.5t-5 -87.5q0 -27 1 -54.5t1 -54.5q18 -3 37 -3
q63 0 90 37t27 97zM238 577q-40 -4 -73 -21t-57 -43t-37.5 -60.5t-13.5 -74.5q0 -66 35.5 -116t95.5 -74v149q0 62 9 123.5t41 116.5zM243 521q-14 -33 -19.5 -68.5t-5.5 -70.5v-353h16v353q0 35 1 70t8 69z" />
    <glyph glyph-name="Q" unicode="Q" horiz-adv-x="598" 
d="M897 -88q0 -60 -33 -93t-95 -33q-42 0 -87.5 15t-90.5 37.5t-88.5 49t-82.5 49t-73 37.5t-59 15q-23 0 -45.5 -8t-40 -22.5t-28.5 -35t-11 -44.5l-28 6q0 41 25.5 73t62.5 47q-46 14 -82 43.5t-61.5 68t-39 83.5t-13.5 92q0 57 19.5 111t55.5 95.5t85.5 67t109.5 25.5
t110 -25.5t86 -67t55.5 -95.5t19.5 -111q0 -48 -14.5 -95t-41.5 -86t-65.5 -68t-86.5 -42q42 -17 93.5 -42t105.5 -48.5t106.5 -40.5t96.5 -17q82 0 107 77l28 -4v-14zM471 104q34 39 51 88t17 100t-17 100t-51 88q26 -42 38 -90.5t12 -97.5t-12 -97.5t-38 -90.5zM492 292
q0 42 -12 89.5t-36 88t-61 67t-86 26.5q-50 0 -86.5 -26.5t-60.5 -67t-35.5 -88t-11.5 -89.5t12 -89t36 -87.5t60.5 -67t85.5 -26.5t85.5 26.5t61 67t36.5 87.5t12 89zM854 -148q-19 -16 -42.5 -22.5t-47.5 -6.5q-32 0 -63 7.5t-61 17.5q30 -14 65 -24t68 -10q24 0 45.5 8
t35.5 30zM124 104q-26 42 -38 90.5t-12 97.5t12 97.5t38 90.5q-34 -39 -51.5 -88t-17.5 -100t17.5 -100t51.5 -88z" />
    <glyph glyph-name="R" unicode="R" horiz-adv-x="585" 
d="M749 -20q-2 -24 -12 -44.5t-26.5 -35.5t-38 -23.5t-45.5 -8.5q-42 0 -75 21t-54 56l-64 106t-62 107q-13 23 -23.5 45.5t-24.5 44.5q-11 16 -29.5 26t-41.5 10v-110l33 2l10 -27q-17 -3 -32 -3h-11v-117h69v-29h-216v29h72v133q-32 13 -59.5 36t-48 52t-32 62.5
t-11.5 68.5q0 47 17 87.5t46.5 70.5t69.5 47.5t87 19.5q18 25 40.5 45t48.5 37l15 -24q-16 -11 -28 -27t-23 -32q79 -8 128 -52t49 -127q0 -54 -32.5 -85t-81.5 -45q27 -17 45 -46q44 -69 83 -141t81 -142q13 -21 33 -41.5t47 -20.5q15 0 27 7t20.5 18.5t14 25t6.5 26.5z
M401 343q25 16 36.5 39t11.5 49q0 35 -18.5 68.5t-49.5 53.5q22 -23 33.5 -54t11.5 -65q0 -50 -25 -91zM253 313q16 -4 33 -4q27 0 47 11t33.5 29t20.5 41t7 47t-7 48t-21 42.5t-35.5 30.5t-50.5 14q-19 -38 -23.5 -79.5t-4.5 -83.5zM584 -95q-20 20 -36 47
q-42 71 -81 142.5t-84 140.5q-9 14 -19.5 24t-24.5 18q3 -4 5.5 -7.5t4.5 -7.5q45 -75 86 -151.5t88 -151.5q23 -37 61 -54zM227 576q-38 -5 -69 -21t-53.5 -40.5t-35 -57.5t-12.5 -71q0 -63 32.5 -114t88.5 -78v152q0 60 9 119t40 111zM233 524q-14 -32 -20 -67t-6 -70
v-358h17v358q0 35 1 69t8 68z" />
    <glyph glyph-name="S" unicode="S" horiz-adv-x="423" 
d="M396 133q0 -38 -17 -65t-44 -44.5t-60 -25.5t-66 -8t-65.5 9.5t-58.5 28.5t-42 48t-16 68q0 20 6.5 39t18.5 33.5t29.5 23.5t38.5 9q30 0 52 -20.5t22 -50.5q0 -21 -14 -39.5t-37 -18.5q-17 0 -33.5 13.5t-16.5 31.5q0 13 9 21.5t22 8.5q11 0 22.5 -6t18.5 -15v6
q0 18 -13.5 29.5t-32.5 11.5q-15 0 -27 -7t-20 -18t-12.5 -24.5t-4.5 -27.5q0 -30 12.5 -53t33.5 -39.5t48 -25t56 -8.5q24 0 45.5 6t37 18.5t25 32t9.5 45.5q0 37 -17.5 66t-43.5 55t-56.5 50.5t-56.5 52t-43.5 59t-17.5 72.5q0 30 11 53t30 39.5t44 25t53 8.5t54.5 -9
t47.5 -26v19h29v-153h-29v91q-15 23 -40 35t-52 12q-35 0 -57.5 -20.5t-22.5 -56.5q0 -24 9.5 -43t23.5 -35.5t31 -31.5t32 -30q23 -24 48.5 -47.5t47 -49.5t35.5 -56t14 -67zM368 133q0 38 -18 70t-45 60.5t-58 54.5t-58 53.5t-45 56.5t-18 64q0 19 6 37q-16 -23 -16 -54
q0 -37 17.5 -66t43.5 -54.5t56.5 -50t56.5 -51.5t43.5 -59.5t17.5 -73.5q0 -14 -2.5 -28t-8.5 -27q13 14 20.5 31.5t7.5 36.5z" />
    <glyph glyph-name="T" unicode="T" horiz-adv-x="540" 
d="M538 621q0 -26 -7.5 -42.5t-21.5 -26.5t-33 -13.5t-42 -3.5q-21 0 -42 2t-41 4v-512h70v-29h-216v29h72v518q-12 1 -24.5 1.5t-24.5 0.5q-28 0 -58.5 -7t-56 -22t-42 -39t-16.5 -57q0 -19 5.5 -37.5t17 -33t27.5 -23.5t37 -9q8 0 18 5q-13 4 -24 16.5t-11 26.5
q0 12 8.5 20t20.5 8q20 0 33.5 -16t13.5 -35q0 -26 -18.5 -40t-42.5 -14q-26 0 -47 11.5t-35.5 29.5t-22.5 41t-8 47q0 43 20 75t51 53.5t69.5 32t76.5 10.5h55q32 0 63 -1.5t62 -1.5q17 0 32.5 2t27 7.5t18.5 16.5t7 29v6.5t-1 7.5l29 4q1 -10 1 -20v-21zM323 544
q-5 0 -8.5 0.5t-8.5 0.5v-516h17v515z" />
    <glyph glyph-name="U" unicode="U" horiz-adv-x="714" 
d="M616 553v-393q0 -39 -18 -70.5t-46.5 -53.5t-64 -34t-71.5 -12q-42 0 -78 13t-63 37.5t-42.5 59t-15.5 77.5q-38 6 -72 24.5t-60.5 46.5t-42 63t-15.5 74q0 43 17.5 79t47 62.5t68 41t80.5 14.5h176v-29h-125v-348q31 4 58 17.5t47.5 34.5t32.5 48.5t12 59.5v10.5
t-1 10.5l29 8q1 -6 1.5 -12t0.5 -12q0 -38 -14.5 -71.5t-39 -59t-57 -42t-69.5 -21.5q0 -32 7.5 -60.5t23.5 -49.5t42 -33t64 -12q29 0 57.5 10t51 28t36.5 43.5t14 57.5v393h-59v29h159v-29h-71zM279 77q-17 31 -17 65v411h-16v-393q0 -47 33 -83zM217 552q-32 -3 -61 -16
t-51.5 -34.5t-35.5 -50t-13 -61.5q0 -34 13 -64.5t35 -54.5t51.5 -40.5t61.5 -23.5v345z" />
    <glyph glyph-name="V" unicode="V" horiz-adv-x="546" 
d="M519 457q0 -57 -26 -107l-191 -371l-217 574h-58v29h185v-29h-45l169 -447q36 63 66.5 128t65.5 129q23 43 23 92q0 28 -8.5 52t-24 42t-38.5 28t-52 10q-18 0 -37 -5.5t-35 -16.5t-26.5 -27t-10.5 -36q2 0 3 0.5t3 0.5q19 0 33 -17t14 -34q0 -13 -7.5 -22t-21.5 -9
t-24 8t-16.5 20.5t-9.5 27t-3 26.5q0 26 13 47t33 35.5t44.5 22.5t47.5 8q34 0 62 -12t48 -33.5t30.5 -50.5t10.5 -63zM137 553h-26l197 -508l12 31z" />
    <glyph glyph-name="W" unicode="W" horiz-adv-x="842" 
d="M746 553l-164 -574l-160 339l-146 -344l-174 579h-75v29h216v-29h-64l133 -421l93 220q-20 42 -34.5 86.5t-14.5 92.5q0 19 4 39t13.5 36.5t24.5 27.5t38 11q17 0 29.5 -10t21 -24.5t13 -31.5t4.5 -31q0 -36 -14 -70t-28 -66l134 -290l120 431h-70v29h169v-29h-69z
M475 548q0 8 -2.5 20t-7 22.5t-12.5 18t-18 7.5q-14 0 -17.5 -12.5t-3.5 -23.5q0 -13 3 -31t7.5 -36.5t10.5 -36t11 -29.5q11 24 20 49.5t9 51.5zM584 80q-39 84 -78 166.5t-77 167.5q-15 34 -27.5 69.5t-15.5 73.5q-1 -7 -1.5 -14t-0.5 -14q0 -39 11.5 -76.5t28.5 -72.5
l153 -325zM149 553h-17l148 -496l15 34z" />
    <glyph glyph-name="X" unicode="X" horiz-adv-x="724" 
d="M481 0v29h57l-125 225l-125 -192q-22 -33 -56.5 -53t-75.5 -20q-29 0 -52.5 10.5t-40.5 29t-26.5 43t-9.5 52.5q0 21 7 41t19.5 36.5t31 26.5t41.5 10q19 0 36 -7t30.5 -19.5t21.5 -29.5t8 -36q0 -20 -11.5 -38t-34.5 -18q-18 0 -33.5 16t-15.5 34q0 13 8.5 21.5
t21.5 8.5q11 0 20 -6.5t16 -14.5q-2 26 -21.5 43.5t-45.5 17.5q-17 0 -30 -7.5t-22 -20t-13.5 -27.5t-4.5 -30q0 -20 7 -39.5t19.5 -34.5t30.5 -24t39 -9q73 0 112 60q34 51 67 102.5t66 102.5l-150 270h-71v29h215v-29h-59l111 -200l129 200h-58v29h152v-29h-60l-148 -228
l163 -296h76v-29h-216zM299 553h-20l292 -524h18z" />
    <glyph glyph-name="Y" unicode="Y" horiz-adv-x="569" 
d="M138 -160q-19 0 -38.5 5t-35.5 15t-26.5 26t-10.5 37q0 27 14.5 43t41.5 16q22 0 39 -14.5t17 -37.5q0 -12 -8 -21t-20 -9q-16 0 -30.5 15t-18.5 29q-6 -8 -6 -19q0 -15 8 -26t20 -17.5t26 -9.5t26 -3q23 0 45.5 10.5t43.5 26.5t39.5 34.5l33.5 33.5l-194 579h-77v29h216
v-29h-59l170 -509q28 39 56.5 88.5t51.5 103.5t38 109t15 104q0 28 -6 52t-19 41.5t-34.5 27.5t-51.5 10q-18 0 -34 -8t-28 -20.5t-18.5 -29.5t-6.5 -35q0 -29 18 -50l-22 -19q-25 30 -25 68q0 24 9 46t25 39.5t37.5 27.5t45.5 10q37 0 63 -12t42.5 -33.5t24 -51t7.5 -63.5
q0 -31 -5 -61.5t-13 -59.5q-17 -57 -42.5 -116t-59 -115t-73 -106.5t-84.5 -89.5q-26 -23 -59 -42t-68 -19zM154 553h-20l186 -553l13 16z" />
    <glyph glyph-name="Z" unicode="Z" horiz-adv-x="661" 
d="M601 108q0 32 -13.5 61t-39.5 48l21 24q30 -23 47.5 -57.5t17.5 -72.5q0 -27 -9 -51t-26 -41t-41 -27t-54 -10q-33 0 -64 14q-20 9 -39 21.5t-38 24.5q-23 15 -46 29.5t-48 26.5l-21 -39q-18 -32 -52.5 -53.5t-72.5 -21.5q-39 0 -67.5 24.5t-28.5 64.5q0 25 10.5 42.5
t28 28.5t39 15.5t42.5 4.5q17 0 35 -2.5t35 -6.5l218 398h-278v-110h-29v139h403l-247 -456q26 -14 50 -29l48 -30q29 -19 60 -36.5t67 -17.5q42 0 67 27t25 68zM468 553q-72 -131 -143 -260.5t-142 -261.5q26 18 39 42l261 480h-15zM203 129l-28 4t-28 2q-15 0 -31.5 -3
t-29.5 -10t-21.5 -19.5t-8.5 -31.5q0 -23 16 -39t39 -16q12 0 22 7t18.5 16.5t14.5 20.5t11 20z" />
    <glyph glyph-name="bracketleft" unicode="[" horiz-adv-x="183" 
d="M27 -250v896h129v-28h-54v-839h54v-29h-129zM73 618h-17v-839h17v839z" />
    <glyph glyph-name="backslash" unicode="\" horiz-adv-x="294" 
d="M220 -180l-193 843h48l192 -843h-47z" />
    <glyph glyph-name="bracketright" unicode="]" horiz-adv-x="183" 
d="M27 -250v29h54v839h-54v28h129v-896h-129zM110 -221h17v839h-17v-839z" />
    <glyph glyph-name="asciicircum" unicode="^" horiz-adv-x="213" 
d="M147 616l-40 66l-41 -66h-39l61 99h38l60 -99h-39z" />
    <glyph glyph-name="underscore" unicode="_" horiz-adv-x="500" 
d="M0 -45v37h500v-37h-500z" />
    <glyph glyph-name="grave" unicode="`" horiz-adv-x="181" 
d="M138 235l-111 74l16 24l111 -74z" />
    <glyph glyph-name="a" unicode="a" horiz-adv-x="322" 
d="M295 60q0 -25 -17.5 -42t-42.5 -17q-29 0 -46 25q-27 -25 -63 -25q-23 0 -41 9.5t-31 25t-20 36t-7 41.5t7 41t20 36t31 25.5t41 9.5q29 0 52 -17v11h68v-180q0 -5 5 -5q7 0 11.5 10.5t4.5 15.5h28zM219 185h-11v-125q0 -15 11 -23v148zM178 169q-17 24 -34 24
q-11 0 -19 -7t-13.5 -18t-8 -25t-2.5 -29q0 -30 10.5 -54.5t31.5 -24.5q17 0 35 22v112zM94 39q-10 14 -14.5 32t-4.5 37q0 43 19 79q-20 -12 -29.5 -32t-9.5 -42q0 -23 9.5 -43t29.5 -31z" />
    <glyph glyph-name="b" unicode="b" horiz-adv-x="287" 
d="M260 113q0 -51 -34 -81.5t-84 -30.5q-51 0 -83 31.5t-32 82.5v397q0 29 20.5 49.5t49.5 20.5q28 0 48 -20l-20 -21q-10 12 -30 12v-338q11 5 22.5 7.5t25.5 2.5q23 0 44.5 -8.5t37.5 -23.5t25.5 -35.5t9.5 -44.5zM66 538q-11 -11 -11 -28v-414q0 -14 11 -23v465zM229 113
q0 22 -9.5 42.5t-29.5 31.5q10 -17 14 -39t4 -42q0 -17 -3 -35t-14 -32q19 11 28.5 31.5t9.5 42.5zM179 112q0 9 -2.5 23.5t-8 27.5t-14 22.5t-20.5 9.5q-10 0 -20.5 -4t-18.5 -9v-111q0 -17 11.5 -29t28.5 -12q12 0 20 9.5t13.5 22.5t8 27t2.5 23z" />
    <glyph glyph-name="c" unicode="c" 
d="M227 46q-16 -23 -35 -34.5t-48 -11.5q-24 0 -45 9t-37 24t-25.5 36t-9.5 45t9.5 44t26 35t38 23.5t44.5 8.5q11 0 25 -3t26.5 -9t21 -15.5t8.5 -23.5t-9.5 -23t-23.5 -9q-16 0 -31 13t-15 30q0 6 1 9q-20 -6 -29.5 -30t-9.5 -52q0 -31 12 -56.5t35 -25.5q17 0 27.5 10
t19.5 22zM98 39q-18 30 -18 71q0 20 4.5 40t13.5 37q-19 -11 -28.5 -31.5t-9.5 -42.5t9.5 -42.5t28.5 -31.5z" />
    <glyph glyph-name="d" unicode="d" horiz-adv-x="321" 
d="M274 541q-5 5 -12 8.5t-18 3.5v-514q0 -5 3 -5q7 0 12.5 10t5.5 16h28q0 -25 -17 -42t-42 -17q-28 0 -46 23q-27 -24 -60 -24q-22 0 -40.5 10t-32 26t-21 36t-7.5 41q0 20 7.5 40t21 36t31.5 26t40 10q26 0 49 -15v302q0 29 20.5 49.5t49.5 20.5q28 0 48 -20zM217 540
q-11 -11 -11 -28v-452q0 -15 11 -23v503zM176 172q-17 20 -32 20q-10 0 -17.5 -7.5t-13 -18.5t-8.5 -24.5t-3 -26.5q0 -12 2 -26t7 -26t12.5 -20t18.5 -8q14 0 34 18v119zM94 39q-19 31 -19 71q0 41 19 77q-20 -11 -29.5 -31.5t-9.5 -42.5t9.5 -42.5t29.5 -31.5z" />
    <glyph glyph-name="e" unicode="e" horiz-adv-x="263" 
d="M236 45q-17 -21 -41.5 -33t-51.5 -12q-24 0 -45.5 9t-37 24t-24.5 35t-9 43q0 24 9 45t25 36t37.5 24t46.5 9q29 0 52.5 -14t23.5 -47q0 -21 -11 -35t-27 -24t-34.5 -17t-34.5 -12q13 -46 43 -46q26 0 57 33zM192 165q0 16 -10 23t-24 7q-12 0 -21.5 -8t-15.5 -20.5
t-9 -29t-3 -32.5q10 3 24.5 7.5t27.5 11.5t22 17t9 24zM97 39q-11 16 -14.5 34.5t-3.5 36.5q0 20 4 40t14 37q-19 -11 -28.5 -31.5t-9.5 -42.5t9.5 -42.5t28.5 -31.5z" />
    <glyph glyph-name="f" unicode="f" horiz-adv-x="205" 
d="M158 541q-5 5 -12 8.5t-18 3.5v-328h35v-29h-35v-421h-68v421h-33v29h33v287q0 29 20.5 49.5t49.5 20.5q28 0 48 -20zM99 540q-11 -11 -11 -28v-704h11v732z" />
    <glyph glyph-name="g" unicode="g" horiz-adv-x="272" 
d="M245 -154q0 -29 -20.5 -49.5t-49.5 -20.5q-28 0 -48 20l20 21q5 -5 12 -8.5t18 -3.5v211q-24 -16 -50 -16q-22 0 -40.5 10t-31.5 26t-20.5 36.5t-7.5 40.5t7.5 40.5t20.5 36.5t31 26t40 10q14 0 27 -4.5t24 -12.5v16h68v-379zM177 171q-6 8 -14.5 14.5t-19.5 6.5
q-20 0 -30.5 -24t-10.5 -53q0 -30 11 -55.5t31 -25.5q10 0 18.5 6.5t14.5 13.5v117zM216 195h-11v-388q11 13 11 28v360zM92 39q-10 14 -14 32t-4 37q0 44 18 79q-19 -11 -28.5 -31.5t-9.5 -42.5t9.5 -42.5t28.5 -31.5z" />
    <glyph glyph-name="h" unicode="h" horiz-adv-x="315" 
d="M288 60q0 -26 -17 -42t-43 -16t-42 16t-16 42v118q0 7 -5.5 11t-11.5 4q-10 0 -20 -6t-18.5 -15t-13.5 -20t-5 -21v-131h-69v512q0 29 20.5 49.5t50.5 20.5q28 0 48 -20l-21 -21q-5 5 -11.5 8.5t-17.5 3.5v-360q14 14 33.5 23t39.5 9q26 0 48.5 -16.5t22.5 -45.5v-127
q2 -2 3 -2q5 0 10 10.5t6 15.5h29zM67 540q-11 -11 -11 -28v-483h11v511zM210 163q0 14 -12 24q2 -4 2 -16v-29q0 -24 -0.5 -49t-0.5 -33q0 -15 11 -23v126z" />
    <glyph glyph-name="i" unicode="i" horiz-adv-x="182" 
d="M116 348q0 -18 -13 -31t-31 -13t-31.5 12.5t-13.5 31.5t13 32t32 13t31.5 -13.5t12.5 -31.5zM155 60q0 -24 -17.5 -41.5t-41.5 -17.5q-25 0 -41.5 17.5t-16.5 41.5v159h68v-180q0 -5 4 -5q7 0 11.5 10.5t4.5 15.5h29zM88 348q0 6 -5 11t-11 5q-16 0 -16 -16q0 -7 5 -11
t11 -4t11 4.5t5 10.5zM77 190h-11v-130q0 -14 11 -23v153z" />
    <glyph glyph-name="j" unicode="j" horiz-adv-x="132" 
d="M105 348q0 -19 -13.5 -31.5t-31.5 -12.5t-31 13t-13 31t12.5 31.5t31.5 13.5t32 -13t13 -32zM96 -154q0 -28 -21 -49t-49 -21q-15 0 -26.5 5t-22.5 15l21 21q12 -12 29 -12v420h69v-379zM76 348q0 16 -16 16q-7 0 -11 -5t-4 -11t4.5 -10.5t10.5 -4.5t11 4t5 11zM67 196
h-11v-378q11 11 11 28v350z" />
    <glyph glyph-name="k" unicode="k" horiz-adv-x="310" 
d="M283 60q0 -26 -17 -42.5t-43 -16.5q-35 0 -51 33q-13 26 -32 52t-45 40v-126h-68v512q0 29 20.5 49.5t49.5 20.5q28 0 48 -20l-20 -21q-5 5 -12 8.5t-18 3.5v-361q14 15 33 24t39 9q12 0 25 -3.5t23.5 -10t17.5 -17t7 -24.5q0 -12 -8 -22t-21 -10q-17 0 -30.5 14.5
t-13.5 31.5v8q0 3 -2 4q-19 0 -34 -11.5t-25 -26.5q38 -5 69.5 -27t47.5 -57q5 -9 6.5 -18t4.5 -18q2 -4 6 -4q6 0 10 10.5t4 15.5h29zM198 188q-2 0 -2 -3q0 -4 4 -11t9 -7q2 0 2 3q0 4 -4 11t-9 7zM67 540q-11 -11 -11 -28v-483h11v511zM205 36q-8 45 -45 71
q23 -27 38 -61q2 -3 3 -5.5t4 -4.5z" />
    <glyph glyph-name="l" unicode="l" horiz-adv-x="173" 
d="M125 541q-5 5 -11.5 8.5t-17.5 3.5v-514q0 -5 4 -5q7 0 11.5 10.5t4.5 15.5h29q0 -24 -17.5 -41.5t-41.5 -17.5t-41.5 17.5t-17.5 41.5v452q0 29 20.5 49.5t49.5 20.5t49 -20zM67 540q-11 -11 -11 -28v-452q0 -15 11 -23v503z" />
    <glyph glyph-name="m" unicode="m" horiz-adv-x="465" 
d="M438 59q0 -24 -17.5 -41.5t-41.5 -17.5t-41.5 17.5t-17.5 41.5v119q0 7 -5.5 11t-11.5 4q-11 0 -18.5 -5t-15.5 -13q2 -8 2 -12v-163h-70v178q0 14 -10 14q-6 0 -14 -5.5t-15.5 -13t-12.5 -15t-5 -12.5v-146h-68v187q0 5 -6 5t-10.5 -10.5t-4.5 -15.5h-28q0 25 17 42
t43 17q17 0 30 -9t21 -24q13 14 31.5 23.5t38.5 9.5q29 0 49 -23q13 11 29 17t33 6q26 0 48 -16.5t22 -45.5v-125q0 -5 4 -5q7 0 11.5 10.5t4.5 15.5h29zM360 163q0 14 -12 24q2 -4 2 -16v-29q0 -25 -0.5 -50t-0.5 -33q0 -15 11 -23v127zM242 163q0 16 -13 26q1 -4 1 -11
v-148h12v133zM115 166q0 15 -11 23v-160h11v137z" />
    <glyph glyph-name="n" unicode="n" horiz-adv-x="363" 
d="M336 60q0 -24 -17.5 -41.5t-41.5 -17.5t-41.5 17.5t-17.5 41.5v118q0 7 -5.5 11t-11.5 4q-7 0 -16.5 -5.5t-18.5 -13.5t-15 -17.5t-6 -16.5v-140l-69 1v186q0 5 -5 5q-6 0 -10.5 -10.5t-4.5 -15.5h-29q0 26 17.5 42.5t43.5 16.5q17 0 31 -9.5t21 -26.5q14 16 34.5 26
t42.5 10q26 0 48.5 -16.5t22.5 -45.5v-126q0 -3 4 -3q7 0 11 10.5t4 15.5h29zM258 163q0 14 -12 24q2 -5 2 -16.5v-27.5q0 -23 -0.5 -47.5t-0.5 -35.5q0 -15 11 -23v126zM116 157q0 9 -1.5 17.5t-9.5 14.5v-160h11v128z" />
    <glyph glyph-name="o" unicode="o" 
d="M227 113q0 -21 -7 -41.5t-20.5 -36t-32 -25.5t-40.5 -10q-23 0 -41 10t-31.5 25.5t-20.5 36t-7 41.5t7 41t20.5 36t31.5 25.5t41 9.5q22 0 40.5 -9.5t32 -25.5t20.5 -36t7 -41zM149 37q24 0 35.5 22.5t11.5 50.5q0 15 -3 29t-9.5 25t-16 18t-21.5 7q-20 0 -30 -23
t-10 -52t10.5 -53t32.5 -24zM95 39q-19 31 -19 71q0 41 19 77q-20 -11 -29.5 -31.5t-9.5 -42.5t9.5 -42.5t29.5 -31.5z" />
    <glyph glyph-name="p" unicode="p" horiz-adv-x="268" 
d="M142 1q-26 0 -46 13v-238h-69v493h69v-57q23 13 46 13q22 0 40.5 -9.5t31.5 -25.5t20 -36.5t7 -41.5t-7 -41t-20 -35.5t-31.5 -25t-40.5 -9.5zM179 42q17 12 25.5 31.5t8.5 39.5t-8.5 39.5t-25.5 31.5q17 -32 17 -71q0 -37 -17 -71zM125 33q20 0 30.5 24.5t10.5 54.5
t-10.5 55.5t-30.5 25.5q-8 0 -16 -6.5t-13 -11.5v-125q6 -6 13.5 -11.5t15.5 -5.5zM67 240h-11v-435h11v435z" />
    <glyph glyph-name="q" unicode="q" horiz-adv-x="266" 
d="M295 -204q-20 -20 -48 -20q-30 0 -50.5 20.5t-20.5 49.5v170q-24 -16 -50 -16q-23 0 -41 10t-31 25.5t-20 36t-7 41.5t7 41t20 36t31 25.5t41 9.5q26 0 50 -16v16h70v-420q7 0 15 3.5t13 8.5zM176 171q-6 8 -14.5 14.5t-18.5 6.5q-21 0 -31.5 -24t-10.5 -53
q0 -30 11 -55.5t31 -25.5q10 0 18.5 6.5t14.5 13.5v117zM216 196h-11v-350q0 -17 11 -28v378zM89 42q-9 15 -13 33t-4 37t4 37t13 35q-17 -12 -25.5 -31.5t-8.5 -39.5t8.5 -39.5t25.5 -31.5z" />
    <glyph glyph-name="r" unicode="r" horiz-adv-x="271" 
d="M214 138q-17 0 -30 15t-13 32q0 3 0.5 5.5t1.5 5.5h-7q-7 0 -13.5 -2.5t-12.5 -5.5q4 -9 4 -22v-166h-68v187q0 5 -5 5q-6 0 -10.5 -10.5t-4.5 -15.5h-29q0 25 17 42t42 17q21 0 37 -14q22 14 48 14q12 0 25 -3.5t23.5 -10t17.5 -17t7 -24.5q0 -13 -8 -22.5t-22 -9.5z
M116 166q0 15 -11 23v-160h11v137z" />
    <glyph glyph-name="s" unicode="s" horiz-adv-x="229" 
d="M202 63q0 -15 -8 -26.5t-20.5 -19.5t-28 -12t-30.5 -4q-14 0 -29 4t-28.5 11.5t-22 19t-8.5 27.5q0 15 8.5 24t23.5 9q18 0 31 -16t13 -33q0 -9 -4 -16q5 -1 8.5 -1.5t8.5 -0.5q7 0 18 3t11 13q0 4 -7.5 11.5t-17.5 15.5t-19 15t-13 10q-8 6 -17.5 13t-18 15.5t-14 18.5
t-5.5 21q0 15 7.5 26t19 18.5t25.5 11.5t28 4q12 0 26 -2.5t26 -9t19.5 -17t7.5 -25.5q0 -12 -7 -22.5t-21 -10.5q-18 0 -31 14.5t-13 31.5q0 5 2 11q-2 0 -4 0.5t-4 0.5q-7 0 -16.5 -2.5t-9.5 -11.5q0 -8 18 -20.5t39 -28t39 -33.5t18 -37zM172 57q1 2 1 5q0 13 -17.5 28
t-38 30t-38 28.5t-17.5 22.5q0 -12 15.5 -26t35 -29t37 -30t22.5 -29z" />
    <glyph glyph-name="t" unicode="t" horiz-adv-x="200" 
d="M173 60q0 -24 -17.5 -41.5t-41.5 -17.5t-41.5 17.5t-17.5 41.5v136h-28v29h28v168h69v-168h46v-29h-46v-157q0 -5 5 -5q7 2 11 11t4 15h29zM95 364h-11v-304q0 -15 11 -23v327z" />
    <glyph glyph-name="u" unicode="u" horiz-adv-x="311" 
d="M284 59q0 -25 -17.5 -42t-42.5 -17q-17 0 -30 9t-21 24q-15 -14 -35 -23.5t-41 -9.5q-26 0 -48 17t-22 45v163h70v-178q0 -7 5 -10.5t12 -3.5q14 0 30 13.5t22 25.5v153h70v-193q19 5 19 27h29zM206 196h-11v-137q0 -7 3 -12.5t8 -10.5v160zM69 38q-1 3 -1 9v149h-13
v-134q0 -14 14 -24z" />
    <glyph glyph-name="v" unicode="v" horiz-adv-x="244" 
d="M217 111q0 -22 -6.5 -42t-19.5 -35t-31 -24t-42 -9q-42 0 -66.5 19t-24.5 64v141h69v-172q0 -23 24 -23q35 0 51.5 24.5t16.5 56.5q0 25 -7 46q-6 -5 -17 -5q-18 0 -30.5 14.5t-12.5 31.5q0 13 8.5 22.5t21.5 9.5q17 0 29.5 -13.5t20.5 -32.5t12 -39.5t4 -33.5zM68 44
q-2 3 -2 17.5v34.5v30.5t0.5 29.5t0.5 24.5v15.5h-12v-112q0 -11 2.5 -21.5t10.5 -18.5z" />
    <glyph glyph-name="w" unicode="w" horiz-adv-x="386" 
d="M359 111q0 -49 -26.5 -80t-77.5 -31q-23 0 -44.5 9t-32.5 30q-15 -17 -36.5 -28t-44.5 -11q-26 0 -48 16.5t-22 45.5v163h69v-178q0 -7 5.5 -10.5t12.5 -3.5q16 0 30 11.5t24 27.5v153h70v-172q0 -14 7.5 -18.5t19.5 -4.5q35 0 50 24.5t15 55.5q0 26 -7 47q-8 -6 -17 -6
q-17 0 -29.5 15t-12.5 31q0 13 7 23t21 10q18 0 30.5 -13.5t20.5 -32t12 -39t4 -34.5zM210 196h-13v-112q0 -11 2.5 -21.5t10.5 -18.5v152zM68 38q0 39 -0.5 78.5t-0.5 79.5h-12v-134q0 -8 4 -13.5t9 -10.5z" />
    <glyph glyph-name="x" unicode="x" horiz-adv-x="304" 
d="M277 59q0 -24 -17.5 -41.5t-41.5 -17.5q-21 0 -34 11t-23 28q-12 -17 -32 -27.5t-40 -10.5q-17 0 -34 10t-17 30q0 14 9 22t23 8q15 0 29.5 -9t17.5 -25q18 11 26 28l-81 119q-2 -4 -4 -8.5t-2 -9.5h-29q0 25 17.5 41.5t41.5 16.5q22 0 34.5 -10.5t23.5 -27.5
q12 17 32 28t41 11q17 0 34 -11t17 -30q0 -14 -9 -21.5t-23 -7.5q-17 0 -30 8.5t-18 24.5q-19 -10 -26 -28l80 -119q6 7 6 18h29zM111 184q-4 5 -10 8t-12 4l104 -154q8 -11 22 -13z" />
    <glyph glyph-name="y" unicode="y" horiz-adv-x="258" 
d="M231 -154q0 -29 -20.5 -49.5t-49.5 -20.5t-49 20l21 21q5 -5 11.5 -8.5t17.5 -3.5v219q-14 -11 -30.5 -17.5t-34.5 -6.5q-26 0 -48 17t-22 45v163h70v-178q0 -7 5.5 -10.5t12.5 -3.5q12 0 26 11t21 21v160h69v-379zM202 196h-11v-378q11 11 11 28v350zM69 38q-1 3 -1 9
v149h-12v-134q0 -14 13 -24z" />
    <glyph glyph-name="z" unicode="z" horiz-adv-x="252" 
d="M225 62q0 -3 -2 -9q-5 -23 -19 -37.5t-39 -14.5q-23 0 -43.5 10.5t-43.5 10.5q-9 0 -14 -4.5t-11 -11.5l-22 18q24 31 48.5 60.5t49.5 59.5q-5 3 -12.5 8l-15 10t-14.5 8.5t-12 3.5q-8 0 -13 -5t-7 -12l-28 7q5 23 17 41.5t40 18.5q22 0 42.5 -10t41.5 -10q8 0 13 5
t10 11l22 -19l-95 -115q6 -3 13.5 -8.5t16 -11t16.5 -9.5t14 -4q16 0 19 17zM155 176q-14 2 -26 7t-25 9q11 -6 21 -13.5t22 -12.5zM155 31q-14 7 -27 17t-28 16l-11 -14q17 -2 33 -8.5t33 -10.5z" />
    <glyph glyph-name="braceleft" unicode="{" horiz-adv-x="205" 
d="M178 -254q-11 -10 -22.5 -15t-26.5 -5q-28 0 -49 21t-21 49v379l-32 20l32 16v379q0 28 21 49t49 21q15 0 26.5 -5t22.5 -15l-21 -21q-12 12 -29 12v-410l-37 -26l38 -30v-410q16 0 28 12zM99 618q-11 -11 -11 -28v-360l11 10v378zM99 146l-11 10v-360q0 -17 11 -28v378z
" />
    <glyph glyph-name="bar" unicode="|" horiz-adv-x="109" 
d="M27 -300v996h55v-996h-55z" />
    <glyph glyph-name="braceright" unicode="}" horiz-adv-x="205" 
d="M48 -233q12 -12 29 -12v410l37 30l-37 26v410q-17 0 -29 -12l-21 21q11 10 22.5 15t26.5 5q28 0 49 -21t21 -49v-379l32 -16l-32 -20v-379q0 -28 -21 -49t-49 -21q-15 0 -26.5 5t-22.5 15zM106 240l11 -10v360q0 17 -11 28v-378zM106 -232q11 11 11 28v360l-11 -10v-378z
" />
    <glyph glyph-name="asciitilde" unicode="~" horiz-adv-x="385" 
d="M358 407q-2 -22 -6 -44t-14.5 -40t-27.5 -29t-44 -11q-30 0 -49 14.5t-34 32.5t-29 32.5t-32 14.5q-17 0 -27 -7.5t-15.5 -19t-7 -25t-2.5 -26.5h-43q0 21 4.5 42.5t15 38.5t28.5 27.5t44 10.5q31 0 50 -14.5t34 -32.5t28.5 -32.5t32.5 -14.5q17 0 27 8.5t15 21t6.5 27
t1.5 26.5h44v0z" />
    <glyph glyph-name="quotesinglbase" unicode="&#x201a;" horiz-adv-x="143" 
d="M27 -49l32 47q-14 3 -22.5 16t-8.5 27q0 18 13 31t31 13t31 -13t13 -31q0 -15 -9 -27l-57 -80zM88 40q0 7 -5 11.5t-11 4.5q-7 0 -11.5 -4.5t-4.5 -10.5q0 -16 16 -16q6 0 11 4.5t5 10.5z" />
    <glyph glyph-name="quotedblbase" unicode="&#x201e;" horiz-adv-x="241" 
d="M27 -49l32 47q-14 3 -22.5 16t-8.5 27q0 18 13 31t31 13t31 -13t13 -31q0 -15 -9 -27l-57 -80zM88 40q0 7 -5 11.5t-11 4.5q-7 0 -11.5 -4.5t-4.5 -10.5q0 -16 16 -16q6 0 11 4.5t5 10.5zM125 -49l32 47q-14 3 -22.5 16t-8.5 27q0 18 13 31t31 13t31 -13t13 -31
q0 -15 -9 -27l-57 -80zM186 40q0 7 -5 11.5t-11 4.5q-7 0 -11.5 -4.5t-4.5 -10.5q0 -16 16 -16q6 0 11 4.5t5 10.5z" />
    <glyph glyph-name="dagger" unicode="&#x2020;" horiz-adv-x="309" 
d="M225 336l-44 41v-495l-25 -39l-28 40v495l-42 -42l-59 55l58 57l43 -46v175l28 30l25 -30v-175l44 46l57 -56z" />
    <glyph glyph-name="daggerdbl" unicode="&#x2021;" horiz-adv-x="313" 
d="M229 45l-48 45v-208l-25 -39l-28 40v200l-37 -39l-60 58l58 55l39 -40v262l-42 -44l-59 57l57 57l43 -46v174l28 30l25 -30v-171l45 43l56 -56l-55 -58l-46 43v-268l47 47l59 -55z" />
    <glyph glyph-name="circumflex" unicode="&#x2c6;" horiz-adv-x="239" 
d="M27 240l93 80l92 -80h-43l-49 42l-49 -42h-44z" />
    <glyph glyph-name="perthousand" unicode="&#x2030;" horiz-adv-x="890" 
d="M733 -4q-32 0 -56 15t-40.5 39t-25 53t-8.5 57t8.5 57t25.5 53t41 39.5t56 15.5q31 0 55 -15.5t40.5 -39.5t25 -53.5t8.5 -56.5q0 -28 -8.5 -57t-25 -53t-41 -39t-55.5 -15zM463 -4q-32 0 -56 15t-40.5 39t-25 53t-8.5 57t8.5 57t25.5 53t41 39.5t56 15.5q31 0 55 -15.5
t40.5 -39.5t25 -53.5t8.5 -56.5q0 -28 -8.5 -57t-25 -53t-41 -39t-55.5 -15zM512 581q-81 -146 -160.5 -290.5t-160.5 -290.5h-82q81 146 159 290.5t159 290.5h85zM157 257q-32 0 -56 15t-40.5 39t-25 53t-8.5 57t8.5 57t25 53t40.5 39.5t56 15.5q31 0 55.5 -15.5t41 -39.5
t25 -53.5t8.5 -56.5q0 -28 -8.5 -57t-25 -53t-41 -39t-55.5 -15zM840 160q0 32 -8 56.5t-20.5 41t-29 25t-32.5 8.5q-31 0 -56 -32t-25 -99t25 -98.5t57 -31.5q16 0 32 8.5t29 25t20.5 40.5t7.5 56zM666 52q-12 25 -17 52.5t-5 55.5t5 55.5t17 53.5q-20 -22 -29.5 -50.5
t-9.5 -58.5q0 -29 9.5 -57.5t29.5 -50.5zM570 160q0 32 -8 56.5t-20.5 41t-29 25t-32.5 8.5q-31 0 -56 -32t-25 -99t25 -98.5t57 -31.5q16 0 32 8.5t29 25t20.5 40.5t7.5 56zM445 553l-290 -524h18l292 524h-20zM263 421q0 32 -8 56.5t-20.5 41t-29 25t-32.5 8.5
q-31 0 -56 -32t-25 -99t25 -98.5t57 -31.5q16 0 32 8.5t29 25t20.5 40.5t7.5 56zM396 52q-12 25 -17 52.5t-5 55.5t5 55.5t17 53.5q-20 -22 -29.5 -50.5t-9.5 -58.5q0 -29 9.5 -57.5t29.5 -50.5zM90 313q-12 25 -17 52.5t-5 55.5t5 56t17 54q-20 -23 -30 -51.5t-10 -57.5
t10 -58t30 -51z" />
    <glyph glyph-name="guilsinglleft" unicode="&#x2039;" horiz-adv-x="175" 
d="M27 258l121 122v-116l-5 -6l5 -5v-116zM120 241l-18 17l18 18v34l-52 -52l52 -52v35z" />
    <glyph glyph-name="OE" unicode="&#x152;" horiz-adv-x="797" 
d="M770 135q-8 -32 -26 -57.5t-42.5 -42.5t-55 -26t-62.5 -9q-35 0 -69.5 11.5t-62.5 34.5q-34 -26 -73 -39.5t-81 -13.5q-60 0 -110 25.5t-85.5 67.5t-55.5 95.5t-20 110.5t20 111t55.5 95.5t85.5 67t110 25.5q45 0 86 -15t75 -44q23 24 55.5 37t65.5 13q25 0 48.5 -9
t41.5 -25t29 -36.5t11 -42.5q0 -13 -7 -22t-21 -9q-20 0 -33 16.5t-13 35.5q0 12 7 20t20 9q-14 18 -36 26t-45 8q-21 0 -36.5 -8t-26.5 -21.5t-16.5 -31.5t-5.5 -37q0 -22 7.5 -42.5t22.5 -36.5q13 -14 33 -23t39 -9h68v-29h-39q-36 0 -65 -7.5t-55 -34.5q-21 -21 -31 -50
t-10 -59q0 -26 7.5 -50.5t22.5 -43.5t37 -30t51 -11q56 0 99.5 28.5t57.5 84.5zM491 375q-11 17 -16.5 36.5t-5.5 39.5q0 19 5 41l-9 -1q-11 -20 -11 -42t10 -41t27 -33zM478 283q-27 -20 -43 -49t-16 -63q0 -52 38 -90q-19 41 -19 85q0 32 10 62t30 55zM508 331
q-35 16 -59 46.5t-24 70.5q0 22 7 40q-24 32 -58.5 53.5t-75.5 21.5q-43 0 -77.5 -22.5t-58.5 -55.5q-30 -42 -44.5 -92t-14.5 -101q0 -42 12 -89t36 -87.5t60.5 -67t85.5 -26.5q36 0 67.5 16.5t54.5 42.5q-29 40 -29 89q0 56 33.5 99t84.5 62zM124 104q-26 42 -38 90.5
t-12 97.5t12 97.5t38 90.5q-34 -38 -51 -87.5t-17 -100.5t17 -100t51 -88z" />
    <glyph glyph-name="quoteleft" unicode="&#x2018;" horiz-adv-x="143" 
d="M116 574l-32 -47q14 -3 22.5 -16t8.5 -27q0 -18 -13 -31t-31 -13t-31 13t-13 31q0 15 9 27l57 80zM55 485q0 -7 5 -11.5t11 -4.5q7 0 11.5 4.5t4.5 10.5q0 16 -16 16q-6 0 -11 -4.5t-5 -10.5z" />
    <glyph glyph-name="quoteright" unicode="&#x2019;" horiz-adv-x="143" 
d="M27 457l32 47q-14 3 -22.5 16t-8.5 27q0 18 13 31t31 13t31 -13t13 -31q0 -15 -9 -27l-57 -80zM88 546q0 7 -5 11.5t-11 4.5q-7 0 -11.5 -4.5t-4.5 -10.5q0 -16 16 -16q6 0 11 4.5t5 10.5z" />
    <glyph glyph-name="quotedblleft" unicode="&#x201c;" horiz-adv-x="242" 
d="M215 574l-32 -47q14 -3 22.5 -16t8.5 -27q0 -18 -13 -31t-31 -13t-31 13t-13 31q0 15 9 27l57 80zM154 485q0 -7 5 -11.5t11 -4.5q7 0 11.5 4.5t4.5 10.5q0 16 -16 16q-6 0 -11 -4.5t-5 -10.5zM116 574l-32 -47q14 -3 22.5 -16t8.5 -27q0 -18 -13 -31t-31 -13t-31 13
t-13 31q0 15 9 27l57 80zM55 485q0 -7 5 -11.5t11 -4.5q7 0 11.5 4.5t4.5 10.5q0 16 -16 16q-6 0 -11 -4.5t-5 -10.5z" />
    <glyph glyph-name="quotedblright" unicode="&#x201d;" horiz-adv-x="242" 
d="M27 457l32 47q-14 3 -22.5 16t-8.5 27q0 18 13 31t31 13t31 -13t13 -31q0 -15 -9 -27l-57 -80zM88 546q0 7 -5 11.5t-11 4.5q-7 0 -11.5 -4.5t-4.5 -10.5q0 -16 16 -16q6 0 11 4.5t5 10.5zM126 457l32 47q-14 3 -22.5 16t-8.5 27q0 18 13 31t31 13t31 -13t13 -31
q0 -15 -9 -27l-57 -80zM187 546q0 7 -5 11.5t-11 4.5q-7 0 -11.5 -4.5t-4.5 -10.5q0 -16 16 -16q6 0 11 4.5t5 10.5z" />
    <glyph glyph-name="bullet" unicode="&#x2022;" horiz-adv-x="238" 
d="M211 304q0 -19 -7 -35.5t-19.5 -29t-29.5 -19.5t-36 -7t-36 7t-29.5 19.5t-19.5 29t-7 35.5t7 36t19.5 29.5t29.5 19.5t36 7t36 -7t29.5 -19.5t19.5 -29.5t7 -36z" />
    <glyph glyph-name="endash" unicode="&#x2013;" horiz-adv-x="350" 
d="M27 207v86h296v-86h-296zM294 264h-238v-28h238v28z" />
    <glyph glyph-name="emdash" unicode="&#x2014;" horiz-adv-x="540" 
d="M27 207v86h486v-86h-486zM484 264h-428v-28h428v28z" />
    <glyph glyph-name="tilde" unicode="&#x2dc;" horiz-adv-x="253" 
d="M226 281q-7 -18 -17 -31t-32 -13q-14 0 -28 5.5t-26.5 12t-24.5 12t-22 5.5q-11 0 -15 -8t-7 -17l-27 11q7 17 17.5 30t31.5 13q14 0 27 -5.5t25.5 -12t24 -12t22.5 -5.5q12 0 16 8t8 17l27 -10v0z" />
    <glyph glyph-name="trademark" unicode="&#x2122;" horiz-adv-x="304" 
d="M253 420v137l-39 -81h-15l-39 81v-137h-24v163h37l34 -66l34 66h36v-163h-24zM89 559v-139h-23v139h-39v24h99v-24h-37z" />
    <glyph glyph-name="guilsinglright" unicode="&#x203a;" horiz-adv-x="175" 
d="M27 137v116l5 5l-5 6v116l121 -122zM55 310v-34l18 -18l-18 -17v-35l52 52z" />
    <glyph glyph-name="oe" unicode="&#x153;" horiz-adv-x="380" 
d="M353 45q-17 -21 -41.5 -33t-51.5 -12q-40 0 -71 25q-27 -25 -62 -25q-23 0 -41 10t-31.5 25.5t-20.5 36t-7 41.5t7 41t20.5 36t31.5 25.5t41 9.5q17 0 33.5 -7t29.5 -18q31 25 72 25q29 0 52.5 -14t23.5 -47q0 -21 -11 -35t-27 -24t-34.5 -17t-34.5 -12q3 -14 14 -30
t28 -16t32 10t26 23zM309 165q0 16 -10.5 23t-24.5 7q-12 0 -21 -9.5t-15 -23t-9 -29.5t-3 -28q10 3 24.5 7.5t27.5 11.5t22 17t9 24zM214 39q-11 16 -14.5 34.5t-3.5 36.5q0 20 4 40t14 37q-20 -12 -29.5 -32t-9.5 -42q0 -23 9.5 -43t29.5 -31zM169 180q-11 9 -22 9
q-13 0 -21 -8.5t-12.5 -20.5t-6 -25t-1.5 -22q0 -11 1.5 -24t6 -24.5t13 -19.5t22.5 -8q11 0 19 8q-24 30 -24 66q0 19 7 36.5t18 32.5zM95 39q-11 16 -14.5 34.5t-3.5 36.5q0 20 4 40t14 37q-20 -11 -29.5 -31.5t-9.5 -42.5t9.5 -42.5t29.5 -31.5z" />
    <glyph glyph-name="nonbreakingspace" unicode="&#xa0;" horiz-adv-x="200" 
 />
    <glyph glyph-name="exclamdown" unicode="&#xa1;" horiz-adv-x="173" 
d="M146 306q0 -19 -13 -32t-32 -13t-31.5 13.5t-12.5 31.5t13 31t31 13t31.5 -12.5t13.5 -31.5zM146 -169q0 -29 -20 -49.5t-49 -20.5q-14 0 -27 5t-23 15l21 21q5 -5 11.5 -8.5t17.5 -3.5v412q0 5 -4 5q-3 0 -5 -2.5t-4 -4.5l-14 27q16 13 37 13q24 0 41.5 -16.5
t17.5 -41.5v-351zM117 306q0 7 -5 11t-11 4t-10.5 -4.5t-4.5 -10.5t4 -11t11 -5q16 0 16 16zM117 182q0 14 -11 23v-402q11 11 11 28v351z" />
    <glyph glyph-name="cent" unicode="&#xa2;" horiz-adv-x="253" 
d="M226 240q-15 -23 -33.5 -34t-46.5 -12v-102h-28v105q-39 8 -65 39t-26 71q0 41 26.5 70.5t64.5 38.5v111h28v-108q11 -1 24.5 -3.5t25.5 -8.5t20.5 -15t8.5 -24q0 -14 -9 -23t-23 -9q-17 0 -32 14t-15 31q0 5 1 7q-11 -3 -18.5 -12.5t-12 -21.5t-6 -24.5t-1.5 -22.5
q0 -32 14 -57t35 -25q22 0 45 31zM98 232q-10 16 -14 35t-4 37q0 20 4 40t14 37q-20 -12 -29 -32t-9 -42q0 -23 9 -43t29 -32z" />
    <glyph glyph-name="sterling" unicode="&#xa3;" horiz-adv-x="462" 
d="M435 128q-6 -23 -9 -47t-11.5 -43.5t-26 -32t-53.5 -12.5q-16 0 -34.5 5.5t-38 14t-37.5 17.5t-33 16q-16 -27 -42 -42.5t-58 -15.5q-25 0 -45 17.5t-20 43.5q0 27 21 42.5t47 15.5q13 0 24.5 -2.5t24.5 -6.5q1 11 1.5 22.5t0.5 22.5q0 28 -1 55.5t-1 55.5h-63v29h62
q-1 8 -1 15.5v15.5q0 32 4 71t17 72.5t38.5 56.5t69.5 23q21 0 39.5 -7.5t33 -20.5t22.5 -31.5t8 -39.5q0 -13 -5 -30l-28 8q2 5 3 11t1 11q0 11 -4 22.5t-11.5 21.5t-17.5 16t-22 6q-23 0 -36.5 -13.5t-21 -34t-10 -44t-2.5 -43.5v-86h96v-29h-95v-75q0 -25 -2 -51t-10 -49
q10 -4 26.5 -9.5t33.5 -11t33 -9.5t26 -4q12 0 24 3.5t22.5 13.5t19.5 27.5t15 44.5zM209 479q-8 -12 -14.5 -27.5t-10.5 -32.5t-6 -34t-2 -31v-207q0 -29 -3 -57l9 -2q5 18 6.5 39.5t1.5 50.5v164q0 32 3 69.5t16 67.5zM140 69q-12 3 -22.5 6.5t-22.5 3.5q-14 0 -26.5 -7.5
t-12.5 -23.5q0 -14 11.5 -23t24.5 -9q23 0 33 16.5t15 36.5z" />
    <glyph glyph-name="currency" unicode="&#xa4;" horiz-adv-x="515" 
d="M476 404q-31 29 -71 45t-82 16q-37 0 -66.5 -15.5t-52 -40.5t-36.5 -57.5t-19 -65.5h277l-12 -29h-267q-1 -3 -1 -10t1 -10h259l-13 -29h-244q5 -33 19 -65.5t36.5 -57.5t52 -40.5t66.5 -15.5q66 0 121 35l15 -24q-62 -40 -136 -40q-46 0 -87 15.5t-74 43t-55.5 66
t-29.5 83.5h-50l12 29h35v20h-45l12 29h36q7 45 29.5 83t55.5 66t74.5 43.5t86.5 15.5q46 0 88.5 -16t76.5 -46zM153 109q-18 32 -26.5 67t-8.5 71t8.5 71t26.5 67q-24 -29 -37 -64.5t-13 -73.5t13 -73.5t37 -64.5z" />
    <glyph glyph-name="yen" unicode="&#xa5;" horiz-adv-x="544" 
d="M457 498l-136 -210h93v-29h-103v-20h103v-29h-103v-181h69v-29h-216v29h73v181h-96v29h96v9l-6 11h-90v29h74l-117 210h-71v29h215v-29h-59l110 -200l130 200h-58v29h152v-29h-60zM282 259l-132 239h-20l135 -243v-226h17v230z" />
    <glyph glyph-name="brokenbar" unicode="&#xa6;" horiz-adv-x="101" 
d="M27 360v440h47v-440h-47zM27 -200v490h47v-490h-47z" />
    <glyph glyph-name="section" unicode="&#xa7;" horiz-adv-x="1121" 
d="M1094 575v-250h-74v176h-42v74h116zM845 266q-8 0 -8 -7q0 -8 8 -8h147v-35h-147q-8 0 -8 -8t8 -8h147v-35h-147q-17 0 -30 12.5t-13 30.5q0 14 9 25q-9 10 -9 26q0 17 13 29.5t30 12.5h147v-35h-147zM318 251v-35h-154v-51h-35v94q0 17 12.5 29.5t30.5 12.5h146v-35
h-146q-8 0 -8 -7v-8h154zM352 301h200v-47q0 -21 -14 -36.5t-35 -17.5l32 -35h-47l-33 35h-51v35h94q18 0 18 19v11h-129v-100h-35v136zM625 266q-8 0 -8 -7q0 -8 8 -8h147v-35h-147q-8 0 -8 -8t8 -8h147v-35h-147q-18 0 -31 12.5t-13 30.5q0 14 9 25q-9 10 -9 26
q0 17 13 29.5t31 12.5h147v-35h-147zM877 142v-36h-101v-65h44v-36h-78v101h-61v36h196zM1026 41q18 0 27 15h-151v17q0 29 19.5 49t48.5 20h124v-36h-124q-19 0 -28 -15h152v-18q0 -28 -19.5 -48t-48.5 -20h-124v36h124zM216 91v-35h-154v-51h-35v94q0 17 12 30t30 13h147
v-36h-147q-7 0 -7 -7v-8h154zM650 5h-52q-10 46 -49 75q-26 21 -56 24v-99h-35v136h19q26 0 49.5 -8.5t43.5 -23.5q28 -22 45 -53v86h35v-137zM426 141v-62q0 -31 -21.5 -52.5t-52.5 -21.5h-116v62q0 31 22 52.5t53 21.5h115zM311 105q-16 0 -27.5 -10.5t-11.5 -27.5v-26h80
q17 0 27.5 10.5t10.5 27.5v26h-79zM143 575v-250h-74v176h-42v74h116zM927 575v-116q0 -28 -10.5 -52.5t-28.5 -42.5t-42.5 -28.5t-52.5 -10.5h-207v116q0 28 10.5 52.5t28.5 42.5t42.5 28.5t52.5 10.5h207zM720 501q-26 0 -43.5 -17.5t-17.5 -42.5v-43h134q25 0 43 17.5
t18 43.5v42h-134zM535 575v-116q0 -28 -10.5 -52.5t-28.5 -42.5t-42.5 -28.5t-52.5 -10.5h-208v116q0 28 10.5 52.5t29 42.5t43 28.5t52.5 10.5h207zM328 501q-26 0 -43.5 -17.5t-17.5 -42.5v-43h134q25 0 42.5 17.5t17.5 43.5v42h-133z" />
    <glyph glyph-name="dieresis" unicode="&#xa8;" horiz-adv-x="183" 
d="M156 271q0 -11 -8 -18.5t-19 -7.5t-18.5 7.5t-7.5 18.5t7.5 18.5t18.5 7.5t19 -7.5t8 -18.5zM80 271q0 -11 -8 -18.5t-19 -7.5t-18.5 7.5t-7.5 18.5t7.5 18.5t18.5 7.5t19 -7.5t8 -18.5z" />
    <glyph glyph-name="copyright" unicode="&#xa9;" horiz-adv-x="601" 
d="M574 289q0 -56 -22 -105.5t-59 -86.5t-87 -58.5t-105 -21.5q-57 0 -106.5 21.5t-87 58t-59 86t-21.5 106.5q0 56 21.5 106t59 87t87 58.5t105.5 21.5t105.5 -22t87 -59t59.5 -87t22 -105zM541 289q0 49 -19 93t-52 77t-76.5 52.5t-92.5 19.5q-50 0 -94.5 -19t-77.5 -52
t-52 -77t-19 -94t19 -94t52 -77t77 -52t94 -19t94 19t76.5 52t51.5 77t19 94zM440 226q-19 -54 -57.5 -78.5t-81.5 -24.5q-38 0 -65.5 14t-46.5 36.5t-28 51.5t-9 59q0 31 9.5 60.5t28 52.5t46.5 37t65 14q39 0 75 -21.5t59 -69.5l-47 -13q-17 30 -41.5 44t-48.5 14
t-41.5 -10t-29 -26.5t-17.5 -37.5t-6 -43t6 -43t17.5 -37.5t29 -26.5t41.5 -10q29 0 55 18t40 55z" />
    <glyph glyph-name="ordfeminine" unicode="&#xaa;" horiz-adv-x="323" 
d="M296 370q0 -25 -17.5 -41.5t-41.5 -16.5q-30 0 -47 25q-27 -25 -63 -25q-23 0 -41 9.5t-31.5 25.5t-20.5 36t-7 41t7.5 41t20.5 36t31.5 25.5t40.5 9.5q29 0 52 -17v10h68v-179q0 -5 5 -5q7 0 11.5 10t4.5 15h28zM220 495h-11v-124q0 -15 11 -24v148zM179 480
q-9 13 -17 18t-16 5q-21 0 -32 -25.5t-11 -55.5q0 -29 10.5 -53t30.5 -24q17 0 35 22v113zM95 349q-11 14 -15 31.5t-4 36.5q0 21 5 42.5t14 38.5q-20 -12 -29.5 -32.5t-9.5 -42.5t9.5 -42.5t29.5 -31.5z" />
    <glyph glyph-name="guillemotleft" unicode="&#xab;" horiz-adv-x="305" 
d="M27 258l121 122v-116l-5 -6l5 -5v-116zM120 241l-18 17l18 18v34l-52 -52l52 -52v35zM157 258l121 122v-116l-5 -6l5 -5v-116zM250 241l-18 17l18 18v34l-52 -52l52 -52v35z" />
    <glyph glyph-name="logicalnot" unicode="&#xac;" horiz-adv-x="414" 
d="M343 250v58h-316v44h360v-102h-44z" />
    <glyph glyph-name="minus" unicode="&#x2212;" horiz-adv-x="388" 
d="M27 308v44h334v-44h-334z" />
    <glyph glyph-name="registered" unicode="&#xae;" horiz-adv-x="250" 
d="M223 479q0 -20 -8 -38t-21.5 -31.5t-31 -21t-37.5 -7.5q-41 0 -69.5 28.5t-28.5 69.5q0 20 8 37.5t21.5 31t31 21.5t37.5 8q19 0 37 -8t31.5 -21.5t21.5 -31.5t8 -37zM209 479q0 34 -25 59t-59 25q-35 0 -59.5 -24.5t-24.5 -59.5t24.5 -59t59.5 -24t59.5 24t24.5 59z
M152 427l-23 46h-21v-46h-20v109h38q14 0 29 -7.5t15 -24.5q0 -22 -21 -28l24 -49h-21zM149 504q0 9 -9 13.5t-17 4.5h-15v-35h21q8 0 14 4.5t6 12.5z" />
    <glyph glyph-name="macron" unicode="&#xaf;" horiz-adv-x="262" 
d="M27 242v25h208v-25h-208z" />
    <glyph glyph-name="degree" unicode="&#xb0;" horiz-adv-x="157" 
d="M130 520q0 -21 -15 -36t-36 -15t-36.5 14.5t-15.5 36.5t15.5 36.5t36.5 14.5t36 -15t15 -36zM97 520q0 8 -5.5 13t-13.5 5t-13 -5t-5 -13t5 -13.5t13 -5.5t13.5 5.5t5.5 13.5z" />
    <glyph glyph-name="plusminus" unicode="&#xb1;" horiz-adv-x="388" 
d="M216 308v-145h-45v145h-144v44h144v146h45v-146h145v-44h-145zM27 0v45h334v-45h-334z" />
    <glyph glyph-name="twosuperior" unicode="&#xb2;" horiz-adv-x="184" 
d="M157 533q0 -27 -14 -47l-57 -89h62v-16h-121q20 35 43 68t42 68q9 13 9 29q0 14 -8.5 25t-22.5 11q-21 0 -33 -19t-12 -37l-16 1q1 27 18.5 49.5t46.5 22.5t46 -19t17 -47zM141 533q0 13 -6 24q2 -8 2 -12q0 -20 -11 -36l-70 -112h11q16 25 31.5 49t30.5 49q5 8 8.5 17.5
t3.5 20.5z" />
    <glyph glyph-name="threesuperior" unicode="&#xb3;" horiz-adv-x="193" 
d="M166 454q0 -30 -23 -50.5t-52 -20.5q-20 0 -36.5 9t-27.5 25l14 9q6 -10 18 -18t23 -8q9 0 17 5.5t13.5 13.5t8.5 17.5t3 17.5q0 20 -13 37.5t-35 17.5h-18l58 75h-69v16h101l-57 -75q14 0 27.5 -5.5t24 -15t17 -22.5t6.5 -28zM125 409q11 8 18 19.5t7 25.5t-7 26t-18 20
q14 -20 14 -45q0 -26 -14 -46z" />
    <glyph glyph-name="acute" unicode="&#xb4;" horiz-adv-x="181" 
d="M43 235l-16 24l111 74l16 -24z" />
    <glyph glyph-name="paragraph" unicode="&#xb6;" horiz-adv-x="417" 
d="M364 507q-17 30 -44 50v-830h-30v848q-13 7 -30 10v-858h-30v504h-12q-40 0 -74.5 15.5t-60.5 42t-41 61.5t-15 75t15.5 76t41.5 62t61.5 41.5t75.5 15.5q53 0 98 -26t71 -72z" />
    <glyph glyph-name="periodcentered" unicode="&#xb7;" horiz-adv-x="138" 
d="M111 336q0 -17 -12.5 -29.5t-29.5 -12.5t-29.5 12.5t-12.5 29.5t12.5 29.5t29.5 12.5t29.5 -12.5t12.5 -29.5z" />
    <glyph glyph-name="cedilla" unicode="&#xb8;" horiz-adv-x="213" 
d="M186 -57q0 -17 -7 -31t-18.5 -24.5t-26.5 -16t-31 -5.5q-15 0 -28.5 5.5t-24 14.5t-17 22t-6.5 28q0 18 12 30t30 12q14 0 24.5 -9.5t10.5 -24.5q0 -14 -9.5 -24.5t-23.5 -10.5h-4q14 -14 36 -14q20 0 37 13t17 35q0 26 -21 43t-46 17v28q18 0 35.5 -6.5t31 -18t21.5 -28
t8 -35.5z" />
    <glyph glyph-name="onesuperior" unicode="&#xb9;" horiz-adv-x="172" 
d="M27 381v16h40v185h-27v16h68v-201h37v-16h-118zM92 582h-9v-185h9v185z" />
    <glyph glyph-name="ordmasculine" unicode="&#xba;" 
d="M227 423q0 -21 -7 -41t-20.5 -36t-32 -25.5t-40.5 -9.5q-23 0 -41 9.5t-31.5 25.5t-20.5 36t-7 41t7 41.5t20.5 36t31.5 25.5t41 10q22 0 40.5 -10t32 -25.5t20.5 -36t7 -41.5zM198 421q0 35 -16.5 56t-34.5 21q-16 0 -28.5 -18t-12.5 -57q0 -38 13 -56t30 -18
q18 0 33.5 18.5t15.5 53.5zM95 349q-10 16 -14 35t-4 38t4 39t14 37q-20 -11 -29.5 -31.5t-9.5 -42.5q0 -23 9.5 -43.5t29.5 -31.5z" />
    <glyph glyph-name="guillemotright" unicode="&#xbb;" horiz-adv-x="305" 
d="M157 137v116l5 5l-5 6v116l121 -122zM27 137v116l5 5l-5 6v116l121 -122zM185 310v-34l18 -18l-18 -17v-35l52 52zM55 310v-34l18 -18l-18 -17v-35l52 52z" />
    <glyph glyph-name="onequarter" unicode="&#xbc;" horiz-adv-x="379" 
d="M74 0h-28l278 581h28zM27 315v20h48v225h-32v20h82v-245h45v-20h-143zM105 560h-10v-225h10v225zM300 0v-84h-48v84h-137l93 219h54l-85 -200h75v159h48v-159h35v-19h-35zM282 159h-12v-140h12v140zM221 200l-77 -181h12l76 181h-11zM282 0h-12v-65h12v65z" />
    <glyph glyph-name="onehalf" unicode="&#xbd;" horiz-adv-x="391" 
d="M82 1h-28l278 581h28zM27 317v19h49v226h-32v19h81v-245h46v-19h-144zM106 562h-11v-226h11v226zM364 185q0 -32 -17 -57l-69 -108h75v-20h-146l103 166q11 17 11 35q0 16 -10.5 30t-27.5 14q-12 0 -22 -6.5t-17 -16.5t-11 -22t-4 -23h-20q0 16 6 32t16.5 28.5t24.5 20
t32 7.5q35 0 55.5 -23t20.5 -57zM345 185q0 15 -6 30q1 -5 1 -16q0 -24 -13 -43l-86 -136h14l76 118q14 22 14 47z" />
    <glyph glyph-name="threequarters" unicode="&#xbe;" horiz-adv-x="375" 
d="M70 0h-28l278 581h28zM195 403q0 -18 -7.5 -34t-20 -27.5t-29 -18t-34.5 -6.5q-23 0 -44 10.5t-33 30.5l16 10q8 -11 22 -21t28 -10q12 0 21 6.5t16 16.5t10.5 21.5t3.5 21.5q0 25 -16 46t-42 21h-22l70 92h-84v20h124l-70 -92q18 0 34.5 -6.5t29 -18t20 -27.5t7.5 -35z
M145 348q14 10 22.5 24.5t8.5 31.5t-8.5 31.5t-22.5 23.5q18 -24 18 -55t-18 -56zM299 0v-84h-49v84h-137l94 220h53l-84 -201h74v159h49v-159h34v-19h-34zM280 159h-11v-140h11v140zM219 200l-76 -181h11l77 181h-12zM280 0h-11v-65h11v65z" />
    <glyph glyph-name="questiondown" unicode="&#xbf;" horiz-adv-x="377" 
d="M252 316q0 -18 -12.5 -31.5t-31.5 -13.5t-32 13t-13 32t13.5 31.5t31.5 12.5t31 -13t13 -31zM350 -88q0 -32 -14 -58t-36.5 -44.5t-51.5 -28.5t-59 -10q-35 0 -64.5 14t-51 37.5t-34 54t-12.5 64.5q0 21 4.5 42.5t14 41t24 35.5t34.5 25q14 6 30.5 15t30.5 20t23.5 25.5
t9.5 32.5v53h29v-53q0 -39 -20 -69.5t-49 -53.5q-28 -22 -40.5 -50.5t-12.5 -63.5q0 -26 6.5 -54t23.5 -49q13 -16 33.5 -26.5t40.5 -10.5t39.5 8.5t35 23t25 33t11.5 38.5q-17 0 -32 14t-15 31q0 12 8.5 20.5t20.5 8.5q17 0 30.5 -13.5t15.5 -30.5q1 -5 1.5 -11t0.5 -11z
M223 316q0 6 -4.5 10.5t-10.5 4.5t-11 -4t-5 -11q0 -16 16 -16q7 0 11 5t4 11zM122 61q-35 -16 -50.5 -49t-15.5 -69q0 -32 12.5 -61t35.5 -50q-14 23 -21 50t-7 54q0 34 11 67t35 58z" />
    <glyph glyph-name="AE" unicode="&#xc6;" horiz-adv-x="923" 
d="M793 315h-38q-36 0 -65 -7.5t-55 -34.5q-21 -22 -31 -51t-10 -58q0 -26 7.5 -50.5t22.5 -43.5t36.5 -30t50.5 -11q56 0 99.5 28.5t57.5 84.5l28 -7q-8 -32 -25.5 -57.5t-42.5 -42.5t-55 -26t-62 -9q-36 0 -71 12t-62.5 34.5t-44.5 54t-17 70.5q0 43 21.5 79.5t56.5 59.5
h-190q-20 -55 -38.5 -110.5t-44.5 -108.5q-21 -43 -60 -69t-88 -26q-28 0 -54 10.5t-46.5 28.5t-33 42.5t-12.5 53.5q0 20 7.5 40t20.5 36t31.5 26t39.5 10q13 0 27.5 -6t26.5 -16t19.5 -24t7.5 -29q0 -14 -9.5 -21t-21.5 -7q-21 0 -33 15t-12 35q0 13 9 22q-5 2 -15 2
q-15 0 -28 -8.5t-22 -21t-14 -28t-5 -28.5q0 -23 11 -42.5t28 -33t39 -21t43 -7.5q18 0 36 6.5t33.5 17t28 25t20.5 30.5q23 49 41 104t37.5 108t44 101.5t60 85.5t86 58.5t121.5 21.5q27 0 54 -7t48.5 -21t35.5 -35t14 -50q0 -13 -6.5 -21.5t-20.5 -8.5q-20 0 -34 15
t-14 35q0 12 7.5 20.5t19.5 9.5q-14 17 -35 25.5t-43 8.5q-42 0 -65.5 -28t-23.5 -68q0 -23 8.5 -43.5t23.5 -36t35 -24.5t43 -9h61v-29zM618 375q-23 35 -23 78q0 30 11 58q-12 -13 -19 -29t-7 -33q0 -22 10.5 -41t27.5 -33zM619 339q-29 17 -48.5 46t-19.5 64
q0 28 13 52.5t34 41.5q-38 -10 -66.5 -30.5t-50 -47.5t-37.5 -59.5t-29 -66.5h204zM604 283q-26 -20 -42.5 -49t-16.5 -62q0 -26 10.5 -50.5t29.5 -43.5q-20 42 -20 88q0 32 9.5 62t29.5 55z" />
    <glyph glyph-name="Eth" unicode="&#xd0;" horiz-adv-x="645" 
d="M618 293q0 -60 -22 -113.5t-61 -93.5t-92 -63t-114 -23h-216v29h73v126q-35 10 -64 30t-50 47.5t-33 61t-12 69.5q0 49 17.5 89t48.5 69t72 45t89 16q37 60 87 104l19 -21q-16 -14 -32 -39t-26 -44q62 0 119.5 -19.5t101 -56t69.5 -90.5t26 -123zM500 92q43 38 66.5 90
t23.5 109t-23.5 109t-66.5 90q35 -42 53 -93.5t18 -105.5t-18 -105.5t-53 -93.5zM542 291q0 49 -17 96.5t-48 84t-74.5 59t-95.5 22.5h-18q-20 -47 -24.5 -97t-4.5 -101v-83h61v-29h-61v-69q56 2 103 33l16 -23q-55 -37 -119 -39v-116h47q52 0 95.5 22.5t74.5 59t48 83.5
t17 97zM239 485q-25 -73 -25 -147v-66h17v75q0 35 1.5 69.5t6.5 68.5zM238 552q-39 -2 -72.5 -17t-58 -40t-38.5 -58.5t-14 -73.5q0 -30 10 -58t27 -51.5t41 -41t52 -27.5v58h-62v29h62q0 75 9 143.5t44 136.5zM231 243h-17v-214h17v214z" />
    <glyph glyph-name="multiply" unicode="&#xd7;" horiz-adv-x="331" 
d="M197 190l106 -109l-29 -30l-107 108l-110 -108l-29 30l107 108l-108 110l29 29l109 -106l110 106l29 -30z" />
    <glyph glyph-name="Oslash" unicode="&#xd8;" horiz-adv-x="596" 
d="M569 292q0 -57 -20 -110.5t-55.5 -95.5t-85.5 -67.5t-110 -25.5q-57 0 -105.5 23t-85.5 65l-38 -38l-21 20l41 40q-30 41 -46 89.5t-16 99.5q0 57 20 111t55.5 95.5t85.5 67t110 25.5q56 0 105 -22.5t86 -64.5l38 38l20 -21l-40 -40q30 -41 46 -89.5t16 -99.5zM484 458
q19 -38 28 -80t9 -84q0 -50 -12 -98.5t-38 -91.5q34 39 51.5 88t17.5 100q0 45 -13.5 88.5t-39.5 80.5zM448 463q-11 20 -27 38.5t-35.5 32t-42 21.5t-45.5 8q-43 0 -77.5 -22.5t-58.5 -55.5q-30 -42 -44.5 -92.5t-14.5 -101.5q0 -76 30 -143zM147 121q12 -20 27 -37.5
t33.5 -31.5t41 -22t49.5 -8q49 0 85.5 26.5t60.5 66t36 87t12 89.5q0 38 -7 74.5t-23 70.5zM124 480q-34 -39 -51 -88t-17 -100q0 -45 13.5 -88t39.5 -80l3 3q-20 38 -29 80.5t-9 85.5q0 49 12 97t38 90z" />
    <glyph glyph-name="Thorn" unicode="&#xde;" horiz-adv-x="525" 
d="M320 188q-29 0 -57 6v-88q50 0 92 24l14 -25q-50 -28 -106 -28v-48h69v-29h-216v29h73v60q-35 12 -64.5 33.5t-51.5 50.5t-34 63t-12 72q0 43 14 81t39 68t60.5 50t77.5 28q20 48 52.5 86.5t75.5 66.5l15 -24q-27 -27 -50 -57.5t-34 -67.5q54 0 96 -17.5t70 -45
t42.5 -62.5t14.5 -70q0 -30 -11 -58.5t-33 -50t-56 -34.5t-80 -13zM412 241q29 18 43 46.5t14 60.5q0 38 -18 74.5t-50 58.5q22 -25 33.5 -59t11.5 -69q0 -30 -8.5 -59t-25.5 -53zM301 223q30 0 52 10.5t36 28.5t21 41t7 48q0 28 -9 56t-25.5 50.5t-41 36.5t-55.5 14
q-11 0 -16 -1q-5 -29 -6 -59t-1 -59v-163q19 -3 38 -3zM241 509q-13 -31 -18 -63t-5 -64v-353h16v353q0 32 1 63.5t6 63.5zM206 503q-34 -9 -62 -27t-47.5 -43.5t-30 -57.5t-10.5 -67q0 -32 10 -61t27.5 -53.5t42 -43.5t53.5 -30v262q0 61 17 121z" />
    <glyph glyph-name="germandbls" unicode="&#xdf;" horiz-adv-x="349" 
d="M322 59q0 -15 -8 -26.5t-20.5 -19.5t-28 -12t-30.5 -4q-14 0 -29 4t-28.5 11.5t-22 19t-8.5 27.5q0 12 7.5 22.5t21.5 10.5q20 0 33.5 -15t13.5 -34q0 -5 -1 -8.5t-3 -7.5q5 -1 8.5 -1.5t8.5 -0.5q7 0 18 3t11 13q0 4 -7.5 11.5t-17.5 15.5t-19 15t-13 10q-8 6 -17.5 13
t-18 15.5t-14 18.5t-5.5 21q0 20 7.5 29.5t21.5 20.5q17 15 28.5 35t18.5 41.5t10 42t3 35.5q0 30 -7.5 62t-22 59.5t-35.5 46t-48 20.5v-680l-69 -20v343h-33v29h33v287q0 29 21 49.5t50 20.5q33 0 60 -19t46 -49.5t29 -70t10 -80.5q0 -51 -14.5 -90.5t-45.5 -77.5
q-2 -2 -5 -7t-3 -8q0 -8 18 -20t39 -28t39 -34.5t18 -38.5zM292 52q0 2 0.5 2.5t0.5 2.5q0 13 -17.5 27.5t-38 29t-38 27t-17.5 22.5q0 -11 15.5 -25t35 -28.5t37 -29.5t22.5 -28zM99 540q-11 -13 -11 -28v-621l11 4v645z" />
    <glyph glyph-name="ae" unicode="&#xe6;" horiz-adv-x="415" 
d="M388 45q-17 -20 -41.5 -32t-50.5 -12t-49 10.5t-40 29.5q-20 -17 -37 -28.5t-44 -11.5q-23 0 -41 9.5t-31 25.5t-20 36t-7 41t7 41t20 36t31 25.5t41 9.5q29 0 52 -17v11h69v-5q24 11 49 11q29 0 52.5 -14t23.5 -47q0 -20 -10.5 -35t-26.5 -25.5t-35 -17t-35 -10.5
q3 -21 14.5 -33.5t28.5 -12.5t31.5 10t25.5 23zM344 166q0 15 -9 22t-23 7q-12 0 -21 -8.5t-16 -21.5t-10.5 -27t-3.5 -25v-8q10 3 24.5 7.5t27.5 12t22 17.5t9 24zM219 185h-11v-97q0 -15 11 -23v120zM178 169q-9 13 -17 18t-16 5q-11 0 -19 -7t-13.5 -18t-8 -25t-2.5 -29
q0 -29 10.5 -53.5t30.5 -24.5q17 0 35 22v112zM95 39q-11 14 -15 31t-4 36q0 21 5 42.5t14 38.5q-20 -11 -29.5 -31.5t-9.5 -42.5t9.5 -42.5t29.5 -31.5z" />
    <glyph glyph-name="eth" unicode="&#xf0;" horiz-adv-x="326" 
d="M260 519v-404q0 -51 -32 -82.5t-83 -31.5q-50 0 -84 30.5t-34 81.5q0 24 9.5 44.5t25.5 35.5t37 23.5t44 8.5q12 0 24.5 -2.5t24.5 -7.5v262l-23 -13l-13 21l36 22v46q-8 0 -16.5 -3.5t-13.5 -8.5l-20 21q20 20 48 20q20 0 37 -10.5t26 -27.5l33 19l13 -21zM232 510
q0 17 -11 28v-465q11 9 11 23v414zM192 182q-20 13 -36 13q-24 0 -35 -24t-11 -56q0 -36 14 -60t31 -24q10 0 19.5 9.5t17.5 30.5v111zM96 39q-10 14 -14 31t-4 36q0 22 5 43t13 38q-19 -11 -28.5 -31.5t-9.5 -42.5t9.5 -42.5t28.5 -31.5z" />
    <glyph glyph-name="divide" unicode="&#xf7;" horiz-adv-x="388" 
d="M27 308v44h334v-44h-334zM169 232q0 14 9 23t23 9t23 -9t9 -23t-9 -23t-23 -9t-23 9t-9 23zM169 424q0 14 9 23t23 9t23 -9t9 -23t-9 -23t-23 -9t-23 9t-9 23z" />
    <glyph glyph-name="oslash" unicode="&#xf8;" 
d="M227 113q0 -21 -7 -41.5t-20.5 -36t-32 -25.5t-40.5 -10q-16 0 -35 7l-13 -26h-31l20 41q-20 17 -30.5 41t-10.5 50q0 21 7 41t20.5 36t31.5 25.5t41 9.5q19 0 38 -8l14 27h30l-21 -42q18 -17 28.5 -40.5t10.5 -48.5zM146 189q-12 0 -20 -8.5t-12.5 -20.5t-6 -25
t-1.5 -22t1 -14l44 90h-5zM197 110q0 17 -5.5 34t-17.5 30l-57 -117q9 -20 32 -20q12 0 21 7.5t15 19t9 24t3 22.5zM95 39q-11 16 -14.5 35t-3.5 37q0 19 4 39t14 37q-20 -11 -29.5 -31.5t-9.5 -42.5t9.5 -42.5t29.5 -31.5z" />
    <glyph glyph-name="thorn" unicode="&#xfe;" horiz-adv-x="268" 
d="M142 1q-26 0 -46 13v-238h-69v686h69v-250q23 13 46 13q22 0 40.5 -9.5t31.5 -25.5t20 -36.5t7 -41.5t-7 -41t-20 -35.5t-31.5 -25t-40.5 -9.5zM179 42q17 12 25.5 31.5t8.5 39.5t-8.5 39.5t-25.5 31.5q17 -32 17 -71q0 -37 -17 -71zM126 34q20 0 30 23.5t10 52.5
q0 31 -10 56.5t-30 25.5q-14 0 -30 -17v-125q16 -16 30 -16zM67 433h-11v-628h11v628z" />
    <glyph glyph-name="fraction" unicode="&#x2044;" horiz-adv-x="360" 
d="M55 0h-28l278 581h28z" />
    <glyph glyph-name="dotlessi" unicode="&#x131;" horiz-adv-x="171" 
d="M144 60q0 -24 -17.5 -41.5t-41.5 -17.5q-25 0 -41.5 17.5t-16.5 41.5v159h68v-180q0 -5 4 -5q7 0 11.5 10.5t4.5 15.5h29zM66 190h-11v-130q0 -14 11 -23v153z" />
    <glyph glyph-name="ring" unicode="&#x2da;" horiz-adv-x="127" 
d="M100 276q0 -15 -11 -25.5t-26 -10.5t-25.5 10.5t-10.5 25.5t10.5 26t25.5 11t26 -11t11 -26zM80 276q0 8 -5 12.5t-12 4.5t-12 -5t-5 -12q0 -8 5 -12.5t12 -4.5q8 0 12.5 5t4.5 12z" />
    <glyph glyph-name="caron" unicode="&#x2c7;" horiz-adv-x="212" 
d="M71 300l35 -30l34 30h45l-79 -68l-79 68h44z" />
    <glyph glyph-name="space" unicode=" " horiz-adv-x="200" 
 />
    <glyph glyph-name="ellipsis" unicode="&#x2026;" horiz-adv-x="463" 
d="M116 36q0 -18 -13 -31t-31 -13t-31.5 12.5t-13.5 31.5t13 32t32 13t31.5 -13.5t12.5 -31.5zM87 36q0 6 -4 11t-11 5q-16 0 -16 -16q0 -7 5 -11t11 -4t10.5 4.5t4.5 10.5zM276 36q0 -18 -13 -31t-31 -13t-31.5 12.5t-13.5 31.5t13 32t32 13t31.5 -13.5t12.5 -31.5zM247 36
q0 6 -4 11t-11 5q-16 0 -16 -16q0 -7 5 -11t11 -4t10.5 4.5t4.5 10.5zM436 36q0 -18 -13 -31t-31 -13t-31.5 12.5t-13.5 31.5t13 32t32 13t31.5 -13.5t12.5 -31.5zM407 36q0 6 -4 11t-11 5q-16 0 -16 -16q0 -7 5 -11t11 -4t10.5 4.5t4.5 10.5z" />
    <glyph glyph-name="Euro" unicode="&#x20ac;" horiz-adv-x="515" 
d="M476 404q-31 29 -71 45t-82 16q-37 0 -66.5 -15.5t-52 -40.5t-36.5 -57.5t-19 -65.5h277l-12 -29h-267q-1 -3 -1 -10t1 -10h259l-13 -29h-244q5 -33 19 -65.5t36.5 -57.5t52 -40.5t66.5 -15.5q66 0 121 35l15 -24q-62 -40 -136 -40q-46 0 -87 15.5t-74 43t-55.5 66
t-29.5 83.5h-50l12 29h35v20h-45l12 29h36q7 45 29.5 83t55.5 66t74.5 43.5t86.5 15.5q46 0 88.5 -16t76.5 -46zM153 109q-18 32 -26.5 67t-8.5 71t8.5 71t26.5 67q-24 -29 -37 -64.5t-13 -73.5t13 -73.5t37 -64.5z" />
    <glyph glyph-name="Agrave" unicode="&#xc0;" horiz-adv-x="617" 
d="M375 0v29h73v87q0 72 -35 128t-106 79q-28 -86 -48.5 -173.5t-53.5 -171.5q33 -12 68 -12v-28q-43 0 -79 13q-14 -31 -31 -59.5t-40 -50.5t-52.5 -35t-66.5 -13q-23 0 -45.5 7.5t-40 21.5t-28 34t-10.5 45q0 34 23.5 60t58.5 26q11 0 23 -4t22 -11.5t16.5 -18t6.5 -23.5
q0 -12 -9 -21t-21 -9q-9 0 -17.5 5t-14.5 12.5t-10 16.5t-4 18v5q-21 -4 -33 -19.5t-12 -36.5q0 -19 8.5 -34t22 -25t30.5 -15t34 -5q32 0 57 12t45 32t35 45.5t27 51.5q-28 14 -51 35t-40 47t-26.5 55.5t-9.5 61.5q0 43 16.5 79.5t44.5 63.5t65.5 42t79.5 15q11 0 20.5 -1
t20.5 -3q13 37 31 76.5t43.5 72.5t60 54t80.5 21h77v-29h-59v-524h69v-29h-215zM493 552q-5 0 -8.5 -0.5t-8.5 -1.5v-521h17v523zM447 541q-26 -12 -46.5 -34t-36.5 -48t-27.5 -55t-20.5 -54q42 -14 75.5 -41t55.5 -65v297zM279 330q-17 3 -32 3q-36 0 -68.5 -13
t-56.5 -35.5t-38 -54t-14 -68.5q0 -54 30.5 -100.5t78.5 -71.5q32 83 52.5 169t47.5 171zM497 592l-111 74l16 24l111 -74z" />
    <glyph glyph-name="Aacute" unicode="&#xc1;" horiz-adv-x="617" 
d="M375 0v29h73v87q0 72 -35 128t-106 79q-28 -86 -48.5 -173.5t-53.5 -171.5q33 -12 68 -12v-28q-43 0 -79 13q-14 -31 -31 -59.5t-40 -50.5t-52.5 -35t-66.5 -13q-23 0 -45.5 7.5t-40 21.5t-28 34t-10.5 45q0 34 23.5 60t58.5 26q11 0 23 -4t22 -11.5t16.5 -18t6.5 -23.5
q0 -12 -9 -21t-21 -9q-9 0 -17.5 5t-14.5 12.5t-10 16.5t-4 18v5q-21 -4 -33 -19.5t-12 -36.5q0 -19 8.5 -34t22 -25t30.5 -15t34 -5q32 0 57 12t45 32t35 45.5t27 51.5q-28 14 -51 35t-40 47t-26.5 55.5t-9.5 61.5q0 43 16.5 79.5t44.5 63.5t65.5 42t79.5 15q11 0 20.5 -1
t20.5 -3q13 37 31 76.5t43.5 72.5t60 54t80.5 21h77v-29h-59v-524h69v-29h-215zM493 552q-5 0 -8.5 -0.5t-8.5 -1.5v-521h17v523zM447 541q-26 -12 -46.5 -34t-36.5 -48t-27.5 -55t-20.5 -54q42 -14 75.5 -41t55.5 -65v297zM279 330q-17 3 -32 3q-36 0 -68.5 -13
t-56.5 -35.5t-38 -54t-14 -68.5q0 -54 30.5 -100.5t78.5 -71.5q32 83 52.5 169t47.5 171zM441 592l-16 24l111 74l16 -24z" />
    <glyph glyph-name="Acircumflex" unicode="&#xc2;" horiz-adv-x="617" 
d="M375 0v29h73v87q0 72 -35 128t-106 79q-28 -86 -48.5 -173.5t-53.5 -171.5q33 -12 68 -12v-28q-43 0 -79 13q-14 -31 -31 -59.5t-40 -50.5t-52.5 -35t-66.5 -13q-23 0 -45.5 7.5t-40 21.5t-28 34t-10.5 45q0 34 23.5 60t58.5 26q11 0 23 -4t22 -11.5t16.5 -18t6.5 -23.5
q0 -12 -9 -21t-21 -9q-9 0 -17.5 5t-14.5 12.5t-10 16.5t-4 18v5q-21 -4 -33 -19.5t-12 -36.5q0 -19 8.5 -34t22 -25t30.5 -15t34 -5q32 0 57 12t45 32t35 45.5t27 51.5q-28 14 -51 35t-40 47t-26.5 55.5t-9.5 61.5q0 43 16.5 79.5t44.5 63.5t65.5 42t79.5 15q11 0 20.5 -1
t20.5 -3q13 37 31 76.5t43.5 72.5t60 54t80.5 21h77v-29h-59v-524h69v-29h-215zM493 552q-5 0 -8.5 -0.5t-8.5 -1.5v-521h17v523zM447 541q-26 -12 -46.5 -34t-36.5 -48t-27.5 -55t-20.5 -54q42 -14 75.5 -41t55.5 -65v297zM279 330q-17 3 -32 3q-36 0 -68.5 -13
t-56.5 -35.5t-38 -54t-14 -68.5q0 -54 30.5 -100.5t78.5 -71.5q32 83 52.5 169t47.5 171zM362 597l93 80l92 -80h-43l-49 42l-49 -42h-44z" />
    <glyph glyph-name="Atilde" unicode="&#xc3;" horiz-adv-x="617" 
d="M375 0v29h73v87q0 72 -35 128t-106 79q-28 -86 -48.5 -173.5t-53.5 -171.5q33 -12 68 -12v-28q-43 0 -79 13q-14 -31 -31 -59.5t-40 -50.5t-52.5 -35t-66.5 -13q-23 0 -45.5 7.5t-40 21.5t-28 34t-10.5 45q0 34 23.5 60t58.5 26q11 0 23 -4t22 -11.5t16.5 -18t6.5 -23.5
q0 -12 -9 -21t-21 -9q-9 0 -17.5 5t-14.5 12.5t-10 16.5t-4 18v5q-21 -4 -33 -19.5t-12 -36.5q0 -19 8.5 -34t22 -25t30.5 -15t34 -5q32 0 57 12t45 32t35 45.5t27 51.5q-28 14 -51 35t-40 47t-26.5 55.5t-9.5 61.5q0 43 16.5 79.5t44.5 63.5t65.5 42t79.5 15q11 0 20.5 -1
t20.5 -3q13 37 31 76.5t43.5 72.5t60 54t80.5 21h77v-29h-59v-524h69v-29h-215zM493 552q-5 0 -8.5 -0.5t-8.5 -1.5v-521h17v523zM447 541q-26 -12 -46.5 -34t-36.5 -48t-27.5 -55t-20.5 -54q42 -14 75.5 -41t55.5 -65v297zM279 330q-17 3 -32 3q-36 0 -68.5 -13
t-56.5 -35.5t-38 -54t-14 -68.5q0 -54 30.5 -100.5t78.5 -71.5q32 83 52.5 169t47.5 171zM551 638q-7 -18 -17 -31t-32 -13q-14 0 -28 5.5t-26.5 12t-24.5 12t-22 5.5q-11 0 -15 -8t-7 -17l-27 11q7 17 17.5 30t31.5 13q14 0 27 -5.5t25.5 -12t24 -12t22.5 -5.5q12 0 16 8
t8 17l27 -10v0z" />
    <glyph glyph-name="Adieresis" unicode="&#xc4;" horiz-adv-x="617" 
d="M375 0v29h73v87q0 72 -35 128t-106 79q-28 -86 -48.5 -173.5t-53.5 -171.5q33 -12 68 -12v-28q-43 0 -79 13q-14 -31 -31 -59.5t-40 -50.5t-52.5 -35t-66.5 -13q-23 0 -45.5 7.5t-40 21.5t-28 34t-10.5 45q0 34 23.5 60t58.5 26q11 0 23 -4t22 -11.5t16.5 -18t6.5 -23.5
q0 -12 -9 -21t-21 -9q-9 0 -17.5 5t-14.5 12.5t-10 16.5t-4 18v5q-21 -4 -33 -19.5t-12 -36.5q0 -19 8.5 -34t22 -25t30.5 -15t34 -5q32 0 57 12t45 32t35 45.5t27 51.5q-28 14 -51 35t-40 47t-26.5 55.5t-9.5 61.5q0 43 16.5 79.5t44.5 63.5t65.5 42t79.5 15q11 0 20.5 -1
t20.5 -3q13 37 31 76.5t43.5 72.5t60 54t80.5 21h77v-29h-59v-524h69v-29h-215zM493 552q-5 0 -8.5 -0.5t-8.5 -1.5v-521h17v523zM447 541q-26 -12 -46.5 -34t-36.5 -48t-27.5 -55t-20.5 -54q42 -14 75.5 -41t55.5 -65v297zM279 330q-17 3 -32 3q-36 0 -68.5 -13
t-56.5 -35.5t-38 -54t-14 -68.5q0 -54 30.5 -100.5t78.5 -71.5q32 83 52.5 169t47.5 171zM523 628q0 -11 -8 -18.5t-19 -7.5t-18.5 7.5t-7.5 18.5t7.5 18.5t18.5 7.5t19 -7.5t8 -18.5zM447 628q0 -11 -8 -18.5t-19 -7.5t-18.5 7.5t-7.5 18.5t7.5 18.5t18.5 7.5t19 -7.5
t8 -18.5z" />
    <glyph glyph-name="Aring" unicode="&#xc5;" horiz-adv-x="617" 
d="M375 0v29h73v87q0 72 -35 128t-106 79q-28 -86 -48.5 -173.5t-53.5 -171.5q33 -12 68 -12v-28q-43 0 -79 13q-14 -31 -31 -59.5t-40 -50.5t-52.5 -35t-66.5 -13q-23 0 -45.5 7.5t-40 21.5t-28 34t-10.5 45q0 34 23.5 60t58.5 26q11 0 23 -4t22 -11.5t16.5 -18t6.5 -23.5
q0 -12 -9 -21t-21 -9q-9 0 -17.5 5t-14.5 12.5t-10 16.5t-4 18v5q-21 -4 -33 -19.5t-12 -36.5q0 -19 8.5 -34t22 -25t30.5 -15t34 -5q32 0 57 12t45 32t35 45.5t27 51.5q-28 14 -51 35t-40 47t-26.5 55.5t-9.5 61.5q0 43 16.5 79.5t44.5 63.5t65.5 42t79.5 15q11 0 20.5 -1
t20.5 -3q13 37 31 76.5t43.5 72.5t60 54t80.5 21h77v-29h-59v-524h69v-29h-215zM493 552q-5 0 -8.5 -0.5t-8.5 -1.5v-521h17v523zM447 541q-26 -12 -46.5 -34t-36.5 -48t-27.5 -55t-20.5 -54q42 -14 75.5 -41t55.5 -65v297zM279 330q-17 3 -32 3q-36 0 -68.5 -13
t-56.5 -35.5t-38 -54t-14 -68.5q0 -54 30.5 -100.5t78.5 -71.5q32 83 52.5 169t47.5 171zM526 633q0 -15 -11 -25.5t-26 -10.5t-25.5 10.5t-10.5 25.5t10.5 26t25.5 11t26 -11t11 -26zM506 633q0 8 -5 12.5t-12 4.5t-12 -5t-5 -12q0 -8 5 -12.5t12 -4.5q8 0 12.5 5t4.5 12z
" />
    <glyph glyph-name="Ccedilla" unicode="&#xc7;" horiz-adv-x="514" 
d="M487 97q-36 -45 -87 -71t-109 -26q-59 0 -107.5 24.5t-83 65.5t-54 93t-19.5 108q0 59 21 112t58 92.5t88.5 63t111.5 23.5q30 0 60 -10t54 -29t39 -45t15 -59q0 -9 -3 -19.5t-9 -19.5t-14.5 -15t-19.5 -6q-18 0 -32 16.5t-14 33.5q0 13 8.5 22t21.5 9q10 0 18.5 -5
t14.5 -13q-1 25 -13 45t-30.5 34.5t-41.5 22.5t-45 8q-56 0 -96 -22.5t-65.5 -59.5t-38 -84.5t-12.5 -96.5q0 -47 12 -93.5t37 -83.5t63.5 -60t92.5 -23q22 0 44 7t42.5 19t38.5 27.5t32 32.5zM115 462q-29 -36 -44 -80.5t-15 -90.5q0 -47 14.5 -91t42.5 -81q-20 39 -29 82
t-9 88t9 89t31 84zM313 -72q0 -17 -7 -31t-18.5 -24.5t-26.5 -16t-31 -5.5q-15 0 -28.5 5.5t-24 14.5t-17 22t-6.5 28q0 18 12 30t30 12q14 0 24.5 -9.5t10.5 -24.5q0 -14 -9.5 -24.5t-23.5 -10.5h-4q14 -14 36 -14q20 0 37 13t17 35q0 26 -21 43t-46 17v28q18 0 35.5 -6.5
t31 -18t21.5 -28t8 -35.5z" />
    <glyph glyph-name="Egrave" unicode="&#xc8;" horiz-adv-x="434" 
d="M407 135q-8 -32 -25.5 -57.5t-42.5 -42.5t-55 -26t-62 -9q-36 0 -71 12t-62.5 34.5t-44.5 53.5t-17 70q0 56 34 99t85 62q-35 16 -59.5 46.5t-24.5 70.5q0 31 13.5 55.5t35.5 42t49.5 26.5t56.5 9q26 0 49.5 -9t41.5 -24t29 -35t11 -43q0 -14 -7.5 -23t-21.5 -9
q-20 0 -33 16.5t-13 35.5q0 12 7 20t20 9q-14 18 -36 26t-45 8q-21 0 -36.5 -8t-26 -21.5t-16 -31t-5.5 -36.5q0 -24 8 -44.5t22 -35.5t34 -23.5t44 -8.5h61v-29h-39q-34 0 -63.5 -9t-51 -28t-33.5 -47t-12 -66q0 -26 7.5 -50.5t22.5 -43.5t36.5 -30.5t50.5 -11.5
q56 0 99.5 28.5t57.5 84.5zM129 375q-23 35 -23 78q0 30 11 58q-12 -13 -19 -29t-7 -33q0 -22 10.5 -41t27.5 -33zM115 283q-26 -20 -42.5 -49t-16.5 -62q0 -27 10.5 -51t29.5 -43q-20 42 -20 88q0 32 9.5 62t29.5 55zM266 592l-111 74l16 24l111 -74z" />
    <glyph glyph-name="Eacute" unicode="&#xc9;" horiz-adv-x="434" 
d="M407 135q-8 -32 -25.5 -57.5t-42.5 -42.5t-55 -26t-62 -9q-36 0 -71 12t-62.5 34.5t-44.5 53.5t-17 70q0 56 34 99t85 62q-35 16 -59.5 46.5t-24.5 70.5q0 31 13.5 55.5t35.5 42t49.5 26.5t56.5 9q26 0 49.5 -9t41.5 -24t29 -35t11 -43q0 -14 -7.5 -23t-21.5 -9
q-20 0 -33 16.5t-13 35.5q0 12 7 20t20 9q-14 18 -36 26t-45 8q-21 0 -36.5 -8t-26 -21.5t-16 -31t-5.5 -36.5q0 -24 8 -44.5t22 -35.5t34 -23.5t44 -8.5h61v-29h-39q-34 0 -63.5 -9t-51 -28t-33.5 -47t-12 -66q0 -26 7.5 -50.5t22.5 -43.5t36.5 -30.5t50.5 -11.5
q56 0 99.5 28.5t57.5 84.5zM129 375q-23 35 -23 78q0 30 11 58q-12 -13 -19 -29t-7 -33q0 -22 10.5 -41t27.5 -33zM115 283q-26 -20 -42.5 -49t-16.5 -62q0 -27 10.5 -51t29.5 -43q-20 42 -20 88q0 32 9.5 62t29.5 55zM187 592l-16 24l111 74l16 -24z" />
    <glyph glyph-name="Ecircumflex" unicode="&#xca;" horiz-adv-x="434" 
d="M407 135q-8 -32 -25.5 -57.5t-42.5 -42.5t-55 -26t-62 -9q-36 0 -71 12t-62.5 34.5t-44.5 53.5t-17 70q0 56 34 99t85 62q-35 16 -59.5 46.5t-24.5 70.5q0 31 13.5 55.5t35.5 42t49.5 26.5t56.5 9q26 0 49.5 -9t41.5 -24t29 -35t11 -43q0 -14 -7.5 -23t-21.5 -9
q-20 0 -33 16.5t-13 35.5q0 12 7 20t20 9q-14 18 -36 26t-45 8q-21 0 -36.5 -8t-26 -21.5t-16 -31t-5.5 -36.5q0 -24 8 -44.5t22 -35.5t34 -23.5t44 -8.5h61v-29h-39q-34 0 -63.5 -9t-51 -28t-33.5 -47t-12 -66q0 -26 7.5 -50.5t22.5 -43.5t36.5 -30.5t50.5 -11.5
q56 0 99.5 28.5t57.5 84.5zM129 375q-23 35 -23 78q0 30 11 58q-12 -13 -19 -29t-7 -33q0 -22 10.5 -41t27.5 -33zM115 283q-26 -20 -42.5 -49t-16.5 -62q0 -27 10.5 -51t29.5 -43q-20 42 -20 88q0 32 9.5 62t29.5 55zM126 597l93 80l92 -80h-43l-49 42l-49 -42h-44z" />
    <glyph glyph-name="Edieresis" unicode="&#xcb;" horiz-adv-x="434" 
d="M407 135q-8 -32 -25.5 -57.5t-42.5 -42.5t-55 -26t-62 -9q-36 0 -71 12t-62.5 34.5t-44.5 53.5t-17 70q0 56 34 99t85 62q-35 16 -59.5 46.5t-24.5 70.5q0 31 13.5 55.5t35.5 42t49.5 26.5t56.5 9q26 0 49.5 -9t41.5 -24t29 -35t11 -43q0 -14 -7.5 -23t-21.5 -9
q-20 0 -33 16.5t-13 35.5q0 12 7 20t20 9q-14 18 -36 26t-45 8q-21 0 -36.5 -8t-26 -21.5t-16 -31t-5.5 -36.5q0 -24 8 -44.5t22 -35.5t34 -23.5t44 -8.5h61v-29h-39q-34 0 -63.5 -9t-51 -28t-33.5 -47t-12 -66q0 -26 7.5 -50.5t22.5 -43.5t36.5 -30.5t50.5 -11.5
q56 0 99.5 28.5t57.5 84.5zM129 375q-23 35 -23 78q0 30 11 58q-12 -13 -19 -29t-7 -33q0 -22 10.5 -41t27.5 -33zM115 283q-26 -20 -42.5 -49t-16.5 -62q0 -27 10.5 -51t29.5 -43q-20 42 -20 88q0 32 9.5 62t29.5 55zM283 628q0 -11 -8 -18.5t-19 -7.5t-18.5 7.5t-7.5 18.5
t7.5 18.5t18.5 7.5t19 -7.5t8 -18.5zM207 628q0 -11 -8 -18.5t-19 -7.5t-18.5 7.5t-7.5 18.5t7.5 18.5t18.5 7.5t19 -7.5t8 -18.5z" />
    <glyph glyph-name="Igrave" unicode="&#xcc;" horiz-adv-x="270" 
d="M27 0v29h72v524h-72v29h216v-29h-69v-524h69v-29h-216zM145 553h-17v-524h17v524zM193 592l-111 74l16 24l111 -74z" />
    <glyph glyph-name="Iacute" unicode="&#xcd;" horiz-adv-x="270" 
d="M27 0v29h72v524h-72v29h216v-29h-69v-524h69v-29h-216zM145 553h-17v-524h17v524zM98 592l-16 24l111 74l16 -24z" />
    <glyph glyph-name="Icircumflex" unicode="&#xce;" horiz-adv-x="270" 
d="M27 0v29h72v524h-72v29h216v-29h-69v-524h69v-29h-216zM145 553h-17v-524h17v524zM44 597l93 80l92 -80h-43l-49 42l-49 -42h-44z" />
    <glyph glyph-name="Idieresis" unicode="&#xcf;" horiz-adv-x="270" 
d="M27 0v29h72v524h-72v29h216v-29h-69v-524h69v-29h-216zM145 553h-17v-524h17v524zM201 628q0 -11 -8 -18.5t-19 -7.5t-18.5 7.5t-7.5 18.5t7.5 18.5t18.5 7.5t19 -7.5t8 -18.5zM125 628q0 -11 -8 -18.5t-19 -7.5t-18.5 7.5t-7.5 18.5t7.5 18.5t18.5 7.5t19 -7.5t8 -18.5z
" />
    <glyph glyph-name="Ntilde" unicode="&#xd1;" horiz-adv-x="715" 
d="M870 648q0 -29 -21 -46t-49 -17q-9 0 -18 3.5t-17 10t-13 15t-5 17.5q0 13 9 21.5t22 8.5q16 0 31 -11.5t19 -27.5q13 11 13 27q0 23 -18 35.5t-38 12.5q-36 0 -57 -21t-31.5 -51.5t-13.5 -66.5t-3 -66v-493h-23l-269 492v-254q0 -46 -13.5 -91.5t-40 -82t-65.5 -59
t-90 -22.5q-30 0 -57.5 9.5t-48.5 26.5t-33.5 42t-12.5 57q0 22 8.5 41t23 33.5t33.5 22.5t41 8q38 0 59 -23t21 -60q0 -18 -9.5 -33t-29.5 -15t-33.5 15.5t-13.5 35.5q0 13 7.5 21t20.5 8t24 -8q-14 32 -47 32q-15 0 -29 -6.5t-24.5 -17.5t-16.5 -25t-6 -29
q0 -26 10.5 -45.5t27.5 -33t39 -20.5t46 -7q45 0 78.5 20.5t56 53t34 72.5t11.5 80v315h-87v29h151l228 -418v311q0 33 3 76.5t16 82t40.5 65.5t75.5 27q34 0 59 -21t25 -56zM651 103l-245 449h-18l1 -3l262 -479v33zM615 638q-7 -18 -17 -31t-32 -13q-14 0 -28 5.5
t-26.5 12t-24.5 12t-22 5.5q-11 0 -15 -8t-7 -17l-27 11q7 17 17.5 30t31.5 13q14 0 27 -5.5t25.5 -12t24 -12t22.5 -5.5q12 0 16 8t8 17l27 -10v0z" />
    <glyph glyph-name="Ograve" unicode="&#xd2;" horiz-adv-x="596" 
d="M569 292q0 -57 -20 -110.5t-55.5 -95.5t-85.5 -67.5t-110 -25.5t-110 25.5t-85.5 67.5t-55.5 95.5t-20 110.5t20 111t55.5 95.5t85.5 67t110 25.5t110 -25.5t85.5 -67t55.5 -95.5t20 -111zM471 104q34 39 51.5 88t17.5 101q0 51 -17.5 99.5t-51.5 87.5q26 -42 38 -90.5
t12 -97.5t-12 -97.5t-38 -90.5zM493 292q0 51 -14.5 101t-44.5 92q-24 33 -58.5 55.5t-77.5 22.5t-77.5 -22.5t-58.5 -55.5q-30 -42 -44.5 -92t-14.5 -101q0 -42 12 -89t36 -87.5t60.5 -67t86.5 -26.5q49 0 86 26.5t61 67t36 87.5t12 89zM124 104q-26 42 -38 90.5t-12 97.5
t12 97.5t38 90.5q-34 -38 -51 -87.5t-17 -100.5t17 -100t51 -88zM355 592l-111 74l16 24l111 -74z" />
    <glyph glyph-name="Oacute" unicode="&#xd3;" horiz-adv-x="596" 
d="M569 292q0 -57 -20 -110.5t-55.5 -95.5t-85.5 -67.5t-110 -25.5t-110 25.5t-85.5 67.5t-55.5 95.5t-20 110.5t20 111t55.5 95.5t85.5 67t110 25.5t110 -25.5t85.5 -67t55.5 -95.5t20 -111zM471 104q34 39 51.5 88t17.5 101q0 51 -17.5 99.5t-51.5 87.5q26 -42 38 -90.5
t12 -97.5t-12 -97.5t-38 -90.5zM493 292q0 51 -14.5 101t-44.5 92q-24 33 -58.5 55.5t-77.5 22.5t-77.5 -22.5t-58.5 -55.5q-30 -42 -44.5 -92t-14.5 -101q0 -42 12 -89t36 -87.5t60.5 -67t86.5 -26.5q49 0 86 26.5t61 67t36 87.5t12 89zM124 104q-26 42 -38 90.5t-12 97.5
t12 97.5t38 90.5q-34 -38 -51 -87.5t-17 -100.5t17 -100t51 -88zM260 592l-16 24l111 74l16 -24z" />
    <glyph glyph-name="Ocircumflex" unicode="&#xd4;" horiz-adv-x="596" 
d="M569 292q0 -57 -20 -110.5t-55.5 -95.5t-85.5 -67.5t-110 -25.5t-110 25.5t-85.5 67.5t-55.5 95.5t-20 110.5t20 111t55.5 95.5t85.5 67t110 25.5t110 -25.5t85.5 -67t55.5 -95.5t20 -111zM471 104q34 39 51.5 88t17.5 101q0 51 -17.5 99.5t-51.5 87.5q26 -42 38 -90.5
t12 -97.5t-12 -97.5t-38 -90.5zM493 292q0 51 -14.5 101t-44.5 92q-24 33 -58.5 55.5t-77.5 22.5t-77.5 -22.5t-58.5 -55.5q-30 -42 -44.5 -92t-14.5 -101q0 -42 12 -89t36 -87.5t60.5 -67t86.5 -26.5q49 0 86 26.5t61 67t36 87.5t12 89zM124 104q-26 42 -38 90.5t-12 97.5
t12 97.5t38 90.5q-34 -38 -51 -87.5t-17 -100.5t17 -100t51 -88zM205 603l93 80l92 -80h-43l-49 42l-49 -42h-44z" />
    <glyph glyph-name="Otilde" unicode="&#xd5;" horiz-adv-x="596" 
d="M569 292q0 -57 -20 -110.5t-55.5 -95.5t-85.5 -67.5t-110 -25.5t-110 25.5t-85.5 67.5t-55.5 95.5t-20 110.5t20 111t55.5 95.5t85.5 67t110 25.5t110 -25.5t85.5 -67t55.5 -95.5t20 -111zM471 104q34 39 51.5 88t17.5 101q0 51 -17.5 99.5t-51.5 87.5q26 -42 38 -90.5
t12 -97.5t-12 -97.5t-38 -90.5zM493 292q0 51 -14.5 101t-44.5 92q-24 33 -58.5 55.5t-77.5 22.5t-77.5 -22.5t-58.5 -55.5q-30 -42 -44.5 -92t-14.5 -101q0 -42 12 -89t36 -87.5t60.5 -67t86.5 -26.5q49 0 86 26.5t61 67t36 87.5t12 89zM124 104q-26 42 -38 90.5t-12 97.5
t12 97.5t38 90.5q-34 -38 -51 -87.5t-17 -100.5t17 -100t51 -88zM401 646q-7 -18 -17 -31t-32 -13q-14 0 -28 5.5t-26.5 12t-24.5 12t-22 5.5q-11 0 -15 -8t-7 -17l-27 11q7 17 17.5 30t31.5 13q14 0 27 -5.5t25.5 -12t24 -12t22.5 -5.5q12 0 16 8t8 17l27 -10v0z" />
    <glyph glyph-name="Odieresis" unicode="&#xd6;" horiz-adv-x="596" 
d="M569 292q0 -57 -20 -110.5t-55.5 -95.5t-85.5 -67.5t-110 -25.5t-110 25.5t-85.5 67.5t-55.5 95.5t-20 110.5t20 111t55.5 95.5t85.5 67t110 25.5t110 -25.5t85.5 -67t55.5 -95.5t20 -111zM471 104q34 39 51.5 88t17.5 101q0 51 -17.5 99.5t-51.5 87.5q26 -42 38 -90.5
t12 -97.5t-12 -97.5t-38 -90.5zM493 292q0 51 -14.5 101t-44.5 92q-24 33 -58.5 55.5t-77.5 22.5t-77.5 -22.5t-58.5 -55.5q-30 -42 -44.5 -92t-14.5 -101q0 -42 12 -89t36 -87.5t60.5 -67t86.5 -26.5q49 0 86 26.5t61 67t36 87.5t12 89zM124 104q-26 42 -38 90.5t-12 97.5
t12 97.5t38 90.5q-34 -38 -51 -87.5t-17 -100.5t17 -100t51 -88zM363 633q0 -11 -8 -18.5t-19 -7.5t-18.5 7.5t-7.5 18.5t7.5 18.5t18.5 7.5t19 -7.5t8 -18.5zM287 633q0 -11 -8 -18.5t-19 -7.5t-18.5 7.5t-7.5 18.5t7.5 18.5t18.5 7.5t19 -7.5t8 -18.5z" />
    <glyph glyph-name="Scaron" unicode="&#x160;" horiz-adv-x="423" 
d="M396 133q0 -38 -17 -65t-44 -44.5t-60 -25.5t-66 -8t-65.5 9.5t-58.5 28.5t-42 48t-16 68q0 20 6.5 39t18.5 33.5t29.5 23.5t38.5 9q30 0 52 -20.5t22 -50.5q0 -21 -14 -39.5t-37 -18.5q-17 0 -33.5 13.5t-16.5 31.5q0 13 9 21.5t22 8.5q11 0 22.5 -6t18.5 -15v6
q0 18 -13.5 29.5t-32.5 11.5q-15 0 -27 -7t-20 -18t-12.5 -24.5t-4.5 -27.5q0 -30 12.5 -53t33.5 -39.5t48 -25t56 -8.5q24 0 45.5 6t37 18.5t25 32t9.5 45.5q0 37 -17.5 66t-43.5 55t-56.5 50.5t-56.5 52t-43.5 59t-17.5 72.5q0 30 11 53t30 39.5t44 25t53 8.5t54.5 -9
t47.5 -26v19h29v-153h-29v91q-15 23 -40 35t-52 12q-35 0 -57.5 -20.5t-22.5 -56.5q0 -24 9.5 -43t23.5 -35.5t31 -31.5t32 -30q23 -24 48.5 -47.5t47 -49.5t35.5 -56t14 -67zM368 133q0 38 -18 70t-45 60.5t-58 54.5t-58 53.5t-45 56.5t-18 64q0 19 6 37q-16 -23 -16 -54
q0 -37 17.5 -66t43.5 -54.5t56.5 -50t56.5 -51.5t43.5 -59.5t17.5 -73.5q0 -14 -2.5 -28t-8.5 -27q13 14 20.5 31.5t7.5 36.5zM194 678l35 -30l34 30h45l-79 -68l-79 68h44z" />
    <glyph glyph-name="Ugrave" unicode="&#xd9;" horiz-adv-x="714" 
d="M616 553v-393q0 -39 -18 -70.5t-46.5 -53.5t-64 -34t-71.5 -12q-42 0 -78 13t-63 37.5t-42.5 59t-15.5 77.5q-38 6 -72 24.5t-60.5 46.5t-42 63t-15.5 74q0 43 17.5 79t47 62.5t68 41t80.5 14.5h176v-29h-125v-348q31 4 58 17.5t47.5 34.5t32.5 48.5t12 59.5v10.5
t-1 10.5l29 8q1 -6 1.5 -12t0.5 -12q0 -38 -14.5 -71.5t-39 -59t-57 -42t-69.5 -21.5q0 -32 7.5 -60.5t23.5 -49.5t42 -33t64 -12q29 0 57.5 10t51 28t36.5 43.5t14 57.5v393h-59v29h159v-29h-71zM279 77q-17 31 -17 65v411h-16v-393q0 -47 33 -83zM217 552q-32 -3 -61 -16
t-51.5 -34.5t-35.5 -50t-13 -61.5q0 -34 13 -64.5t35 -54.5t51.5 -40.5t61.5 -23.5v345zM471 592l-111 74l16 24l111 -74z" />
    <glyph glyph-name="Uacute" unicode="&#xda;" horiz-adv-x="714" 
d="M616 553v-393q0 -39 -18 -70.5t-46.5 -53.5t-64 -34t-71.5 -12q-42 0 -78 13t-63 37.5t-42.5 59t-15.5 77.5q-38 6 -72 24.5t-60.5 46.5t-42 63t-15.5 74q0 43 17.5 79t47 62.5t68 41t80.5 14.5h176v-29h-125v-348q31 4 58 17.5t47.5 34.5t32.5 48.5t12 59.5v10.5
t-1 10.5l29 8q1 -6 1.5 -12t0.5 -12q0 -38 -14.5 -71.5t-39 -59t-57 -42t-69.5 -21.5q0 -32 7.5 -60.5t23.5 -49.5t42 -33t64 -12q29 0 57.5 10t51 28t36.5 43.5t14 57.5v393h-59v29h159v-29h-71zM279 77q-17 31 -17 65v411h-16v-393q0 -47 33 -83zM217 552q-32 -3 -61 -16
t-51.5 -34.5t-35.5 -50t-13 -61.5q0 -34 13 -64.5t35 -54.5t51.5 -40.5t61.5 -23.5v345zM392 592l-16 24l111 74l16 -24z" />
    <glyph glyph-name="Ucircumflex" unicode="&#xdb;" horiz-adv-x="714" 
d="M616 553v-393q0 -39 -18 -70.5t-46.5 -53.5t-64 -34t-71.5 -12q-42 0 -78 13t-63 37.5t-42.5 59t-15.5 77.5q-38 6 -72 24.5t-60.5 46.5t-42 63t-15.5 74q0 43 17.5 79t47 62.5t68 41t80.5 14.5h176v-29h-125v-348q31 4 58 17.5t47.5 34.5t32.5 48.5t12 59.5v10.5
t-1 10.5l29 8q1 -6 1.5 -12t0.5 -12q0 -38 -14.5 -71.5t-39 -59t-57 -42t-69.5 -21.5q0 -32 7.5 -60.5t23.5 -49.5t42 -33t64 -12q29 0 57.5 10t51 28t36.5 43.5t14 57.5v393h-59v29h159v-29h-71zM279 77q-17 31 -17 65v411h-16v-393q0 -47 33 -83zM217 552q-32 -3 -61 -16
t-51.5 -34.5t-35.5 -50t-13 -61.5q0 -34 13 -64.5t35 -54.5t51.5 -40.5t61.5 -23.5v345zM353 597l93 80l92 -80h-43l-49 42l-49 -42h-44z" />
    <glyph glyph-name="Udieresis" unicode="&#xdc;" horiz-adv-x="714" 
d="M616 553v-393q0 -39 -18 -70.5t-46.5 -53.5t-64 -34t-71.5 -12q-42 0 -78 13t-63 37.5t-42.5 59t-15.5 77.5q-38 6 -72 24.5t-60.5 46.5t-42 63t-15.5 74q0 43 17.5 79t47 62.5t68 41t80.5 14.5h176v-29h-125v-348q31 4 58 17.5t47.5 34.5t32.5 48.5t12 59.5v10.5
t-1 10.5l29 8q1 -6 1.5 -12t0.5 -12q0 -38 -14.5 -71.5t-39 -59t-57 -42t-69.5 -21.5q0 -32 7.5 -60.5t23.5 -49.5t42 -33t64 -12q29 0 57.5 10t51 28t36.5 43.5t14 57.5v393h-59v29h159v-29h-71zM279 77q-17 31 -17 65v411h-16v-393q0 -47 33 -83zM217 552q-32 -3 -61 -16
t-51.5 -34.5t-35.5 -50t-13 -61.5q0 -34 13 -64.5t35 -54.5t51.5 -40.5t61.5 -23.5v345zM514 628q0 -11 -8 -18.5t-19 -7.5t-18.5 7.5t-7.5 18.5t7.5 18.5t18.5 7.5t19 -7.5t8 -18.5zM438 628q0 -11 -8 -18.5t-19 -7.5t-18.5 7.5t-7.5 18.5t7.5 18.5t18.5 7.5t19 -7.5
t8 -18.5z" />
    <glyph glyph-name="Yacute" unicode="&#xdd;" horiz-adv-x="569" 
d="M138 -160q-19 0 -38.5 5t-35.5 15t-26.5 26t-10.5 37q0 27 14.5 43t41.5 16q22 0 39 -14.5t17 -37.5q0 -12 -8 -21t-20 -9q-16 0 -30.5 15t-18.5 29q-6 -8 -6 -19q0 -15 8 -26t20 -17.5t26 -9.5t26 -3q23 0 45.5 10.5t43.5 26.5t39.5 34.5l33.5 33.5l-194 579h-77v29h216
v-29h-59l170 -509q28 39 56.5 88.5t51.5 103.5t38 109t15 104q0 28 -6 52t-19 41.5t-34.5 27.5t-51.5 10q-18 0 -34 -8t-28 -20.5t-18.5 -29.5t-6.5 -35q0 -29 18 -50l-22 -19q-25 30 -25 68q0 24 9 46t25 39.5t37.5 27.5t45.5 10q37 0 63 -12t42.5 -33.5t24 -51t7.5 -63.5
q0 -31 -5 -61.5t-13 -59.5q-17 -57 -42.5 -116t-59 -115t-73 -106.5t-84.5 -89.5q-26 -23 -59 -42t-68 -19zM154 553h-20l186 -553l13 16zM280 592l-16 24l111 74l16 -24z" />
    <glyph glyph-name="Ydieresis" unicode="&#x178;" horiz-adv-x="569" 
d="M138 -160q-19 0 -38.5 5t-35.5 15t-26.5 26t-10.5 37q0 27 14.5 43t41.5 16q22 0 39 -14.5t17 -37.5q0 -12 -8 -21t-20 -9q-16 0 -30.5 15t-18.5 29q-6 -8 -6 -19q0 -15 8 -26t20 -17.5t26 -9.5t26 -3q23 0 45.5 10.5t43.5 26.5t39.5 34.5l33.5 33.5l-194 579h-77v29h216
v-29h-59l170 -509q28 39 56.5 88.5t51.5 103.5t38 109t15 104q0 28 -6 52t-19 41.5t-34.5 27.5t-51.5 10q-18 0 -34 -8t-28 -20.5t-18.5 -29.5t-6.5 -35q0 -29 18 -50l-22 -19q-25 30 -25 68q0 24 9 46t25 39.5t37.5 27.5t45.5 10q37 0 63 -12t42.5 -33.5t24 -51t7.5 -63.5
q0 -31 -5 -61.5t-13 -59.5q-17 -57 -42.5 -116t-59 -115t-73 -106.5t-84.5 -89.5q-26 -23 -59 -42t-68 -19zM154 553h-20l186 -553l13 16zM358 628q0 -11 -8 -18.5t-19 -7.5t-18.5 7.5t-7.5 18.5t7.5 18.5t18.5 7.5t19 -7.5t8 -18.5zM282 628q0 -11 -8 -18.5t-19 -7.5
t-18.5 7.5t-7.5 18.5t7.5 18.5t18.5 7.5t19 -7.5t8 -18.5z" />
    <glyph glyph-name="Zcaron" unicode="&#x17d;" horiz-adv-x="661" 
d="M601 108q0 32 -13.5 61t-39.5 48l21 24q30 -23 47.5 -57.5t17.5 -72.5q0 -27 -9 -51t-26 -41t-41 -27t-54 -10q-33 0 -64 14q-20 9 -39 21.5t-38 24.5q-23 15 -46 29.5t-48 26.5l-21 -39q-18 -32 -52.5 -53.5t-72.5 -21.5q-39 0 -67.5 24.5t-28.5 64.5q0 25 10.5 42.5
t28 28.5t39 15.5t42.5 4.5q17 0 35 -2.5t35 -6.5l218 398h-278v-110h-29v139h403l-247 -456q26 -14 50 -29l48 -30q29 -19 60 -36.5t67 -17.5q42 0 67 27t25 68zM468 553q-72 -131 -143 -260.5t-142 -261.5q26 18 39 42l261 480h-15zM203 129l-28 4t-28 2q-15 0 -31.5 -3
t-29.5 -10t-21.5 -19.5t-8.5 -31.5q0 -23 16 -39t39 -16q12 0 22 7t18.5 16.5t14.5 20.5t11 20zM301 657l35 -30l34 30h45l-79 -68l-79 68h44z" />
    <glyph glyph-name="agrave" unicode="&#xe0;" horiz-adv-x="322" 
d="M295 60q0 -25 -17.5 -42t-42.5 -17q-29 0 -46 25q-27 -25 -63 -25q-23 0 -41 9.5t-31 25t-20 36t-7 41.5t7 41t20 36t31 25.5t41 9.5q29 0 52 -17v11h68v-180q0 -5 5 -5q7 0 11.5 10.5t4.5 15.5h28zM219 185h-11v-125q0 -15 11 -23v148zM178 169q-17 24 -34 24
q-11 0 -19 -7t-13.5 -18t-8 -25t-2.5 -29q0 -30 10.5 -54.5t31.5 -24.5q17 0 35 22v112zM94 39q-10 14 -14.5 32t-4.5 37q0 43 19 79q-20 -12 -29.5 -32t-9.5 -42q0 -23 9.5 -43t29.5 -31zM208 235l-111 74l16 24l111 -74z" />
    <glyph glyph-name="aacute" unicode="&#xe1;" horiz-adv-x="322" 
d="M295 60q0 -25 -17.5 -42t-42.5 -17q-29 0 -46 25q-27 -25 -63 -25q-23 0 -41 9.5t-31 25t-20 36t-7 41.5t7 41t20 36t31 25.5t41 9.5q29 0 52 -17v11h68v-180q0 -5 5 -5q7 0 11.5 10.5t4.5 15.5h28zM219 185h-11v-125q0 -15 11 -23v148zM178 169q-17 24 -34 24
q-11 0 -19 -7t-13.5 -18t-8 -25t-2.5 -29q0 -30 10.5 -54.5t31.5 -24.5q17 0 35 22v112zM94 39q-10 14 -14.5 32t-4.5 37q0 43 19 79q-20 -12 -29.5 -32t-9.5 -42q0 -23 9.5 -43t29.5 -31zM113 235l-16 24l111 74l16 -24z" />
    <glyph glyph-name="acircumflex" unicode="&#xe2;" horiz-adv-x="322" 
d="M295 60q0 -25 -17.5 -42t-42.5 -17q-29 0 -46 25q-27 -25 -63 -25q-23 0 -41 9.5t-31 25t-20 36t-7 41.5t7 41t20 36t31 25.5t41 9.5q29 0 52 -17v11h68v-180q0 -5 5 -5q7 0 11.5 10.5t4.5 15.5h28zM219 185h-11v-125q0 -15 11 -23v148zM178 169q-17 24 -34 24
q-11 0 -19 -7t-13.5 -18t-8 -25t-2.5 -29q0 -30 10.5 -54.5t31.5 -24.5q17 0 35 22v112zM94 39q-10 14 -14.5 32t-4.5 37q0 43 19 79q-20 -12 -29.5 -32t-9.5 -42q0 -23 9.5 -43t29.5 -31zM68 240l93 80l92 -80h-43l-49 42l-49 -42h-44z" />
    <glyph glyph-name="atilde" unicode="&#xe3;" horiz-adv-x="322" 
d="M295 60q0 -25 -17.5 -42t-42.5 -17q-29 0 -46 25q-27 -25 -63 -25q-23 0 -41 9.5t-31 25t-20 36t-7 41.5t7 41t20 36t31 25.5t41 9.5q29 0 52 -17v11h68v-180q0 -5 5 -5q7 0 11.5 10.5t4.5 15.5h28zM219 185h-11v-125q0 -15 11 -23v148zM178 169q-17 24 -34 24
q-11 0 -19 -7t-13.5 -18t-8 -25t-2.5 -29q0 -30 10.5 -54.5t31.5 -24.5q17 0 35 22v112zM94 39q-10 14 -14.5 32t-4.5 37q0 43 19 79q-20 -12 -29.5 -32t-9.5 -42q0 -23 9.5 -43t29.5 -31zM260 281q-7 -18 -17 -31t-32 -13q-14 0 -28 5.5t-26.5 12t-24.5 12t-22 5.5
q-11 0 -15 -8t-7 -17l-27 11q7 17 17.5 30t31.5 13q14 0 27 -5.5t25.5 -12t24 -12t22.5 -5.5q12 0 16 8t8 17l27 -10v0z" />
    <glyph glyph-name="adieresis" unicode="&#xe4;" horiz-adv-x="322" 
d="M295 60q0 -25 -17.5 -42t-42.5 -17q-29 0 -46 25q-27 -25 -63 -25q-23 0 -41 9.5t-31 25t-20 36t-7 41.5t7 41t20 36t31 25.5t41 9.5q29 0 52 -17v11h68v-180q0 -5 5 -5q7 0 11.5 10.5t4.5 15.5h28zM219 185h-11v-125q0 -15 11 -23v148zM178 169q-17 24 -34 24
q-11 0 -19 -7t-13.5 -18t-8 -25t-2.5 -29q0 -30 10.5 -54.5t31.5 -24.5q17 0 35 22v112zM94 39q-10 14 -14.5 32t-4.5 37q0 43 19 79q-20 -12 -29.5 -32t-9.5 -42q0 -23 9.5 -43t29.5 -31zM225 271q0 -11 -8 -18.5t-19 -7.5t-18.5 7.5t-7.5 18.5t7.5 18.5t18.5 7.5t19 -7.5
t8 -18.5zM149 271q0 -11 -8 -18.5t-19 -7.5t-18.5 7.5t-7.5 18.5t7.5 18.5t18.5 7.5t19 -7.5t8 -18.5z" />
    <glyph glyph-name="aring" unicode="&#xe5;" horiz-adv-x="322" 
d="M295 60q0 -25 -17.5 -42t-42.5 -17q-29 0 -46 25q-27 -25 -63 -25q-23 0 -41 9.5t-31 25t-20 36t-7 41.5t7 41t20 36t31 25.5t41 9.5q29 0 52 -17v11h68v-180q0 -5 5 -5q7 0 11.5 10.5t4.5 15.5h28zM219 185h-11v-125q0 -15 11 -23v148zM178 169q-17 24 -34 24
q-11 0 -19 -7t-13.5 -18t-8 -25t-2.5 -29q0 -30 10.5 -54.5t31.5 -24.5q17 0 35 22v112zM94 39q-10 14 -14.5 32t-4.5 37q0 43 19 79q-20 -12 -29.5 -32t-9.5 -42q0 -23 9.5 -43t29.5 -31zM178 276q0 -15 -11 -25.5t-26 -10.5t-25.5 10.5t-10.5 25.5t10.5 26t25.5 11t26 -11
t11 -26zM158 276q0 8 -5 12.5t-12 4.5t-12 -5t-5 -12q0 -8 5 -12.5t12 -4.5q8 0 12.5 5t4.5 12z" />
    <glyph glyph-name="ccedilla" unicode="&#xe7;" horiz-adv-x="267" 
d="M240 46q-16 -23 -35 -34.5t-48 -11.5q-24 0 -45 9t-37 24t-25.5 36t-9.5 45t9.5 44t26 35t38 23.5t44.5 8.5q11 0 25 -3t26.5 -9t21 -15.5t8.5 -23.5t-9.5 -23t-23.5 -9q-16 0 -31 13t-15 30q0 6 1 9q-20 -6 -29.5 -30t-9.5 -52q0 -31 12 -56.5t35 -25.5q17 0 27.5 10
t19.5 22zM111 39q-18 30 -18 71q0 20 4.5 40t13.5 37q-19 -11 -28.5 -31.5t-9.5 -42.5t9.5 -42.5t28.5 -31.5zM186 -71q0 -17 -7 -31t-18.5 -24.5t-26.5 -16t-31 -5.5q-15 0 -28.5 5.5t-24 14.5t-17 22t-6.5 28q0 18 12 30t30 12q14 0 24.5 -9.5t10.5 -24.5
q0 -14 -9.5 -24.5t-23.5 -10.5h-4q14 -14 36 -14q20 0 37 13t17 35q0 26 -21 43t-46 17v28q18 0 35.5 -6.5t31 -18t21.5 -28t8 -35.5z" />
    <glyph glyph-name="egrave" unicode="&#xe8;" horiz-adv-x="263" 
d="M236 45q-17 -21 -41.5 -33t-51.5 -12q-24 0 -45.5 9t-37 24t-24.5 35t-9 43q0 24 9 45t25 36t37.5 24t46.5 9q29 0 52.5 -14t23.5 -47q0 -21 -11 -35t-27 -24t-34.5 -17t-34.5 -12q13 -46 43 -46q26 0 57 33zM192 165q0 16 -10 23t-24 7q-12 0 -21.5 -8t-15.5 -20.5
t-9 -29t-3 -32.5q10 3 24.5 7.5t27.5 11.5t22 17t9 24zM97 39q-11 16 -14.5 34.5t-3.5 36.5q0 20 4 40t14 37q-19 -11 -28.5 -31.5t-9.5 -42.5t9.5 -42.5t28.5 -31.5zM179 235l-111 74l16 24l111 -74z" />
    <glyph glyph-name="eacute" unicode="&#xe9;" horiz-adv-x="263" 
d="M236 45q-17 -21 -41.5 -33t-51.5 -12q-24 0 -45.5 9t-37 24t-24.5 35t-9 43q0 24 9 45t25 36t37.5 24t46.5 9q29 0 52.5 -14t23.5 -47q0 -21 -11 -35t-27 -24t-34.5 -17t-34.5 -12q13 -46 43 -46q26 0 57 33zM192 165q0 16 -10 23t-24 7q-12 0 -21.5 -8t-15.5 -20.5
t-9 -29t-3 -32.5q10 3 24.5 7.5t27.5 11.5t22 17t9 24zM97 39q-11 16 -14.5 34.5t-3.5 36.5q0 20 4 40t14 37q-19 -11 -28.5 -31.5t-9.5 -42.5t9.5 -42.5t28.5 -31.5zM96 235l-16 24l111 74l16 -24z" />
    <glyph glyph-name="ecircumflex" unicode="&#xea;" horiz-adv-x="263" 
d="M236 45q-17 -21 -41.5 -33t-51.5 -12q-24 0 -45.5 9t-37 24t-24.5 35t-9 43q0 24 9 45t25 36t37.5 24t46.5 9q29 0 52.5 -14t23.5 -47q0 -21 -11 -35t-27 -24t-34.5 -17t-34.5 -12q13 -46 43 -46q26 0 57 33zM192 165q0 16 -10 23t-24 7q-12 0 -21.5 -8t-15.5 -20.5
t-9 -29t-3 -32.5q10 3 24.5 7.5t27.5 11.5t22 17t9 24zM97 39q-11 16 -14.5 34.5t-3.5 36.5q0 20 4 40t14 37q-19 -11 -28.5 -31.5t-9.5 -42.5t9.5 -42.5t28.5 -31.5zM38 240l93 80l92 -80h-43l-49 42l-49 -42h-44z" />
    <glyph glyph-name="edieresis" unicode="&#xeb;" horiz-adv-x="263" 
d="M236 45q-17 -21 -41.5 -33t-51.5 -12q-24 0 -45.5 9t-37 24t-24.5 35t-9 43q0 24 9 45t25 36t37.5 24t46.5 9q29 0 52.5 -14t23.5 -47q0 -21 -11 -35t-27 -24t-34.5 -17t-34.5 -12q13 -46 43 -46q26 0 57 33zM192 165q0 16 -10 23t-24 7q-12 0 -21.5 -8t-15.5 -20.5
t-9 -29t-3 -32.5q10 3 24.5 7.5t27.5 11.5t22 17t9 24zM97 39q-11 16 -14.5 34.5t-3.5 36.5q0 20 4 40t14 37q-19 -11 -28.5 -31.5t-9.5 -42.5t9.5 -42.5t28.5 -31.5zM196 271q0 -11 -8 -18.5t-19 -7.5t-18.5 7.5t-7.5 18.5t7.5 18.5t18.5 7.5t19 -7.5t8 -18.5zM120 271
q0 -11 -8 -18.5t-19 -7.5t-18.5 7.5t-7.5 18.5t7.5 18.5t18.5 7.5t19 -7.5t8 -18.5z" />
    <glyph glyph-name="igrave" unicode="&#xec;" horiz-adv-x="171" 
d="M144 60q0 -24 -17.5 -41.5t-41.5 -17.5q-25 0 -41.5 17.5t-16.5 41.5v159h68v-180q0 -5 4 -5q7 0 11.5 10.5t4.5 15.5h29zM66 190h-11v-130q0 -14 11 -23v153zM108 235l-111 74l16 24l111 -74z" />
    <glyph glyph-name="iacute" unicode="&#xed;" horiz-adv-x="171" 
d="M144 60q0 -24 -17.5 -41.5t-41.5 -17.5q-25 0 -41.5 17.5t-16.5 41.5v159h68v-180q0 -5 4 -5q7 0 11.5 10.5t4.5 15.5h29zM66 190h-11v-130q0 -14 11 -23v153zM39 235l-16 24l111 74l16 -24z" />
    <glyph glyph-name="icircumflex" unicode="&#xee;" horiz-adv-x="171" 
d="M144 60q0 -24 -17.5 -41.5t-41.5 -17.5q-25 0 -41.5 17.5t-16.5 41.5v159h68v-180q0 -5 4 -5q7 0 11.5 10.5t4.5 15.5h29zM66 190h-11v-130q0 -14 11 -23v153zM-30 240l93 80l92 -80h-43l-49 42l-49 -42h-44z" />
    <glyph glyph-name="idieresis" unicode="&#xef;" horiz-adv-x="171" 
d="M144 60q0 -24 -17.5 -41.5t-41.5 -17.5q-25 0 -41.5 17.5t-16.5 41.5v159h68v-180q0 -5 4 -5q7 0 11.5 10.5t4.5 15.5h29zM66 190h-11v-130q0 -14 11 -23v153zM126 271q0 -11 -8 -18.5t-19 -7.5t-18.5 7.5t-7.5 18.5t7.5 18.5t18.5 7.5t19 -7.5t8 -18.5zM50 271
q0 -11 -8 -18.5t-19 -7.5t-18.5 7.5t-7.5 18.5t7.5 18.5t18.5 7.5t19 -7.5t8 -18.5z" />
    <glyph glyph-name="ntilde" unicode="&#xf1;" horiz-adv-x="363" 
d="M336 60q0 -24 -17.5 -41.5t-41.5 -17.5t-41.5 17.5t-17.5 41.5v118q0 7 -5.5 11t-11.5 4q-7 0 -16.5 -5.5t-18.5 -13.5t-15 -17.5t-6 -16.5v-140l-69 1v186q0 5 -5 5q-6 0 -10.5 -10.5t-4.5 -15.5h-29q0 26 17.5 42.5t43.5 16.5q17 0 31 -9.5t21 -26.5q14 16 34.5 26
t42.5 10q26 0 48.5 -16.5t22.5 -45.5v-126q0 -3 4 -3q7 0 11 10.5t4 15.5h29zM258 163q0 14 -12 24q2 -5 2 -16.5v-27.5q0 -23 -0.5 -47.5t-0.5 -35.5q0 -15 11 -23v126zM116 157q0 9 -1.5 17.5t-9.5 14.5v-160h11v128zM281 281q-7 -18 -17 -31t-32 -13q-14 0 -28 5.5
t-26.5 12t-24.5 12t-22 5.5q-11 0 -15 -8t-7 -17l-27 11q7 17 17.5 30t31.5 13q14 0 27 -5.5t25.5 -12t24 -12t22.5 -5.5q12 0 16 8t8 17l27 -10v0z" />
    <glyph glyph-name="ograve" unicode="&#xf2;" 
d="M227 113q0 -21 -7 -41.5t-20.5 -36t-32 -25.5t-40.5 -10q-23 0 -41 10t-31.5 25.5t-20.5 36t-7 41.5t7 41t20.5 36t31.5 25.5t41 9.5q22 0 40.5 -9.5t32 -25.5t20.5 -36t7 -41zM149 37q24 0 35.5 22.5t11.5 50.5q0 15 -3 29t-9.5 25t-16 18t-21.5 7q-20 0 -30 -23
t-10 -52t10.5 -53t32.5 -24zM95 39q-19 31 -19 71q0 41 19 77q-20 -11 -29.5 -31.5t-9.5 -42.5t9.5 -42.5t29.5 -31.5zM174 235l-111 74l16 24l111 -74z" />
    <glyph glyph-name="oacute" unicode="&#xf3;" 
d="M227 113q0 -21 -7 -41.5t-20.5 -36t-32 -25.5t-40.5 -10q-23 0 -41 10t-31.5 25.5t-20.5 36t-7 41.5t7 41t20.5 36t31.5 25.5t41 9.5q22 0 40.5 -9.5t32 -25.5t20.5 -36t7 -41zM149 37q24 0 35.5 22.5t11.5 50.5q0 15 -3 29t-9.5 25t-16 18t-21.5 7q-20 0 -30 -23
t-10 -52t10.5 -53t32.5 -24zM95 39q-19 31 -19 71q0 41 19 77q-20 -11 -29.5 -31.5t-9.5 -42.5t9.5 -42.5t29.5 -31.5zM79 235l-16 24l111 74l16 -24z" />
    <glyph glyph-name="ocircumflex" unicode="&#xf4;" 
d="M227 113q0 -21 -7 -41.5t-20.5 -36t-32 -25.5t-40.5 -10q-23 0 -41 10t-31.5 25.5t-20.5 36t-7 41.5t7 41t20.5 36t31.5 25.5t41 9.5q22 0 40.5 -9.5t32 -25.5t20.5 -36t7 -41zM149 37q24 0 35.5 22.5t11.5 50.5q0 15 -3 29t-9.5 25t-16 18t-21.5 7q-20 0 -30 -23
t-10 -52t10.5 -53t32.5 -24zM95 39q-19 31 -19 71q0 41 19 77q-20 -11 -29.5 -31.5t-9.5 -42.5t9.5 -42.5t29.5 -31.5zM34 240l93 80l92 -80h-43l-49 42l-49 -42h-44z" />
    <glyph glyph-name="otilde" unicode="&#xf5;" 
d="M227 113q0 -21 -7 -41.5t-20.5 -36t-32 -25.5t-40.5 -10q-23 0 -41 10t-31.5 25.5t-20.5 36t-7 41.5t7 41t20.5 36t31.5 25.5t41 9.5q22 0 40.5 -9.5t32 -25.5t20.5 -36t7 -41zM149 37q24 0 35.5 22.5t11.5 50.5q0 15 -3 29t-9.5 25t-16 18t-21.5 7q-20 0 -30 -23
t-10 -52t10.5 -53t32.5 -24zM95 39q-19 31 -19 71q0 41 19 77q-20 -11 -29.5 -31.5t-9.5 -42.5t9.5 -42.5t29.5 -31.5zM226 281q-7 -18 -17 -31t-32 -13q-14 0 -28 5.5t-26.5 12t-24.5 12t-22 5.5q-11 0 -15 -8t-7 -17l-27 11q7 17 17.5 30t31.5 13q14 0 27 -5.5t25.5 -12
t24 -12t22.5 -5.5q12 0 16 8t8 17l27 -10v0z" />
    <glyph glyph-name="odieresis" unicode="&#xf6;" 
d="M227 113q0 -21 -7 -41.5t-20.5 -36t-32 -25.5t-40.5 -10q-23 0 -41 10t-31.5 25.5t-20.5 36t-7 41.5t7 41t20.5 36t31.5 25.5t41 9.5q22 0 40.5 -9.5t32 -25.5t20.5 -36t7 -41zM149 37q24 0 35.5 22.5t11.5 50.5q0 15 -3 29t-9.5 25t-16 18t-21.5 7q-20 0 -30 -23
t-10 -52t10.5 -53t32.5 -24zM95 39q-19 31 -19 71q0 41 19 77q-20 -11 -29.5 -31.5t-9.5 -42.5t9.5 -42.5t29.5 -31.5zM191 271q0 -11 -8 -18.5t-19 -7.5t-18.5 7.5t-7.5 18.5t7.5 18.5t18.5 7.5t19 -7.5t8 -18.5zM115 271q0 -11 -8 -18.5t-19 -7.5t-18.5 7.5t-7.5 18.5
t7.5 18.5t18.5 7.5t19 -7.5t8 -18.5z" />
    <glyph glyph-name="scaron" unicode="&#x161;" horiz-adv-x="229" 
d="M202 63q0 -15 -8 -26.5t-20.5 -19.5t-28 -12t-30.5 -4q-14 0 -29 4t-28.5 11.5t-22 19t-8.5 27.5q0 15 8.5 24t23.5 9q18 0 31 -16t13 -33q0 -9 -4 -16q5 -1 8.5 -1.5t8.5 -0.5q7 0 18 3t11 13q0 4 -7.5 11.5t-17.5 15.5t-19 15t-13 10q-8 6 -17.5 13t-18 15.5t-14 18.5
t-5.5 21q0 15 7.5 26t19 18.5t25.5 11.5t28 4q12 0 26 -2.5t26 -9t19.5 -17t7.5 -25.5q0 -12 -7 -22.5t-21 -10.5q-18 0 -31 14.5t-13 31.5q0 5 2 11q-2 0 -4 0.5t-4 0.5q-7 0 -16.5 -2.5t-9.5 -11.5q0 -8 18 -20.5t39 -28t39 -33.5t18 -37zM172 57q1 2 1 5q0 13 -17.5 28
t-38 30t-38 28.5t-17.5 22.5q0 -12 15.5 -26t35 -29t37 -30t22.5 -29zM79 300l35 -30l34 30h45l-79 -68l-79 68h44z" />
    <glyph glyph-name="ugrave" unicode="&#xf9;" horiz-adv-x="311" 
d="M284 59q0 -25 -17.5 -42t-42.5 -17q-17 0 -30 9t-21 24q-15 -14 -35 -23.5t-41 -9.5q-26 0 -48 17t-22 45v163h70v-178q0 -7 5 -10.5t12 -3.5q14 0 30 13.5t22 25.5v153h70v-193q19 5 19 27h29zM206 196h-11v-137q0 -7 3 -12.5t8 -10.5v160zM69 38q-1 3 -1 9v149h-13
v-134q0 -14 14 -24zM189 235l-111 74l16 24l111 -74z" />
    <glyph glyph-name="uacute" unicode="&#xfa;" horiz-adv-x="311" 
d="M284 59q0 -25 -17.5 -42t-42.5 -17q-17 0 -30 9t-21 24q-15 -14 -35 -23.5t-41 -9.5q-26 0 -48 17t-22 45v163h70v-178q0 -7 5 -10.5t12 -3.5q14 0 30 13.5t22 25.5v153h70v-193q19 5 19 27h29zM206 196h-11v-137q0 -7 3 -12.5t8 -10.5v160zM69 38q-1 3 -1 9v149h-13
v-134q0 -14 14 -24zM108 235l-16 24l111 74l16 -24z" />
    <glyph glyph-name="ucircumflex" unicode="&#xfb;" horiz-adv-x="311" 
d="M284 59q0 -25 -17.5 -42t-42.5 -17q-17 0 -30 9t-21 24q-15 -14 -35 -23.5t-41 -9.5q-26 0 -48 17t-22 45v163h70v-178q0 -7 5 -10.5t12 -3.5q14 0 30 13.5t22 25.5v153h70v-193q19 5 19 27h29zM206 196h-11v-137q0 -7 3 -12.5t8 -10.5v160zM69 38q-1 3 -1 9v149h-13
v-134q0 -14 14 -24zM40 240l93 80l92 -80h-43l-49 42l-49 -42h-44z" />
    <glyph glyph-name="udieresis" unicode="&#xfc;" horiz-adv-x="311" 
d="M284 59q0 -25 -17.5 -42t-42.5 -17q-17 0 -30 9t-21 24q-15 -14 -35 -23.5t-41 -9.5q-26 0 -48 17t-22 45v163h70v-178q0 -7 5 -10.5t12 -3.5q14 0 30 13.5t22 25.5v153h70v-193q19 5 19 27h29zM206 196h-11v-137q0 -7 3 -12.5t8 -10.5v160zM69 38q-1 3 -1 9v149h-13
v-134q0 -14 14 -24zM200 271q0 -11 -8 -18.5t-19 -7.5t-18.5 7.5t-7.5 18.5t7.5 18.5t18.5 7.5t19 -7.5t8 -18.5zM124 271q0 -11 -8 -18.5t-19 -7.5t-18.5 7.5t-7.5 18.5t7.5 18.5t18.5 7.5t19 -7.5t8 -18.5z" />
    <glyph glyph-name="yacute" unicode="&#xfd;" horiz-adv-x="258" 
d="M231 -154q0 -29 -20.5 -49.5t-49.5 -20.5t-49 20l21 21q5 -5 11.5 -8.5t17.5 -3.5v219q-14 -11 -30.5 -17.5t-34.5 -6.5q-26 0 -48 17t-22 45v163h70v-178q0 -7 5.5 -10.5t12.5 -3.5q12 0 26 11t21 21v160h69v-379zM202 196h-11v-378q11 11 11 28v350zM69 38q-1 3 -1 9
v149h-12v-134q0 -14 13 -24zM93 235l-16 24l111 74l16 -24z" />
    <glyph glyph-name="ydieresis" unicode="&#xff;" horiz-adv-x="258" 
d="M231 -154q0 -29 -20.5 -49.5t-49.5 -20.5t-49 20l21 21q5 -5 11.5 -8.5t17.5 -3.5v219q-14 -11 -30.5 -17.5t-34.5 -6.5q-26 0 -48 17t-22 45v163h70v-178q0 -7 5.5 -10.5t12.5 -3.5q12 0 26 11t21 21v160h69v-379zM202 196h-11v-378q11 11 11 28v350zM69 38q-1 3 -1 9
v149h-12v-134q0 -14 13 -24zM197 271q0 -11 -8 -18.5t-19 -7.5t-18.5 7.5t-7.5 18.5t7.5 18.5t18.5 7.5t19 -7.5t8 -18.5zM121 271q0 -11 -8 -18.5t-19 -7.5t-18.5 7.5t-7.5 18.5t7.5 18.5t18.5 7.5t19 -7.5t8 -18.5z" />
    <glyph glyph-name="zcaron" unicode="&#x17e;" horiz-adv-x="252" 
d="M225 62q0 -3 -2 -9q-5 -23 -19 -37.5t-39 -14.5q-23 0 -43.5 10.5t-43.5 10.5q-9 0 -14 -4.5t-11 -11.5l-22 18q24 31 48.5 60.5t49.5 59.5q-5 3 -12.5 8l-15 10t-14.5 8.5t-12 3.5q-8 0 -13 -5t-7 -12l-28 7q5 23 17 41.5t40 18.5q22 0 42.5 -10t41.5 -10q8 0 13 5
t10 11l22 -19l-95 -115q6 -3 13.5 -8.5t16 -11t16.5 -9.5t14 -4q16 0 19 17zM155 176q-14 2 -26 7t-25 9q11 -6 21 -13.5t22 -12.5zM155 31q-14 7 -27 17t-28 16l-11 -14q17 -2 33 -8.5t33 -10.5zM91 300l35 -30l34 30h45l-79 -68l-79 68h44z" />
    <glyph glyph-name="florin" unicode="&#x192;" horiz-adv-x="694" 
d="M393 330q0 -8 -1 -12q4 1 14 1q17 0 34.5 -7t19.5 -24q8 4 20 5.5t23 1.5q26 0 46.5 -12.5t20.5 -38.5q0 -6 -2 -11.5t-5 -11.5q-4 -4 -8 -4q-8 0 -8 8q0 3 2 5q5 7 5 14q0 16 -12.5 25t-31.5 9q-20 0 -35.5 -5t-26 -12.5t-16.5 -16t-6 -15.5q0 -8 6 -16t28 -8q7 0 13 1
t12 3q1 1 3 1q8 0 8 -9q-3 -28 -27 -44q-23 -18 -56 -18q-18 0 -36 6.5t-30 20.5q-12 -14 -30 -20.5t-37 -6.5q-33 0 -55 18q-11 8 -18.5 19.5t-8.5 24.5q0 9 7 9q2 0 3 -1q6 -2 12.5 -3t12.5 -1q23 0 29.5 8t6.5 16q0 7 -6 15.5t-17.5 16t-27.5 12.5t-36 5q-18 0 -30 -9
t-12 -25q0 -9 5 -14q2 -2 2 -5q0 -8 -9 -8q-3 0 -7 4q-8 13 -8 23q0 26 21 38.5t47 12.5q11 0 22.5 -1.5t19.5 -5.5q3 17 20.5 24t33.5 7h7t7 -1v14q0 22 3 34q5 15 10 15t10 -15q1 -4 2 -8.5t1 -10.5l-15 -17h16q0 -6 -0.5 -11t-1.5 -10q14 -11 14 -25q0 -13 -7 -20
t-17 -11q-9 -4 -17 -8.5t-8 -11.5t5.5 -12t14 -8t18.5 -4t18 -1t17.5 1t18 4t14 8t5.5 12q0 6 -7 11t-18 9q-9 4 -16.5 10.5t-7.5 20.5q0 13 15 25q-2 5 -2 10.5v12.5q0 10 1 19t3 15q3 15 9 15q7 0 10 -15q3 -8 3 -20l-15 -16h16zM407 310q-21 0 -31 -9q-12 -6 -12 -17
t12 -17q5 -4 13 -6.5t18 -2.5q17 0 31 9q12 7 12 17t-12 17q-12 9 -31 9zM287 310q-21 0 -31 -9q-12 -6 -12 -17t12 -17q5 -4 13 -6.5t18 -2.5q17 0 31 9q12 7 12 17t-12 17q-12 9 -31 9zM403 209q-11 -10 -27 -13.5t-29 -3.5t-29 3.5t-27 13.5q-26 -20 -58 -20q-4 0 -8 0.5
t-9 0.5q8 -17 26 -26t38 -9q17 0 33.5 7.5t26.5 21.5q3 4 7 4q2 0 4 -1t3 -3q9 -14 25.5 -21.5t33.5 -7.5q20 0 38 9t26 26q-5 0 -8.5 -0.5t-8.5 -0.5q-32 0 -57 20zM284 427q-42 -10 -71 -29.5t-29 -56.5q0 -5 1 -10.5t1 -12.5q0 -8 -8 -8q-7 0 -7 7q-3 12 -3 24
q0 56 41 95q-16 9 -27.5 23t-15.5 33q0 6 8 6q7 0 8 -6q6 -25 29 -38.5t49 -13.5q24 0 46 12t30 35q1 5 8 5t7 -5q8 -23 30.5 -35t46.5 -12q25 0 48 13.5t29 38.5q1 6 8 6q8 0 8 -9q-4 -16 -14.5 -29t-24.5 -21q20 -20 31.5 -44.5t11.5 -53.5q0 -5 -0.5 -11.5t-1.5 -12.5
q-1 -7 -8 -7q-8 0 -8 9q1 6 1.5 11.5t0.5 10.5q0 39 -24.5 58t-62.5 25q-23 4 -44 13.5t-34 29.5q-10 -16 -26 -26t-34 -14zM595 81q-20 -20 -48 -31.5t-59 -11.5q-32 -17 -69 -17h-10q-29 -13 -62 -13q-32 0 -63 13h-9q-38 0 -70 17q-30 0 -58 11.5t-48 31.5
q-29 20 -50.5 48.5t-21.5 64.5q0 27 12.5 50t32.5 41q-10 18 -15.5 37.5t-5.5 39.5q0 44 23.5 82t64.5 67q40 28 93.5 44t114.5 16t114 -16t94 -45t64.5 -66.5t23.5 -81.5q0 -20 -5.5 -39.5t-15.5 -37.5q20 -18 32.5 -41t12.5 -50q0 -36 -21.5 -64.5t-50.5 -48.5zM516 57
q38 8 66 35t28 67q0 32 -21 58q-2 2 -2 6q0 8 8 8q4 0 7 -4q24 -30 24 -68q0 -17 -5 -35q13 15 21.5 32.5t8.5 37.5q0 26 -13 46.5t-32 37.5q-2 2 -2 6q0 2 1 3q22 38 22 75q0 40 -22 75t-60 61q-38 27 -89 42.5t-109 15.5q-59 0 -109.5 -15.5t-88.5 -41.5q-38 -27 -60 -62
t-22 -75q0 -17 3.5 -30t7.5 -22.5t7.5 -16t3.5 -9.5q0 -5 -2 -6q-18 -17 -31 -37.5t-13 -46.5q0 -20 8 -37.5t22 -32.5q-5 18 -5 35q0 39 24 68q3 4 7 4q8 0 8 -8q0 -2 -2 -6q-21 -24 -21 -58q0 -40 28 -67t66 -35q-18 16 -29 37.5t-11 47.5q0 40 27 70q3 4 6 4q8 0 8 -7
q0 -4 -2 -6q-23 -26 -23 -61q0 -21 8.5 -39t22.5 -31.5t32.5 -22t38.5 -11.5q-21 16 -34 39t-13 51q0 9 8 9q9 0 9 -9q0 -23 10.5 -42.5t27.5 -33.5t38.5 -21.5t44.5 -7.5t44.5 7.5t38.5 21.5t27.5 33.5t10.5 42.5q0 9 9 9q7 0 7 -9q0 -28 -12.5 -51t-34.5 -39
q21 3 39.5 11.5t32.5 22t22.5 31.5t8.5 39q0 34 -24 61q-2 4 -2 6q0 7 8 7q4 0 7 -4q27 -32 27 -70q0 -26 -11 -47.5t-29 -37.5z" />
    <glyph glyph-name="mu" unicode="&#xb5;" horiz-adv-x="313" 
d="M286 59q-1 -26 -18.5 -42.5t-41.5 -16.5q-17 0 -30.5 9t-20.5 24q-16 -14 -35.5 -23t-40.5 -10v-111h-72v336h71v-179q0 -7 5.5 -10t11.5 -3q14 0 30 13.5t22 25.5v153h70v-193q8 2 13.5 9t5.5 18h30zM208 196h-12v-137q0 -7 3 -12.5t8 -10.5zM70 196h-14v-278h13z" />
    <glyph glyph-name="mu" unicode="&#x3bc;" horiz-adv-x="313" 
d="M286 59q-1 -26 -18.5 -42.5t-41.5 -16.5q-17 0 -30.5 9t-20.5 24q-16 -14 -35.5 -23t-40.5 -10v-111h-72v336h71v-179q0 -7 5.5 -10t11.5 -3q14 0 30 13.5t22 25.5v153h70v-193q8 2 13.5 9t5.5 18h30zM208 196h-12v-137q0 -7 3 -12.5t8 -10.5zM70 196h-14v-278h13z" />
    </font>
</defs>
</svg>
